%TF.GenerationSoftware,KiCad,Pcbnew,8.99.0-3376-g16cbb218c6*%
%TF.CreationDate,2024-12-27T08:14:29+01:00*%
%TF.ProjectId,PoE_Ethernet_GPIB_Adapter,506f455f-4574-4686-9572-6e65745f4750,rev?*%
%TF.SameCoordinates,Original*%
%TF.FileFunction,Copper,L6,Bot*%
%TF.FilePolarity,Positive*%
%FSLAX46Y46*%
G04 Gerber Fmt 4.6, Leading zero omitted, Abs format (unit mm)*
G04 Created by KiCad (PCBNEW 8.99.0-3376-g16cbb218c6) date 2024-12-27 08:14:29*
%MOMM*%
%LPD*%
G01*
G04 APERTURE LIST*
G04 Aperture macros list*
%AMRoundRect*
0 Rectangle with rounded corners*
0 $1 Rounding radius*
0 $2 $3 $4 $5 $6 $7 $8 $9 X,Y pos of 4 corners*
0 Add a 4 corners polygon primitive as box body*
4,1,4,$2,$3,$4,$5,$6,$7,$8,$9,$2,$3,0*
0 Add four circle primitives for the rounded corners*
1,1,$1+$1,$2,$3*
1,1,$1+$1,$4,$5*
1,1,$1+$1,$6,$7*
1,1,$1+$1,$8,$9*
0 Add four rect primitives between the rounded corners*
20,1,$1+$1,$2,$3,$4,$5,0*
20,1,$1+$1,$4,$5,$6,$7,0*
20,1,$1+$1,$6,$7,$8,$9,0*
20,1,$1+$1,$8,$9,$2,$3,0*%
G04 Aperture macros list end*
%TA.AperFunction,EtchedComponent*%
%ADD10C,0.000000*%
%TD*%
%TA.AperFunction,ComponentPad*%
%ADD11O,2.100000X1.000000*%
%TD*%
%TA.AperFunction,ComponentPad*%
%ADD12O,1.800000X1.000000*%
%TD*%
%TA.AperFunction,ComponentPad*%
%ADD13R,1.000000X1.000000*%
%TD*%
%TA.AperFunction,ComponentPad*%
%ADD14O,1.000000X1.000000*%
%TD*%
%TA.AperFunction,ComponentPad*%
%ADD15RoundRect,0.250000X-0.550000X0.550000X-0.550000X-0.550000X0.550000X-0.550000X0.550000X0.550000X0*%
%TD*%
%TA.AperFunction,ComponentPad*%
%ADD16C,1.600000*%
%TD*%
%TA.AperFunction,ComponentPad*%
%ADD17C,1.720000*%
%TD*%
%TA.AperFunction,ComponentPad*%
%ADD18C,2.500000*%
%TD*%
%TA.AperFunction,ComponentPad*%
%ADD19C,1.700000*%
%TD*%
%TA.AperFunction,ComponentPad*%
%ADD20C,2.200000*%
%TD*%
%TA.AperFunction,ComponentPad*%
%ADD21R,2.000000X1.270000*%
%TD*%
%TA.AperFunction,ComponentPad*%
%ADD22O,2.000000X1.270000*%
%TD*%
%TA.AperFunction,ComponentPad*%
%ADD23C,5.000000*%
%TD*%
%TA.AperFunction,SMDPad,CuDef*%
%ADD24C,0.750000*%
%TD*%
%TA.AperFunction,SMDPad,CuDef*%
%ADD25RoundRect,0.100000X0.100000X-0.637500X0.100000X0.637500X-0.100000X0.637500X-0.100000X-0.637500X0*%
%TD*%
%TA.AperFunction,SMDPad,CuDef*%
%ADD26RoundRect,0.250000X-0.250000X-0.475000X0.250000X-0.475000X0.250000X0.475000X-0.250000X0.475000X0*%
%TD*%
%TA.AperFunction,SMDPad,CuDef*%
%ADD27RoundRect,0.250000X-1.100000X0.325000X-1.100000X-0.325000X1.100000X-0.325000X1.100000X0.325000X0*%
%TD*%
%TA.AperFunction,SMDPad,CuDef*%
%ADD28RoundRect,0.135000X-0.185000X0.135000X-0.185000X-0.135000X0.185000X-0.135000X0.185000X0.135000X0*%
%TD*%
%TA.AperFunction,SMDPad,CuDef*%
%ADD29RoundRect,0.200000X-0.275000X0.200000X-0.275000X-0.200000X0.275000X-0.200000X0.275000X0.200000X0*%
%TD*%
%TA.AperFunction,SMDPad,CuDef*%
%ADD30RoundRect,0.250000X0.250000X0.475000X-0.250000X0.475000X-0.250000X-0.475000X0.250000X-0.475000X0*%
%TD*%
%TA.AperFunction,SMDPad,CuDef*%
%ADD31RoundRect,0.200000X0.275000X-0.200000X0.275000X0.200000X-0.275000X0.200000X-0.275000X-0.200000X0*%
%TD*%
%TA.AperFunction,SMDPad,CuDef*%
%ADD32RoundRect,0.135000X0.185000X-0.135000X0.185000X0.135000X-0.185000X0.135000X-0.185000X-0.135000X0*%
%TD*%
%TA.AperFunction,SMDPad,CuDef*%
%ADD33RoundRect,0.225000X-0.225000X-0.250000X0.225000X-0.250000X0.225000X0.250000X-0.225000X0.250000X0*%
%TD*%
%TA.AperFunction,SMDPad,CuDef*%
%ADD34RoundRect,0.225000X-0.250000X0.225000X-0.250000X-0.225000X0.250000X-0.225000X0.250000X0.225000X0*%
%TD*%
%TA.AperFunction,SMDPad,CuDef*%
%ADD35RoundRect,0.250000X0.312500X1.450000X-0.312500X1.450000X-0.312500X-1.450000X0.312500X-1.450000X0*%
%TD*%
%TA.AperFunction,SMDPad,CuDef*%
%ADD36RoundRect,0.250000X-0.450000X0.262500X-0.450000X-0.262500X0.450000X-0.262500X0.450000X0.262500X0*%
%TD*%
%TA.AperFunction,SMDPad,CuDef*%
%ADD37RoundRect,0.218750X-0.218750X-0.381250X0.218750X-0.381250X0.218750X0.381250X-0.218750X0.381250X0*%
%TD*%
%TA.AperFunction,SMDPad,CuDef*%
%ADD38RoundRect,0.200000X-0.200000X-0.275000X0.200000X-0.275000X0.200000X0.275000X-0.200000X0.275000X0*%
%TD*%
%TA.AperFunction,SMDPad,CuDef*%
%ADD39C,0.500000*%
%TD*%
%TA.AperFunction,ViaPad*%
%ADD40C,0.450000*%
%TD*%
%TA.AperFunction,ViaPad*%
%ADD41C,0.500000*%
%TD*%
%TA.AperFunction,Conductor*%
%ADD42C,0.800000*%
%TD*%
%TA.AperFunction,Conductor*%
%ADD43C,0.500000*%
%TD*%
%TA.AperFunction,Conductor*%
%ADD44C,0.200000*%
%TD*%
%TA.AperFunction,Conductor*%
%ADD45C,1.000000*%
%TD*%
%TA.AperFunction,Conductor*%
%ADD46C,0.300000*%
%TD*%
%TA.AperFunction,Conductor*%
%ADD47C,0.400000*%
%TD*%
%TA.AperFunction,Conductor*%
%ADD48C,0.127000*%
%TD*%
%TA.AperFunction,Conductor*%
%ADD49C,0.100000*%
%TD*%
G04 APERTURE END LIST*
D10*
%TA.AperFunction,EtchedComponent*%
%TO.C,NT1*%
G36*
X-5950000Y-16750000D02*
G01*
X-6450000Y-16750000D01*
X-6450000Y-15750000D01*
X-5950000Y-15750000D01*
X-5950000Y-16750000D01*
G37*
%TD.AperFunction*%
%TD*%
D11*
%TO.P,J3,S1,SHIELD*%
%TO.N,GND*%
X-24920000Y25245000D03*
D12*
X-29100000Y25245000D03*
D11*
X-24920000Y16605000D03*
D12*
X-29100000Y16605000D03*
%TD*%
D13*
%TO.P,J4,1,Pin_1*%
%TO.N,Net-(J4-Pin_1)*%
X12575000Y20150000D03*
D14*
%TO.P,J4,2,Pin_2*%
%TO.N,GND*%
X11305000Y20150000D03*
%TO.P,J4,3,Pin_3*%
%TO.N,/MCU/UPDI*%
X12575000Y21420000D03*
%TO.P,J4,4,Pin_4*%
%TO.N,+5V*%
X11305000Y21420000D03*
%TO.P,J4,5,Pin_5*%
%TO.N,Net-(J4-Pin_5)*%
X12575000Y22690000D03*
%TO.P,J4,6,Pin_6*%
%TO.N,/Ethernet_interface/nRST*%
X11305000Y22690000D03*
%TO.P,J4,7,Pin_7*%
%TO.N,Net-(J4-Pin_7)*%
X12575000Y23960000D03*
%TO.P,J4,8,Pin_8*%
%TO.N,unconnected-(J4-Pin_8-Pad8)*%
X11305000Y23960000D03*
%TO.P,J4,9,Pin_9*%
%TO.N,Net-(J4-Pin_9)*%
X12575000Y25230000D03*
%TO.P,J4,10,Pin_10*%
%TO.N,GND*%
X11305000Y25230000D03*
%TD*%
D15*
%TO.P,J1,1,VC2-*%
%TO.N,/Ethernet_interface/VC2-*%
X-15635000Y-14415000D03*
D16*
%TO.P,J1,2,VC1-*%
%TO.N,/Ethernet_interface/VC1-*%
X-13095000Y-13145000D03*
%TO.P,J1,3,RD-*%
%TO.N,/Ethernet_interface/RDN*%
X-15635000Y-11875000D03*
%TO.P,J1,4,RCT*%
%TO.N,Net-(J1-RCT)*%
X-13095000Y-10605000D03*
%TO.P,J1,5,RD+*%
%TO.N,/Ethernet_interface/RDP*%
X-15635000Y-9335000D03*
%TO.P,J1,6,VC2+*%
%TO.N,/Ethernet_interface/VC2+*%
X-13095000Y-8065000D03*
%TO.P,J1,7,VC1+*%
%TO.N,/Ethernet_interface/VC1+*%
X-15635000Y-6795000D03*
%TO.P,J1,8,TD-*%
%TO.N,/Ethernet_interface/TDN*%
X-13095000Y-5525000D03*
%TO.P,J1,9,TCT*%
%TO.N,Net-(J1-TCT)*%
X-15635000Y-4255000D03*
%TO.P,J1,10,TD+*%
%TO.N,/Ethernet_interface/TDP*%
X-13095000Y-2985000D03*
D17*
%TO.P,J1,11,LEDY_A*%
%TO.N,Net-(J1-LEDY_A)*%
X-24525000Y-15425000D03*
%TO.P,J1,12,LEDY_K*%
%TO.N,/Ethernet_interface/LED_LNK*%
X-26555000Y-15425000D03*
%TO.P,J1,13,LEDG_A*%
%TO.N,Net-(J1-LEDG_A)*%
X-24525000Y-1975000D03*
%TO.P,J1,14,LEDG_K*%
%TO.N,/Ethernet_interface/LED_ACT*%
X-26555000Y-1975000D03*
D18*
%TO.P,J1,SH,SHIELD*%
%TO.N,GND*%
X-18935000Y-16575000D03*
X-18935000Y-825000D03*
%TD*%
D19*
%TO.P,SW1,1,1*%
%TO.N,GND*%
X-27175000Y7550000D03*
%TO.P,SW1,2,2*%
%TO.N,Net-(R18-Pad1)*%
X-27175000Y12050000D03*
D20*
%TO.P,SW1,G,Chassis*%
%TO.N,GND*%
X-24675000Y6300000D03*
X-24675000Y13300000D03*
%TD*%
D21*
%TO.P,J2,1,Pin_1*%
%TO.N,Net-(J2-Pin_1)*%
X17055000Y-11880000D03*
D22*
%TO.P,J2,2,Pin_2*%
%TO.N,Net-(J2-Pin_2)*%
X17055000Y-9720000D03*
%TO.P,J2,3,Pin_3*%
%TO.N,Net-(J2-Pin_3)*%
X17055000Y-7560000D03*
%TO.P,J2,4,Pin_4*%
%TO.N,Net-(J2-Pin_4)*%
X17055000Y-5400000D03*
%TO.P,J2,5,Pin_5*%
%TO.N,Net-(J2-Pin_5)*%
X17055000Y-3240000D03*
%TO.P,J2,6,Pin_6*%
%TO.N,Net-(J2-Pin_6)*%
X17055000Y-1080000D03*
%TO.P,J2,7,Pin_7*%
%TO.N,Net-(J2-Pin_7)*%
X17055000Y1080000D03*
%TO.P,J2,8,Pin_8*%
%TO.N,Net-(J2-Pin_8)*%
X17055000Y3240000D03*
%TO.P,J2,9,Pin_9*%
%TO.N,Net-(J2-Pin_9)*%
X17055000Y5400000D03*
%TO.P,J2,10,Pin_10*%
%TO.N,Net-(J2-Pin_10)*%
X17055000Y7560000D03*
%TO.P,J2,11,Pin_11*%
%TO.N,Net-(J2-Pin_11)*%
X17055000Y9720000D03*
%TO.P,J2,12,Pin_12*%
%TO.N,GND*%
X17055000Y11880000D03*
%TO.P,J2,13,Pin_13*%
%TO.N,Net-(J2-Pin_13)*%
X21345000Y-11880000D03*
%TO.P,J2,14,Pin_14*%
%TO.N,Net-(J2-Pin_14)*%
X21345000Y-9720000D03*
%TO.P,J2,15,Pin_15*%
%TO.N,Net-(J2-Pin_15)*%
X21345000Y-7560000D03*
%TO.P,J2,16,Pin_16*%
%TO.N,Net-(J2-Pin_16)*%
X21345000Y-5400000D03*
%TO.P,J2,17,Pin_17*%
%TO.N,/GPIB/REN_nProt*%
X21345000Y-3240000D03*
%TO.P,J2,18,Pin_18*%
%TO.N,GND*%
X21345000Y-1080000D03*
%TO.P,J2,19,Pin_19*%
X21345000Y1080000D03*
%TO.P,J2,20,Pin_20*%
X21345000Y3240000D03*
%TO.P,J2,21,Pin_21*%
X21345000Y5400000D03*
%TO.P,J2,22,Pin_22*%
X21345000Y7560000D03*
%TO.P,J2,23,Pin_23*%
X21345000Y9720000D03*
%TO.P,J2,24,Pin_24*%
X21345000Y11880000D03*
D23*
%TO.P,J2,G,Chassis*%
X19200000Y-23400000D03*
X19200000Y23400000D03*
%TD*%
D24*
%TO.P,FID1,*%
%TO.N,*%
X-28675000Y21850000D03*
%TD*%
D25*
%TO.P,U11,1,ILIM*%
%TO.N,Net-(U11-ILIM)*%
X-22225000Y-25087500D03*
%TO.P,U11,2,CLASS*%
%TO.N,Net-(U11-CLASS)*%
X-22875000Y-25087500D03*
%TO.P,U11,3,DET*%
%TO.N,Net-(U11-DET)*%
X-23525000Y-25087500D03*
%TO.P,U11,4,VSS*%
%TO.N,/POE_5v/POE-*%
X-24175000Y-25087500D03*
%TO.P,U11,5,RTN*%
%TO.N,/POE_5v/RTN*%
X-24175000Y-19362500D03*
%TO.P,U11,6,PG*%
%TO.N,/POE_5v/PG*%
X-23525000Y-19362500D03*
%TO.P,U11,7,NC*%
%TO.N,unconnected-(U11-NC-Pad7)*%
X-22875000Y-19362500D03*
%TO.P,U11,8,VDD*%
%TO.N,/POE_5v/POE+*%
X-22225000Y-19362500D03*
%TD*%
D24*
%TO.P,FID3,*%
%TO.N,*%
X-26825000Y-25300000D03*
%TD*%
D26*
%TO.P,C47,1*%
%TO.N,/POE_5v/RTN*%
X-15800000Y-25375000D03*
%TO.P,C47,2*%
%TO.N,Net-(C47-Pad2)*%
X-13900000Y-25375000D03*
%TD*%
D27*
%TO.P,C46,1*%
%TO.N,VCC*%
X1250000Y-20975000D03*
%TO.P,C46,2*%
%TO.N,Earth*%
X1250000Y-23925000D03*
%TD*%
D28*
%TO.P,R9,1*%
%TO.N,Net-(R8-Pad1)*%
X3344856Y-19390000D03*
%TO.P,R9,2*%
%TO.N,Net-(U1-FB)*%
X3344856Y-20410000D03*
%TD*%
D29*
%TO.P,R47,1*%
%TO.N,Net-(C48-Pad2)*%
X-12400000Y-19650000D03*
%TO.P,R47,2*%
%TO.N,GND*%
X-12400000Y-21300000D03*
%TD*%
D24*
%TO.P,FID7,*%
%TO.N,*%
X26300000Y24475000D03*
%TD*%
D30*
%TO.P,C51,1*%
%TO.N,VCC*%
X-7500000Y-21325000D03*
%TO.P,C51,2*%
%TO.N,GND*%
X-9400000Y-21325000D03*
%TD*%
D31*
%TO.P,R48,1*%
%TO.N,Net-(C49-Pad2)*%
X-10900000Y-25250000D03*
%TO.P,R48,2*%
%TO.N,GND*%
X-10900000Y-23600000D03*
%TD*%
D24*
%TO.P,FID5,*%
%TO.N,*%
X24875000Y-22475000D03*
%TD*%
D32*
%TO.P,R44,1*%
%TO.N,Net-(U11-ILIM)*%
X-20950000Y-25110000D03*
%TO.P,R44,2*%
%TO.N,/POE_5v/POE-*%
X-20950000Y-24090000D03*
%TD*%
D26*
%TO.P,C48,1*%
%TO.N,/POE_5v/POE+*%
X-15800000Y-19375000D03*
%TO.P,C48,2*%
%TO.N,Net-(C48-Pad2)*%
X-13900000Y-19375000D03*
%TD*%
D30*
%TO.P,C50,1*%
%TO.N,VCC*%
X-7500000Y-19325000D03*
%TO.P,C50,2*%
%TO.N,Net-(C50-Pad2)*%
X-9400000Y-19325000D03*
%TD*%
D33*
%TO.P,C55,1*%
%TO.N,VCC*%
X-2425000Y-19400000D03*
%TO.P,C55,2*%
%TO.N,Net-(C55-Pad2)*%
X-875000Y-19400000D03*
%TD*%
D27*
%TO.P,C43,1*%
%TO.N,/POE_5v/POE+*%
X-18200000Y-20550000D03*
%TO.P,C43,2*%
%TO.N,/POE_5v/RTN*%
X-18200000Y-23500000D03*
%TD*%
D34*
%TO.P,C42,1*%
%TO.N,/POE_5v/POE+*%
X-20700000Y-19150000D03*
%TO.P,C42,2*%
%TO.N,/POE_5v/POE-*%
X-20700000Y-20700000D03*
%TD*%
D35*
%TO.P,F1,1*%
%TO.N,Net-(F1-Pad1)*%
X-17187500Y24800000D03*
%TO.P,F1,2*%
%TO.N,Net-(F1-Pad2)*%
X-21462500Y24800000D03*
%TD*%
D36*
%TO.P,R8,1*%
%TO.N,Net-(R8-Pad1)*%
X4800000Y-18887500D03*
%TO.P,R8,2*%
%TO.N,/POE_5v/SW*%
X4800000Y-20712500D03*
%TD*%
D30*
%TO.P,C49,1*%
%TO.N,Earth*%
X-7500000Y-25325000D03*
%TO.P,C49,2*%
%TO.N,Net-(C49-Pad2)*%
X-9400000Y-25325000D03*
%TD*%
D37*
%TO.P,FB2,1*%
%TO.N,Net-(F1-Pad1)*%
X-15662500Y24800000D03*
%TO.P,FB2,2*%
%TO.N,VBUS*%
X-13537500Y24800000D03*
%TD*%
D38*
%TO.P,R50,1*%
%TO.N,Net-(C55-Pad2)*%
X525000Y-19400000D03*
%TO.P,R50,2*%
%TO.N,/POE_5v/SW*%
X2175000Y-19400000D03*
%TD*%
D26*
%TO.P,C54,1*%
%TO.N,/POE_5v/POE+*%
X-15800000Y-21375000D03*
%TO.P,C54,2*%
%TO.N,GND*%
X-13900000Y-21375000D03*
%TD*%
D30*
%TO.P,C52,1*%
%TO.N,Earth*%
X-7500000Y-23325000D03*
%TO.P,C52,2*%
%TO.N,GND*%
X-9400000Y-23325000D03*
%TD*%
D39*
%TO.P,NT1,1,1*%
%TO.N,VCC*%
X-6200000Y-16750000D03*
%TO.P,NT1,2,2*%
%TO.N,/POE_5v/SW*%
X-6200000Y-15750000D03*
%TD*%
D27*
%TO.P,C45,1*%
%TO.N,VCC*%
X-1950000Y-20975000D03*
%TO.P,C45,2*%
%TO.N,Earth*%
X-1950000Y-23925000D03*
%TD*%
D29*
%TO.P,R49,1*%
%TO.N,Net-(C50-Pad2)*%
X-10900000Y-19650000D03*
%TO.P,R49,2*%
%TO.N,GND*%
X-10900000Y-21300000D03*
%TD*%
D31*
%TO.P,R46,1*%
%TO.N,Net-(C47-Pad2)*%
X-12400000Y-25250000D03*
%TO.P,R46,2*%
%TO.N,GND*%
X-12400000Y-23600000D03*
%TD*%
D26*
%TO.P,C53,1*%
%TO.N,/POE_5v/RTN*%
X-15800000Y-23375000D03*
%TO.P,C53,2*%
%TO.N,GND*%
X-13900000Y-23375000D03*
%TD*%
D40*
%TO.N,VCC*%
X-7750000Y-19700000D03*
%TO.N,GND*%
X21091994Y-26900000D03*
X-1750000Y-3400000D03*
X6600000Y20400000D03*
X8200000Y-16500000D03*
X5791994Y-26900000D03*
X28400000Y9241994D03*
X-30500000Y16741994D03*
X28400000Y14341994D03*
X-30500000Y21200000D03*
X28400000Y6050000D03*
X-7550000Y27000000D03*
X950000Y-1350000D03*
X-2900000Y12300000D03*
X-24829003Y-26900000D03*
X-22450000Y16925000D03*
X1650000Y-1350000D03*
X28400000Y-25204003D03*
X-10700000Y6975000D03*
X-30500000Y11641994D03*
X28400000Y-10529003D03*
X-6525000Y17825000D03*
X19850000Y27000000D03*
X14150000Y4625000D03*
X-25400000Y27000000D03*
X28400000Y-23925000D03*
X-23500000Y27000000D03*
X-16479003Y27000000D03*
X-30500000Y22470997D03*
X21720997Y-26900000D03*
X-3729003Y27000000D03*
X-16700000Y16875000D03*
X666994Y-26900000D03*
X1250000Y-50000D03*
X-30500000Y26300000D03*
X28108006Y-26900000D03*
X-11379003Y27000000D03*
X-15270997Y-26900000D03*
X-30500000Y-7479003D03*
X-11300000Y-10900000D03*
X-23487735Y24386125D03*
X22400000Y27000000D03*
X-1425000Y25725000D03*
X4550000Y27000000D03*
X7700000Y-26900000D03*
X-30500000Y-23483006D03*
X-30500000Y-4300000D03*
X-9250000Y-21650000D03*
X10891994Y-26900000D03*
X-30500000Y14191994D03*
X10975000Y-3350000D03*
X-7050000Y15025000D03*
X19820997Y-26900000D03*
X28400000Y14970997D03*
X-19725000Y22075000D03*
X-21700000Y13500000D03*
X1950000Y650000D03*
X3216994Y-26900000D03*
X-30500000Y12920997D03*
X-9533006Y-26900000D03*
X-30500000Y19920997D03*
X-18475000Y22475000D03*
X26870997Y27000000D03*
X-28600000Y27000000D03*
X28400000Y-329003D03*
X-30500000Y-19654003D03*
X-30500000Y21841994D03*
X-30500000Y-11308006D03*
X28400000Y4141994D03*
X3950000Y15100000D03*
X-11200000Y-20750000D03*
X28400000Y-9250000D03*
X9020997Y27000000D03*
X8200000Y-17300000D03*
X-2450000Y13425000D03*
X28400000Y20720997D03*
X-15700000Y5875000D03*
X-10750000Y27000000D03*
X28400000Y16250000D03*
X-30500000Y5900000D03*
X-30500000Y-25412991D03*
X28400000Y7970997D03*
X6200000Y16700000D03*
X-15200000Y27000000D03*
X-25470997Y-26900000D03*
X2000000Y27000000D03*
X-19775000Y4200000D03*
X28400000Y7320997D03*
X10900000Y1450000D03*
X-22474998Y16125000D03*
X-22279003Y-26900000D03*
X-19625000Y9400000D03*
X28400000Y10520997D03*
X2550000Y18600000D03*
X-29300000Y-26900000D03*
X-22525000Y24550000D03*
X-10550000Y-20750000D03*
X12850000Y27000000D03*
X-2375000Y25725000D03*
X-30500000Y-22854003D03*
X5150000Y-26900000D03*
X3920997Y27000000D03*
X28400000Y2870997D03*
X-13300000Y27000000D03*
X-15900000Y-26900000D03*
X13500000Y7730002D03*
X-1820997Y27000000D03*
X25600000Y27000000D03*
X-12400000Y25880000D03*
X-30500000Y-11970997D03*
X20500000Y27000000D03*
X-20625000Y9875000D03*
X28400000Y-2879003D03*
X28400000Y-12454003D03*
X-30500000Y170997D03*
X-2450000Y-3400000D03*
X28400000Y-23295997D03*
X-17725000Y20025000D03*
X100000Y27000000D03*
X-4400000Y11100000D03*
X28400000Y-20745997D03*
X5100000Y24000000D03*
X28400000Y-11825000D03*
X-30500000Y-13891994D03*
X-13000000Y-22400000D03*
X-2525000Y-26900000D03*
X-550000Y27000000D03*
X-15450000Y7325000D03*
X-30500000Y-6208006D03*
X28400000Y16891994D03*
X10229998Y14500000D03*
X-9300000Y-23750000D03*
X-23175000Y16950000D03*
X-26679003Y27000000D03*
X-2450000Y27000000D03*
X-30500000Y-18375000D03*
X-9275000Y-9250000D03*
X28400000Y-9879003D03*
X-30500000Y-21583006D03*
X-12650000Y27000000D03*
X1250000Y650000D03*
X-9725000Y15950000D03*
X-8254003Y-26900000D03*
X-30500000Y-26041994D03*
X-30500000Y13550000D03*
X-26050000Y27000000D03*
X-30500000Y11000000D03*
X-3300000Y8675000D03*
X16670997Y27000000D03*
X-9675000Y17350000D03*
X-30500000Y9720997D03*
X-14570997Y27000000D03*
X-23150000Y16100000D03*
X14750000Y27000000D03*
X-21700000Y12500000D03*
X1950000Y1350000D03*
X28400000Y26450000D03*
X1370997Y27000000D03*
X-30500000Y-10679003D03*
X26208006Y-26900000D03*
X28449695Y-26406613D03*
X-10500000Y3625000D03*
X-11200000Y13525000D03*
X1250000Y1350000D03*
X6330002Y2250000D03*
X12170997Y-26900000D03*
X-24200000Y-26900000D03*
X-14629003Y-26900000D03*
X-8200000Y27000000D03*
X-30500000Y16100000D03*
X7025000Y15900000D03*
X28400000Y-4150000D03*
X-7625000Y-26900000D03*
X21770997Y27000000D03*
X11520997Y-26900000D03*
X-30500000Y7170997D03*
X24279003Y-26900000D03*
X-21650000Y-26900000D03*
X28400000Y320997D03*
X28400000Y-24575000D03*
X6700000Y25300000D03*
X-29870997Y27000000D03*
X19100000Y-7600000D03*
X-6354003Y-26900000D03*
X28400000Y13700000D03*
X-17820997Y-26900000D03*
X-30500000Y-2379003D03*
X17270997Y-26900000D03*
X-12500000Y8900000D03*
X-4433006Y-26900000D03*
X-30500000Y27000000D03*
X6700000Y21500000D03*
X28400000Y12420997D03*
X9575000Y5150000D03*
X-30500000Y-17100000D03*
X-30500000Y-16450000D03*
X17300000Y27000000D03*
X5200000Y27000000D03*
X-18000000Y20600000D03*
X-22925000Y24075000D03*
X-16550000Y-26900000D03*
X28400000Y25170997D03*
X-2225000Y9350000D03*
X-19029003Y27000000D03*
X-30500000Y10370997D03*
X-10625000Y17425000D03*
X28400000Y-19475000D03*
X10250000Y-26900000D03*
X-6920997Y27000000D03*
X4150000Y3219996D03*
X-18525000Y8875000D03*
X7369998Y13550000D03*
X-15850000Y27000000D03*
X8000000Y-9525000D03*
X-30500000Y8450000D03*
X28400000Y-20104003D03*
X-4600000Y21140000D03*
X18579003Y27000000D03*
X-3154003Y-26900000D03*
X-28650000Y-26900000D03*
X3279003Y27000000D03*
X-30500000Y25020997D03*
X-30500000Y-479003D03*
X-30500000Y-19004003D03*
X19100000Y-9725000D03*
X-16900000Y14875000D03*
X-6700000Y19975000D03*
X16029003Y27000000D03*
X-13400000Y25880000D03*
X-12750000Y-20750000D03*
X-21579003Y27000000D03*
X-19670997Y27000000D03*
X8625000Y10100000D03*
X28400000Y-18195997D03*
X-20675000Y22200000D03*
X-20370997Y-26900000D03*
X-30500000Y-24770997D03*
X25000Y-26900000D03*
X-21071095Y13511067D03*
X-9450000Y18250000D03*
X28400000Y-3508006D03*
X-30500000Y-14520997D03*
X9620997Y-26900000D03*
X-30500000Y-20304003D03*
X-23250000Y3800000D03*
X-22625000Y22225000D03*
X1945997Y-26900000D03*
X-30500000Y800000D03*
X-20950000Y27000000D03*
X-30500000Y-4929003D03*
X12200000Y27000000D03*
X19100000Y-5275000D03*
X-19700000Y18950000D03*
X-18450000Y-26900000D03*
X-2200000Y8000000D03*
X9250000Y-10050000D03*
X28400000Y8600000D03*
X-12050000Y-20750000D03*
X-24770997Y27000000D03*
X-3986845Y13388155D03*
X28400000Y21991994D03*
X-19729003Y-26900000D03*
X14720997Y-26900000D03*
X28400000Y13070997D03*
X28400000Y5420997D03*
X950000Y-2050000D03*
X6700000Y22800000D03*
X8600000Y5725000D03*
X11425000Y2950000D03*
X-9550000Y2375000D03*
X15350000Y-26900000D03*
X-3325000Y9350000D03*
X28400000Y21350000D03*
X28400000Y-18825000D03*
X-30500000Y-20933006D03*
X-14800000Y12800000D03*
X-30500000Y25670997D03*
X-8675000Y12500000D03*
X10929003Y27000000D03*
X-9470997Y27000000D03*
X-10175000Y-26900000D03*
X19220997Y27000000D03*
X4495997Y-26900000D03*
X-4710000Y20000000D03*
X24950000Y27000000D03*
X28400000Y-5429003D03*
X-30500000Y-3029003D03*
X-30500000Y9091994D03*
X-6300000Y13300000D03*
X28400000Y6691994D03*
X-7575000Y20075000D03*
X-18500000Y9900000D03*
X-24129003Y27000000D03*
X-30500000Y-15800000D03*
X28400000Y-7979003D03*
X-14000000Y-26900000D03*
X8650000Y-6800000D03*
X-13325000Y3625000D03*
X-10804003Y-26900000D03*
X-20300000Y7925000D03*
X28400000Y-25845997D03*
X-30500000Y15470997D03*
X28400000Y-2229003D03*
X-2200000Y8675000D03*
X1950000Y-50000D03*
X28400000Y-22025000D03*
X-604003Y-26900000D03*
X-30500000Y-5579003D03*
X14070997Y-26900000D03*
X-23425000Y25500000D03*
X-30500000Y-1108006D03*
X-22220997Y27000000D03*
X8379003Y27000000D03*
X-13400000Y10300000D03*
X-29929003Y-26900000D03*
X-10100000Y27000000D03*
X-26100000Y-26900000D03*
X-13300000Y8200000D03*
X-17120997Y27000000D03*
X15400000Y27000000D03*
X24320997Y27000000D03*
X28400000Y18170997D03*
X-6975000Y5750000D03*
X-30500000Y-1750000D03*
X5725000Y9150000D03*
X-22525000Y25500000D03*
X-2775000Y9475000D03*
X-30500000Y20570997D03*
X-17179003Y-26900000D03*
X19170997Y-26900000D03*
X-9250000Y-20900000D03*
X21129003Y27000000D03*
X28400000Y22620997D03*
X18541994Y-26900000D03*
X-17750000Y27000000D03*
X28400000Y-1600000D03*
X-29229003Y27000000D03*
X28400000Y-6700000D03*
X-13600000Y-22400000D03*
X-12100000Y7700000D03*
X-11650000Y-12750000D03*
X-30500000Y-13250000D03*
X13441994Y-26900000D03*
X-8675000Y9000000D03*
X-3804003Y-26900000D03*
X-30500000Y18020997D03*
X5100000Y25300000D03*
X-21071487Y14125190D03*
X28400000Y3500000D03*
X15991994Y-26900000D03*
X11570997Y27000000D03*
X-30500000Y-10029003D03*
X-30500000Y-15170997D03*
X-26750000Y-26900000D03*
X28400000Y-15004003D03*
X28400000Y-6058006D03*
X-30500000Y18650000D03*
X7100000Y-3350000D03*
X14120997Y27000000D03*
X8700000Y19300000D03*
X-12575000Y16700000D03*
X-1179003Y27000000D03*
X-30500000Y12270997D03*
X17900000Y-26900000D03*
X-3100000Y27000000D03*
X-30500000Y-12620997D03*
X-14800000Y11800000D03*
X-1883006Y-26900000D03*
X-5881031Y10465631D03*
X-5325000Y12950000D03*
X28400000Y-16275000D03*
X-5650000Y27000000D03*
X7100000Y27000000D03*
X-22920997Y-26900000D03*
X-12083006Y-26900000D03*
X12450000Y4475000D03*
X28400000Y11150000D03*
X7650001Y14925001D03*
X1650000Y-2050000D03*
X-11000000Y9100000D03*
X28400000Y1591994D03*
X17950000Y27000000D03*
X7450000Y125000D03*
X-9550000Y3225000D03*
X1880000Y20150000D03*
X28400000Y2220997D03*
X28400000Y-15645997D03*
X28400000Y9870997D03*
X28400000Y4770997D03*
X8250000Y-675000D03*
X-5704003Y-26900000D03*
X-1875000Y16075000D03*
X-28020997Y-26900000D03*
X-850000Y9150000D03*
X-30500000Y-22212009D03*
X-2450000Y-4700000D03*
X28400000Y-17554003D03*
X7070997Y-26900000D03*
X-15049997Y18379999D03*
X-2450000Y-4050000D03*
X-2775000Y8875000D03*
X26837009Y-26900000D03*
X-9300000Y-23000000D03*
X-30500000Y23750000D03*
X28400000Y19441994D03*
X-11200000Y-23850000D03*
X28400000Y18800000D03*
X25558006Y-26900000D03*
X-3300000Y8000000D03*
X-16050000Y7275000D03*
X28400000Y-22654003D03*
X19150000Y-11925000D03*
X7750000Y27000000D03*
X28400000Y23270997D03*
X16620997Y-26900000D03*
X27500000Y27000000D03*
X28400000Y-8608006D03*
X5100000Y21500000D03*
X-30500000Y17370997D03*
X8970997Y-26900000D03*
X28400000Y-13725000D03*
X28400000Y17520997D03*
X-6300000Y7650000D03*
X26229003Y27000000D03*
X-30500000Y-6850000D03*
X-27950000Y27000000D03*
X3845997Y-26900000D03*
X-19100000Y-26900000D03*
X28400000Y-7329003D03*
X-6279003Y27000000D03*
X-21700000Y14150000D03*
X-23050000Y24900000D03*
X12800000Y-26900000D03*
X28400000Y-14375000D03*
X8010000Y-6115161D03*
X-30500000Y-17729003D03*
X-13600000Y21850000D03*
X-30500000Y19291994D03*
X23629003Y-26900000D03*
X10300000Y27000000D03*
X28400000Y-958006D03*
X-23550000Y-26900000D03*
X-13750000Y18250000D03*
X-14400000Y9100000D03*
X-12020997Y27000000D03*
X-13700000Y6975000D03*
X13479003Y27000000D03*
X-5000000Y27000000D03*
X-8829003Y27000000D03*
X-27379003Y-26900000D03*
X-9375000Y11775000D03*
X28400000Y-21375000D03*
X-8904003Y-26900000D03*
X28400000Y20070997D03*
X-10200000Y8200000D03*
X28400000Y25820997D03*
X5825000Y6275000D03*
X-13350000Y-26900000D03*
X2650000Y27000000D03*
X-21000000Y-26900000D03*
X-5075000Y-26900000D03*
X28400000Y-13095997D03*
X-4370997Y27000000D03*
X-11454003Y-26900000D03*
X-12750000Y-23850000D03*
X-12725000Y-26900000D03*
X-30500000Y6541994D03*
X-12100000Y-23850000D03*
X6420997Y-26900000D03*
X-30500000Y-9400000D03*
X28400000Y-11175000D03*
X9650000Y27000000D03*
X-11975000Y12475000D03*
X-6500000Y22700000D03*
X28400000Y-4779003D03*
X-14200000Y-22400000D03*
X23050000Y27000000D03*
X28400000Y15620997D03*
X-30500000Y-8758006D03*
X-8575000Y3600000D03*
X-18400000Y27000000D03*
X28400000Y24541994D03*
X-30500000Y14820997D03*
X-20625000Y18775000D03*
X6329998Y1300000D03*
X-16625000Y7350000D03*
X-6983006Y-26900000D03*
X23679003Y27000000D03*
X6470997Y27000000D03*
X-30500000Y-8129003D03*
X-10550000Y-23850000D03*
X7647525Y-494258D03*
X-19750000Y2275000D03*
X1295997Y-26900000D03*
X-7400000Y25775000D03*
X2575000Y-26900000D03*
X7125000Y-4450000D03*
X28400000Y23900000D03*
X-22850000Y27000000D03*
X-27320997Y27000000D03*
X-30500000Y-24141994D03*
X-30500000Y24391994D03*
X23000000Y-26900000D03*
X6075000Y-5550000D03*
X27479003Y-26900000D03*
X-30500000Y-3658006D03*
X675000Y11525000D03*
X-7895000Y23325002D03*
X28400000Y-16925000D03*
X8341994Y-26900000D03*
X10625000Y5225000D03*
X-11500000Y10000000D03*
X28150000Y27000000D03*
X10375000Y9725000D03*
X-30500000Y23120997D03*
X20450000Y-26900000D03*
X-18100000Y1750000D03*
X-13929003Y27000000D03*
X6700000Y24000000D03*
X-30500000Y7820997D03*
X-1254003Y-26900000D03*
X-30500000Y-26700000D03*
X-2750000Y8250000D03*
X-22375000Y19375000D03*
X28400000Y950000D03*
X22370997Y-26900000D03*
X-20300000Y27000000D03*
X28400000Y11791994D03*
X24929003Y-26900000D03*
X-1750000Y-4450000D03*
X8075000Y-6700000D03*
X5100000Y22800000D03*
X729003Y27000000D03*
X5829003Y27000000D03*
%TO.N,VCC*%
X-2575000Y-21325000D03*
X-3050000Y-19950000D03*
X-6850000Y-20900000D03*
X-3500000Y-19400000D03*
X-4500000Y-23500000D03*
X-3050000Y-18950000D03*
X-7550000Y-20900000D03*
X-6200000Y-20900000D03*
X2494856Y-20762498D03*
X-7750000Y-19000000D03*
%TO.N,/POE_5v/SW*%
X4800000Y-20450000D03*
D41*
X1000000Y-14200000D03*
X-400635Y-14856313D03*
D40*
X2450000Y-19800000D03*
X1900000Y-19450000D03*
D41*
X2599996Y-17999999D03*
D40*
X2450000Y-19050000D03*
%TO.N,Net-(U1-FB)*%
X3300000Y-20400000D03*
%TO.N,Net-(J3-D+-PadA6)*%
X-22850000Y20025000D03*
X-22875000Y21450000D03*
%TO.N,Net-(F1-Pad2)*%
X-22750000Y17975000D03*
X-22100000Y23425000D03*
X-21462500Y23450000D03*
X-22062500Y17837500D03*
%TO.N,VBUS*%
X-12800000Y24820000D03*
X-13800000Y24820000D03*
X-12300000Y24820000D03*
X-13300000Y24800000D03*
%TO.N,+5V*%
X-19975000Y15400000D03*
X-5779345Y21079345D03*
X-3375000Y5125000D03*
X-19975000Y12975000D03*
X-19350000Y16350000D03*
X-1425000Y24750000D03*
X-19975000Y12350000D03*
X-2225000Y4525000D03*
X-2800000Y4525000D03*
X-900000Y16050000D03*
X-5550000Y17825000D03*
X-2375000Y24750000D03*
X-2800000Y5700000D03*
X-2450000Y20250000D03*
X8375000Y13575000D03*
X1750000Y15425000D03*
X-2225000Y5125000D03*
X-3375000Y4525000D03*
X-625000Y24750000D03*
X4150000Y2260002D03*
X-8550000Y20075000D03*
X-2225000Y5700000D03*
X-3375000Y5700000D03*
X1825000Y16625000D03*
X-20000000Y17200000D03*
X5370000Y2250002D03*
X-2800000Y5125000D03*
X13500000Y6770000D03*
X10250000Y13575000D03*
X920000Y20150000D03*
X3650000Y16450000D03*
X5370000Y1300002D03*
%TO.N,/MCU/MCU_RX*%
X-7550000Y21075000D03*
X5541847Y15743261D03*
%TO.N,/MCU/MCU_TX*%
X-8585000Y22050000D03*
X6375000Y14550000D03*
%TO.N,Net-(J4-Pin_1)*%
X8300000Y18800000D03*
%TO.N,Net-(J4-Pin_5)*%
X5100000Y20100000D03*
%TO.N,/MCU/UPDI*%
X8625000Y10925000D03*
%TO.N,/MCU/LED_R*%
X-21025000Y2250000D03*
X5200000Y7000000D03*
%TO.N,/MCU/LED_B*%
X10075000Y10675000D03*
X-21150000Y4400000D03*
%TO.N,/MCU/LED_G*%
X-21175000Y3425000D03*
X9475000Y9300000D03*
%TO.N,/Ethernet_interface/XI*%
X-11750000Y15800000D03*
X-11950000Y18200000D03*
%TO.N,/Ethernet_interface/nINT*%
X4850002Y9150000D03*
X625000Y14500000D03*
%TO.N,/Ethernet_interface/MISO*%
X2025000Y11275000D03*
X-2875000Y15775000D03*
%TO.N,/Ethernet_interface/nRST*%
X-7595000Y19050000D03*
X3300000Y19200000D03*
X-21650000Y11137500D03*
%TO.N,/Ethernet_interface/nCS*%
X-1500000Y11550000D03*
X-12200000Y13250000D03*
X-7100000Y16500000D03*
%TO.N,/Ethernet_interface/SCK*%
X-350000Y10650000D03*
X-12925000Y12750000D03*
%TO.N,+3.3V*%
X-21275000Y7925000D03*
X-23289768Y1761544D03*
X-16875000Y13900000D03*
X-25400000Y1550000D03*
X-18218277Y8043277D03*
X-16300000Y13900000D03*
X-17500000Y13900000D03*
X-17525000Y8900000D03*
X-17550000Y9925000D03*
X-10700000Y15950000D03*
%TO.N,/Ethernet_interface/nINT_3*%
X-15550000Y16050000D03*
X-7500000Y14200000D03*
%TO.N,/Ethernet_interface/MOSI*%
X-3375000Y10925000D03*
X-9450000Y10975000D03*
%TO.N,+3.3VA*%
X-17650000Y5875000D03*
X-6453133Y9228781D03*
X-14300000Y4300000D03*
X-17150000Y4600000D03*
X-8600000Y4575000D03*
X-10500000Y4575000D03*
X-5350000Y12025000D03*
X-4400000Y12025000D03*
X-7950000Y5750000D03*
X-16675000Y5900000D03*
X-18075000Y4600000D03*
X-13350000Y4575000D03*
X-18150000Y6325000D03*
X-6300000Y8625000D03*
%TO.N,/Ethernet_interface/VC1+*%
X-29575000Y-21075000D03*
%TO.N,/Ethernet_interface/VC2+*%
X-28750000Y-24250000D03*
%TO.N,/Ethernet_interface/VC2-*%
X-28000000Y-22900000D03*
%TO.N,/Ethernet_interface/VC1-*%
X-28118000Y-19450000D03*
%TO.N,/Ethernet_interface/LED_LNK*%
X-9225000Y16675000D03*
%TO.N,/Ethernet_interface/LED_ACT*%
X-10175000Y13325000D03*
%TO.N,/GPIB/DIO2*%
X8600000Y2125000D03*
X8675000Y-3625000D03*
%TO.N,/GPIB/DIO7*%
X12725000Y3700000D03*
X8350000Y-8625002D03*
%TO.N,/GPIB/DIO8*%
X8800000Y-9300000D03*
X13650000Y5475000D03*
%TO.N,/GPIB/DIO1*%
X7875000Y-3650000D03*
X8600000Y4925000D03*
%TO.N,/GPIB/DIO6*%
X6800000Y-6050000D03*
X11850000Y3925000D03*
%TO.N,/GPIB/DIO5*%
X10975000Y2250000D03*
X6850000Y-5250000D03*
%TO.N,/GPIB/DIO3*%
X9375000Y1925000D03*
X9450000Y-3175000D03*
%TO.N,/GPIB/DIO4*%
X10225000Y-4300000D03*
X10075000Y2350000D03*
%TO.N,Net-(J1-RCT)*%
X-10499998Y1740000D03*
X-13349998Y1740000D03*
%TO.N,Earth*%
X1950000Y-22000000D03*
X2800000Y-23550000D03*
X3208006Y-22000000D03*
X6650000Y-17325000D03*
X-6200000Y-23400000D03*
X4483606Y-24934014D03*
X6250000Y-20975000D03*
X-150000Y-25200000D03*
X-7750000Y-24850000D03*
X-7750000Y-25520000D03*
X2150000Y-23550000D03*
X3800000Y-22000000D03*
X-6800000Y-23400000D03*
X5700000Y-24650000D03*
X3429003Y-23550000D03*
X2579003Y-22000000D03*
X300000Y-23550000D03*
X4250000Y-24350000D03*
X6900000Y-18700000D03*
X-1058006Y-23500000D03*
X-2279003Y-23500000D03*
X-7450000Y-23400000D03*
X-1650000Y-23500000D03*
X-2908006Y-23500000D03*
X50000Y-26075000D03*
X929003Y-23550000D03*
X1558006Y-23550000D03*
X6650000Y-16500000D03*
%TO.N,/POE_5v/POE+*%
X-26850000Y-20650000D03*
X-19250000Y-20900000D03*
X-24400000Y-20750000D03*
X-26850000Y-21300000D03*
X-15450000Y-21050000D03*
X-23750000Y-20750000D03*
X-20900000Y-18950000D03*
X-20750000Y-19500000D03*
X-17150000Y-20900000D03*
X-15450000Y-21650000D03*
X-18250000Y-20900000D03*
%TO.N,/POE_5v/POE-*%
X-23700000Y-22850000D03*
X-24600000Y-22800000D03*
X-20950000Y-24200000D03*
X-24150000Y-23250000D03*
X-20647472Y-21763000D03*
%TO.N,/POE_5v/PG*%
X-16725000Y-26075000D03*
%TO.N,Net-(U11-DET)*%
X-23525000Y-25175000D03*
%TO.N,Net-(U11-CLASS)*%
X-22850000Y-25650000D03*
%TO.N,/POE_5v/RTN*%
X-26000000Y-19150000D03*
X-19200000Y-23150000D03*
X-22700000Y-21900000D03*
X-15500000Y-23800000D03*
X-26600000Y-19150000D03*
X-23350000Y-21900000D03*
X-18250000Y-23150000D03*
X-17150000Y-23150000D03*
X-15500000Y-23150000D03*
%TO.N,/POE_5v/CM*%
X-9275000Y-8250000D03*
D41*
X3120000Y-6680000D03*
D40*
X8850000Y-14975000D03*
%TO.N,/POE_5v/SEC*%
X-7525000Y-6750000D03*
D41*
X-879643Y-8900000D03*
X-250000Y-9000000D03*
X-1475000Y-9000000D03*
D40*
X4549997Y-6800003D03*
X-6800000Y-6750000D03*
X3862077Y-6212924D03*
%TO.N,/Ethernet_interface/RDP*%
X-10950000Y-12350000D03*
X-11775000Y-11550000D03*
%TD*%
D42*
%TO.N,Earth*%
X-7500000Y-25325000D02*
X-7500000Y-23325000D01*
X-6200000Y-23400000D02*
X-7450000Y-23400000D01*
D43*
%TO.N,VCC*%
X-3000000Y-19950000D02*
X-1975000Y-20975000D01*
X-1975000Y-20975000D02*
X-1950000Y-20975000D01*
X-3500000Y-19400000D02*
X-3500000Y-19450000D01*
X-3500000Y-19450000D02*
X-3050000Y-19900000D01*
X-3550000Y-19400000D02*
X-3500000Y-19400000D01*
X-3050000Y-19900000D02*
X-3050000Y-19950000D01*
X-3050000Y-19950000D02*
X-3000000Y-19950000D01*
X-6200000Y-16750000D02*
X-3550000Y-19400000D01*
%TO.N,/POE_5v/SW*%
X-4971218Y-15400736D02*
X-4179392Y-16192562D01*
X-6177191Y-11196649D02*
X-6200000Y-11219458D01*
X-4375305Y-14995935D02*
X-4375305Y-11197363D01*
X3224695Y-10996649D02*
X3224695Y-12846649D01*
X-6200000Y-11219458D02*
X-6200000Y-15714953D01*
X-3478582Y-15024709D02*
X-3733159Y-14770132D01*
X-4975305Y-11021649D02*
X-4975305Y-15371649D01*
X3824695Y-12846649D02*
X3824695Y-11196649D01*
X2624695Y-12696649D02*
X2624695Y-11046649D01*
X-4708326Y-16629670D02*
X-5541347Y-15796649D01*
X-5575305Y-15729670D02*
X-5575305Y-11296649D01*
X-3786568Y-15585385D02*
X-4364041Y-15007912D01*
X4424695Y-11196649D02*
X4424695Y-12846649D01*
X-3775305Y-14696649D02*
X-3775305Y-11246649D01*
X-3478582Y-15024709D02*
G75*
G03*
X2624696Y-12696649I2607626J2328061D01*
G01*
X2025126Y-11197080D02*
G75*
G03*
X-3775736Y-11197080I-2900431J0D01*
G01*
X-3815211Y-15574122D02*
G75*
G03*
X3226044Y-12846649I2992376J2727473D01*
G01*
X4424695Y-11197592D02*
G75*
G03*
X-6177191Y-11197592I-5300943J0D01*
G01*
X-4708326Y-16629670D02*
G75*
G03*
X4424695Y-12846649I3783021J3783022D01*
G01*
X3824695Y-11196649D02*
G75*
G03*
X-5577431Y-11196649I-4701063J0D01*
G01*
X2626123Y-11198077D02*
G75*
G03*
X-4376733Y-11198077I-3501428J0D01*
G01*
X3224695Y-11196649D02*
G75*
G03*
X-4990533Y-11196649I-4107614J0D01*
G01*
X-4198707Y-16170051D02*
G75*
G03*
X3824695Y-12846649I3323402J3323402D01*
G01*
%TO.N,Net-(R8-Pad1)*%
X4800000Y-18887500D02*
X3847356Y-18887500D01*
X3847356Y-18887500D02*
X3344856Y-19390000D01*
D44*
%TO.N,Net-(J3-D+-PadA6)*%
X-22850000Y20025000D02*
X-22850000Y21425000D01*
X-22850000Y21425000D02*
X-22875000Y21450000D01*
D43*
%TO.N,Net-(F1-Pad2)*%
X-22062500Y17837500D02*
X-22112500Y17837500D01*
X-22275000Y18000000D02*
X-22725000Y18000000D01*
X-21462500Y18437500D02*
X-22062500Y17837500D01*
X-21462500Y18552500D02*
X-21462500Y18437500D01*
X-22112500Y17837500D02*
X-22275000Y18000000D01*
X-21462500Y18552500D02*
X-21462500Y24800000D01*
X-22725000Y18000000D02*
X-22750000Y17975000D01*
D45*
%TO.N,VBUS*%
X-13300000Y24800000D02*
X-12400000Y24800000D01*
X-13537500Y24800000D02*
X-13300000Y24800000D01*
D44*
%TO.N,/MCU/MCU_RX*%
X-7550000Y21075000D02*
X-6625000Y21075000D01*
X-6000000Y21700000D02*
X-2500000Y21700000D01*
X-7550000Y21075000D02*
X-7505000Y21030000D01*
X-2500000Y21700000D02*
X1900000Y17300000D01*
X4100000Y17300000D02*
X5541847Y15858153D01*
X5541847Y15858153D02*
X5541847Y15743261D01*
X-6625000Y21075000D02*
X-6000000Y21700000D01*
X1900000Y17300000D02*
X4100000Y17300000D01*
%TO.N,/MCU/MCU_TX*%
X4400000Y17600000D02*
X6375000Y15625000D01*
X-2350000Y22050000D02*
X2100000Y17600000D01*
X6375000Y15625000D02*
X6375000Y14550000D01*
X2100000Y17600000D02*
X4400000Y17600000D01*
X-8585000Y22050000D02*
X-2350000Y22050000D01*
D46*
%TO.N,/MCU/UPDI*%
X13282106Y21420000D02*
X13700000Y21002106D01*
X12575000Y21420000D02*
X13282106Y21420000D01*
X13700000Y16000000D02*
X8625000Y10925000D01*
X13700000Y21002106D02*
X13700000Y16000000D01*
D44*
%TO.N,/Ethernet_interface/XI*%
X-11750000Y15800000D02*
X-11750000Y18000000D01*
X-11750000Y18000000D02*
X-11950000Y18200000D01*
%TO.N,/Ethernet_interface/nINT*%
X625000Y14500000D02*
X4850002Y10274998D01*
X4850002Y10274998D02*
X4850002Y9150000D01*
%TO.N,/Ethernet_interface/MISO*%
X-2700000Y15775000D02*
X1800000Y11275000D01*
X1800000Y11275000D02*
X2025000Y11275000D01*
X-2875000Y15775000D02*
X-2700000Y15775000D01*
%TO.N,/Ethernet_interface/nRST*%
X-21650000Y11137500D02*
X-20367256Y11137500D01*
X-18850000Y16675000D02*
X-16075000Y19450000D01*
X-18850000Y12654756D02*
X-18850000Y16675000D01*
X3300000Y19200000D02*
X7815000Y19200000D01*
X-14375000Y19050000D02*
X-7595000Y19050000D01*
X7815000Y19200000D02*
X11305000Y22690000D01*
X-16075000Y19450000D02*
X-14775000Y19450000D01*
X-20367256Y11137500D02*
X-18850000Y12654756D01*
X-14775000Y19450000D02*
X-14375000Y19050000D01*
%TO.N,/Ethernet_interface/nCS*%
X-6470000Y15870000D02*
X-7100000Y16500000D01*
X-3075000Y11550000D02*
X-6100000Y14575000D01*
X-6575000Y16500000D02*
X-7100000Y16500000D01*
X-6100000Y16025000D02*
X-6575000Y16500000D01*
X-7775000Y13100000D02*
X-6470000Y14405000D01*
X-9520000Y13100000D02*
X-7775000Y13100000D01*
X-6470000Y14405000D02*
X-6470000Y15870000D01*
X-11165244Y12670000D02*
X-9950000Y12670000D01*
X-9950000Y12670000D02*
X-9520000Y13100000D01*
X-12200000Y13250000D02*
X-11745244Y13250000D01*
X-11745244Y13250000D02*
X-11165244Y12670000D01*
X-6100000Y14575000D02*
X-6100000Y16025000D01*
X-1500000Y11550000D02*
X-3075000Y11550000D01*
%TO.N,/Ethernet_interface/SCK*%
X-12555000Y12380000D02*
X-12555000Y12234756D01*
X-12925000Y12750000D02*
X-12555000Y12380000D01*
X-12070000Y11895000D02*
X-10060631Y9885631D01*
X-4300735Y10150001D02*
X-849999Y10150001D01*
X-849999Y10150001D02*
X-350000Y10650000D01*
X-4565105Y9885631D02*
X-4300735Y10150001D01*
X-12555000Y12234756D02*
X-12215244Y11895000D01*
X-12215244Y11895000D02*
X-12070000Y11895000D01*
X-10060631Y9885631D02*
X-4565105Y9885631D01*
%TO.N,/Ethernet_interface/nINT_3*%
X-7500000Y14200000D02*
X-8520000Y15220000D01*
X-8520000Y15220000D02*
X-14720000Y15220000D01*
X-14720000Y15220000D02*
X-15550000Y16050000D01*
%TO.N,/Ethernet_interface/MOSI*%
X-6191906Y10975000D02*
X-6121275Y11045631D01*
X-5165875Y11045631D02*
X-4620244Y10500000D01*
X-3800000Y10500000D02*
X-3375000Y10925000D01*
X-6121275Y11045631D02*
X-5165875Y11045631D01*
X-9450000Y10975000D02*
X-6191906Y10975000D01*
X-4620244Y10500000D02*
X-3800000Y10500000D01*
D47*
%TO.N,/Ethernet_interface/VC1+*%
X-29800004Y-20849996D02*
X-29800004Y-13750004D01*
X-22845000Y-6795000D02*
X-15475000Y-6795000D01*
X-29575000Y-21075000D02*
X-29800004Y-20849996D01*
X-29800004Y-13750004D02*
X-22845000Y-6795000D01*
%TO.N,/Ethernet_interface/VC2+*%
X-29125000Y-20367268D02*
X-28750000Y-20742268D01*
X-23084243Y-8065000D02*
X-29125000Y-14105757D01*
X-12935000Y-8065000D02*
X-23084243Y-8065000D01*
X-29125000Y-14105757D02*
X-29125000Y-20367268D01*
X-28750000Y-20742268D02*
X-28750000Y-24250000D01*
%TO.N,/Ethernet_interface/VC2-*%
X-25461000Y-12361000D02*
X-18689000Y-12361000D01*
X-18689000Y-12361000D02*
X-16635000Y-14415000D01*
X-16635000Y-14415000D02*
X-15635000Y-14415000D01*
X-27438000Y-19168334D02*
X-27900000Y-18706334D01*
X-27438000Y-19731666D02*
X-27438000Y-19168334D01*
X-28000000Y-22900000D02*
X-28000000Y-20293666D01*
X-28000000Y-20293666D02*
X-27438000Y-19731666D01*
X-27900000Y-18706334D02*
X-27900000Y-14800000D01*
X-27900000Y-14800000D02*
X-25461000Y-12361000D01*
%TO.N,/Ethernet_interface/VC1-*%
X-28525000Y-19025000D02*
X-28525000Y-14428012D01*
X-28296000Y-19272000D02*
X-28296000Y-19254000D01*
X-16805000Y-13145000D02*
X-13095000Y-13145000D01*
X-18347537Y-11602463D02*
X-16805000Y-13145000D01*
X-28525000Y-14428012D02*
X-25699451Y-11602463D01*
X-25699451Y-11602463D02*
X-18347537Y-11602463D01*
X-28296000Y-19254000D02*
X-28525000Y-19025000D01*
X-28118000Y-19450000D02*
X-28296000Y-19272000D01*
D44*
%TO.N,/GPIB/DIO2*%
X8675000Y-3625000D02*
X8675000Y-2376310D01*
X6795000Y320000D02*
X8600000Y2125000D01*
X6795000Y-496310D02*
X6795000Y320000D01*
X8675000Y-2376310D02*
X6795000Y-496310D01*
%TO.N,/GPIB/DIO7*%
X12725000Y3700000D02*
X12725000Y-4250002D01*
X12725000Y-4250002D02*
X8350000Y-8625002D01*
%TO.N,/GPIB/DIO8*%
X13325000Y-4775000D02*
X8800000Y-9300000D01*
X13650000Y5475000D02*
X13325000Y5150000D01*
X13325000Y5150000D02*
X13325000Y-4775000D01*
%TO.N,/GPIB/DIO1*%
X7875000Y-2075000D02*
X7875000Y-3650000D01*
X8020000Y4345000D02*
X8020000Y2170000D01*
X8020000Y2170000D02*
X6495000Y645000D01*
X6495000Y-695000D02*
X7875000Y-2075000D01*
X6495000Y645000D02*
X6495000Y-695000D01*
X8600000Y4925000D02*
X8020000Y4345000D01*
%TO.N,/GPIB/DIO6*%
X11850000Y3925000D02*
X12050000Y3725000D01*
X12050000Y3725000D02*
X12050000Y-3797254D01*
X6870244Y-6050000D02*
X6800000Y-6050000D01*
X12050000Y-3797254D02*
X10312093Y-5535161D01*
X7385083Y-5535161D02*
X6870244Y-6050000D01*
X10312093Y-5535161D02*
X7385083Y-5535161D01*
%TO.N,/GPIB/DIO5*%
X11675000Y1975000D02*
X11675000Y-3670244D01*
X6939839Y-5160161D02*
X6850000Y-5250000D01*
X11675000Y-3670244D02*
X10185083Y-5160161D01*
X10185083Y-5160161D02*
X6939839Y-5160161D01*
X10975000Y2250000D02*
X11400000Y2250000D01*
X11400000Y2250000D02*
X11675000Y1975000D01*
%TO.N,/GPIB/DIO3*%
X9375000Y1925000D02*
X9400000Y1900000D01*
X9400000Y1900000D02*
X9400000Y-3125000D01*
X9400000Y-3125000D02*
X9450000Y-3175000D01*
%TO.N,/GPIB/DIO4*%
X10225000Y-4300000D02*
X10300000Y-4225000D01*
X10300000Y2125000D02*
X10075000Y2350000D01*
X10300000Y-4225000D02*
X10300000Y2125000D01*
D43*
%TO.N,Net-(J1-RCT)*%
X-10499998Y1740000D02*
X-13349998Y1740000D01*
D42*
%TO.N,/POE_5v/POE+*%
X-26750000Y-20750000D02*
X-26850000Y-20650000D01*
D43*
X-22225000Y-19362500D02*
X-20912500Y-19362500D01*
D42*
X-15850000Y-19425000D02*
X-15800000Y-19375000D01*
D43*
X-20912500Y-19362500D02*
X-20700000Y-19150000D01*
D42*
X-16800000Y-20550000D02*
X-15850000Y-20550000D01*
X-15850000Y-20550000D02*
X-15850000Y-19425000D01*
X-23750000Y-20750000D02*
X-26750000Y-20750000D01*
%TO.N,/POE_5v/POE-*%
X-20700000Y-20700000D02*
X-20700000Y-21710472D01*
X-20700000Y-21710472D02*
X-20647472Y-21763000D01*
D48*
%TO.N,/POE_5v/PG*%
X-16575000Y-22875000D02*
X-16575000Y-25925000D01*
D44*
X-16600000Y-22700000D02*
X-16600000Y-22850000D01*
D48*
X-16575000Y-25925000D02*
X-16725000Y-26075000D01*
X-16600000Y-22850000D02*
X-16575000Y-22875000D01*
D44*
X-23525000Y-20088288D02*
X-21163290Y-22449998D01*
X-23525000Y-19362500D02*
X-23525000Y-20088288D01*
X-16850002Y-22449998D02*
X-16600000Y-22700000D01*
X-21163290Y-22449998D02*
X-16850002Y-22449998D01*
D47*
%TO.N,Net-(U11-ILIM)*%
X-22202500Y-25110000D02*
X-22225000Y-25087500D01*
X-20950000Y-25110000D02*
X-22202500Y-25110000D01*
D42*
%TO.N,/POE_5v/RTN*%
X-15800000Y-25375000D02*
X-15800000Y-24100000D01*
X-15800000Y-23500000D02*
X-15800000Y-23375000D01*
X-18480000Y-23220000D02*
X-21380000Y-23220000D01*
X-21380000Y-23220000D02*
X-22700000Y-21900000D01*
X-18200000Y-23500000D02*
X-18480000Y-23220000D01*
X-22700000Y-21900000D02*
X-23350000Y-21900000D01*
D43*
%TO.N,Net-(C47-Pad2)*%
X-12400000Y-25250000D02*
X-13775000Y-25250000D01*
X-13775000Y-25250000D02*
X-13900000Y-25375000D01*
%TO.N,Net-(C48-Pad2)*%
X-13625000Y-19650000D02*
X-13900000Y-19375000D01*
X-12400000Y-19650000D02*
X-13625000Y-19650000D01*
%TO.N,Net-(C49-Pad2)*%
X-10900000Y-25250000D02*
X-9475000Y-25250000D01*
X-9475000Y-25250000D02*
X-9400000Y-25325000D01*
%TO.N,Net-(C50-Pad2)*%
X-9725000Y-19650000D02*
X-9400000Y-19325000D01*
X-10900000Y-19650000D02*
X-9725000Y-19650000D01*
D42*
%TO.N,Net-(C55-Pad2)*%
X-875000Y-19400000D02*
X525000Y-19400000D01*
D49*
%TO.N,/Ethernet_interface/RDP*%
X-11750000Y-11550000D02*
X-10950000Y-12350000D01*
X-11775000Y-11550000D02*
X-11750000Y-11550000D01*
D45*
%TO.N,Net-(F1-Pad1)*%
X-15662500Y24800000D02*
X-17187500Y24800000D01*
D43*
%TO.N,/POE_5v/SW*%
X1000000Y-14200000D02*
X1050000Y-14250000D01*
X1774695Y-13646649D02*
X2024695Y-13146649D01*
X2024695Y-13146649D02*
X2024695Y-11197080D01*
X1050000Y-14250000D02*
X1171344Y-14250000D01*
X1171344Y-14250000D02*
X1774695Y-13646649D01*
%TD*%
%TA.AperFunction,Conductor*%
%TO.N,GND*%
G36*
X-8921674Y-20571674D02*
G01*
X-8900000Y-20624000D01*
X-8900000Y-23976000D01*
X-8921674Y-24028326D01*
X-8974000Y-24050000D01*
X-14369348Y-24050000D01*
X-14421674Y-24028326D01*
X-14428326Y-24021674D01*
X-14450000Y-23969348D01*
X-14450000Y-20624000D01*
X-14428326Y-20571674D01*
X-14376000Y-20550000D01*
X-8974000Y-20550000D01*
X-8921674Y-20571674D01*
G37*
%TD.AperFunction*%
%TD*%
%TA.AperFunction,Conductor*%
%TO.N,/POE_5v/POE-*%
G36*
X-23528326Y-22621674D02*
G01*
X-23471674Y-22678326D01*
X-23450000Y-22730652D01*
X-23450000Y-23169348D01*
X-23471674Y-23221674D01*
X-23950000Y-23700000D01*
X-23950000Y-25776000D01*
X-23971674Y-25828326D01*
X-24024000Y-25850000D01*
X-24319348Y-25850000D01*
X-24371674Y-25828326D01*
X-24828326Y-25371674D01*
X-24850000Y-25319348D01*
X-24850000Y-22674000D01*
X-24828326Y-22621674D01*
X-24776000Y-22600000D01*
X-23580652Y-22600000D01*
X-23528326Y-22621674D01*
G37*
%TD.AperFunction*%
%TD*%
%TA.AperFunction,Conductor*%
%TO.N,/POE_5v/RTN*%
G36*
X-23921674Y-18671674D02*
G01*
X-23900000Y-18724000D01*
X-23900000Y-20125500D01*
X-23921674Y-20177826D01*
X-23974000Y-20199500D01*
X-26509459Y-20199500D01*
X-26546461Y-20189585D01*
X-26571039Y-20175394D01*
X-26586363Y-20163635D01*
X-26915826Y-19834173D01*
X-26937500Y-19781847D01*
X-26937500Y-19102439D01*
X-26971606Y-18975152D01*
X-26971608Y-18975148D01*
X-26990087Y-18943141D01*
X-27000000Y-18906142D01*
X-27000000Y-18780652D01*
X-26978326Y-18728326D01*
X-26921674Y-18671674D01*
X-26869348Y-18650000D01*
X-23974000Y-18650000D01*
X-23921674Y-18671674D01*
G37*
%TD.AperFunction*%
%TD*%
%TA.AperFunction,Conductor*%
%TO.N,GND*%
G36*
X28752521Y27331177D02*
G01*
X28774195Y27278851D01*
X28774195Y-27172149D01*
X28752521Y-27224475D01*
X28700195Y-27246149D01*
X14768564Y-27246149D01*
X14716238Y-27224475D01*
X14694564Y-27172149D01*
X14694564Y-27171983D01*
X14697155Y-26016673D01*
X14703356Y-23251182D01*
X16550000Y-23251182D01*
X16550000Y-23548817D01*
X16583326Y-23844596D01*
X16649553Y-24134761D01*
X16649558Y-24134777D01*
X16747860Y-24415708D01*
X16877000Y-24683870D01*
X17035358Y-24935895D01*
X17157451Y-25088994D01*
X17977340Y-24269105D01*
X18055864Y-24377184D01*
X18222816Y-24544136D01*
X18330893Y-24622658D01*
X17511004Y-25442547D01*
X17511004Y-25442548D01*
X17664104Y-25564641D01*
X17916129Y-25722999D01*
X18184291Y-25852139D01*
X18465222Y-25950441D01*
X18465238Y-25950446D01*
X18755403Y-26016673D01*
X19051183Y-26050000D01*
X19348817Y-26050000D01*
X19644596Y-26016673D01*
X19934761Y-25950446D01*
X19934777Y-25950441D01*
X20215708Y-25852139D01*
X20483870Y-25722999D01*
X20735901Y-25564637D01*
X20888994Y-25442549D01*
X20888994Y-25442547D01*
X20069106Y-24622659D01*
X20177184Y-24544136D01*
X20344136Y-24377184D01*
X20422659Y-24269106D01*
X21242547Y-25088994D01*
X21242549Y-25088994D01*
X21364637Y-24935901D01*
X21522999Y-24683870D01*
X21652139Y-24415708D01*
X21750441Y-24134777D01*
X21750446Y-24134761D01*
X21816673Y-23844596D01*
X21850000Y-23548817D01*
X21850000Y-23251182D01*
X21816673Y-22955403D01*
X21750446Y-22665238D01*
X21750441Y-22665222D01*
X21665295Y-22421888D01*
X21665294Y-22421887D01*
X21658014Y-22401083D01*
X24124500Y-22401083D01*
X24124500Y-22548916D01*
X24153340Y-22693907D01*
X24153343Y-22693917D01*
X24209915Y-22830494D01*
X24209916Y-22830495D01*
X24292049Y-22953416D01*
X24396584Y-23057951D01*
X24519505Y-23140084D01*
X24656087Y-23196658D01*
X24801082Y-23225500D01*
X24801084Y-23225500D01*
X24948916Y-23225500D01*
X24948918Y-23225500D01*
X25093913Y-23196658D01*
X25230495Y-23140084D01*
X25353416Y-23057951D01*
X25457951Y-22953416D01*
X25540084Y-22830495D01*
X25596658Y-22693913D01*
X25625500Y-22548918D01*
X25625500Y-22401082D01*
X25596658Y-22256087D01*
X25540084Y-22119505D01*
X25457951Y-21996584D01*
X25353416Y-21892049D01*
X25311594Y-21864104D01*
X25230494Y-21809915D01*
X25093917Y-21753343D01*
X25093907Y-21753340D01*
X24996811Y-21734026D01*
X24948918Y-21724500D01*
X24801082Y-21724500D01*
X24759977Y-21732676D01*
X24656092Y-21753340D01*
X24656082Y-21753343D01*
X24519505Y-21809915D01*
X24396584Y-21892048D01*
X24396583Y-21892050D01*
X24292050Y-21996583D01*
X24292048Y-21996584D01*
X24209915Y-22119505D01*
X24153343Y-22256082D01*
X24153340Y-22256092D01*
X24124500Y-22401083D01*
X21658014Y-22401083D01*
X21652137Y-22384286D01*
X21522999Y-22116129D01*
X21364641Y-21864104D01*
X21242547Y-21711004D01*
X20422658Y-22530892D01*
X20344136Y-22422816D01*
X20177184Y-22255864D01*
X20069104Y-22177340D01*
X20888994Y-21357451D01*
X20888994Y-21357450D01*
X20735895Y-21235358D01*
X20483870Y-21077000D01*
X20215708Y-20947860D01*
X19934777Y-20849558D01*
X19934761Y-20849553D01*
X19644596Y-20783326D01*
X19348817Y-20750000D01*
X19051183Y-20750000D01*
X18755403Y-20783326D01*
X18465238Y-20849553D01*
X18465222Y-20849558D01*
X18184291Y-20947860D01*
X17916129Y-21077000D01*
X17664104Y-21235358D01*
X17511004Y-21357450D01*
X17511004Y-21357451D01*
X18330893Y-22177340D01*
X18222816Y-22255864D01*
X18055864Y-22422816D01*
X17977340Y-22530893D01*
X17157451Y-21711004D01*
X17157450Y-21711004D01*
X17035358Y-21864104D01*
X16877000Y-22116129D01*
X16747860Y-22384291D01*
X16649558Y-22665222D01*
X16649553Y-22665238D01*
X16583326Y-22955403D01*
X16550000Y-23251182D01*
X14703356Y-23251182D01*
X14730376Y-11200135D01*
X15754500Y-11200135D01*
X15754500Y-12559863D01*
X15757414Y-12584986D01*
X15757415Y-12584991D01*
X15802794Y-12687765D01*
X15882235Y-12767206D01*
X15985009Y-12812585D01*
X16010135Y-12815500D01*
X18099864Y-12815499D01*
X18124991Y-12812585D01*
X18227765Y-12767206D01*
X18307206Y-12687765D01*
X18352585Y-12584991D01*
X18355500Y-12559865D01*
X18355499Y-11787862D01*
X20044500Y-11787862D01*
X20044500Y-11972137D01*
X20080449Y-12152869D01*
X20080451Y-12152875D01*
X20150971Y-12323125D01*
X20253350Y-12476346D01*
X20383654Y-12606650D01*
X20536875Y-12709029D01*
X20707125Y-12779549D01*
X20887861Y-12815500D01*
X20887863Y-12815500D01*
X21802137Y-12815500D01*
X21802139Y-12815500D01*
X21982875Y-12779549D01*
X22153125Y-12709029D01*
X22306346Y-12606650D01*
X22436650Y-12476346D01*
X22539029Y-12323125D01*
X22609549Y-12152875D01*
X22645500Y-11972139D01*
X22645500Y-11787861D01*
X22609549Y-11607125D01*
X22539029Y-11436875D01*
X22436650Y-11283654D01*
X22306346Y-11153350D01*
X22153125Y-11050971D01*
X22153122Y-11050969D01*
X22153121Y-11050969D01*
X21982875Y-10980451D01*
X21982869Y-10980449D01*
X21861837Y-10956374D01*
X21802139Y-10944500D01*
X20887861Y-10944500D01*
X20836624Y-10954691D01*
X20707130Y-10980449D01*
X20707124Y-10980451D01*
X20536878Y-11050969D01*
X20383654Y-11153349D01*
X20383653Y-11153351D01*
X20253351Y-11283653D01*
X20253349Y-11283654D01*
X20150969Y-11436878D01*
X20080451Y-11607124D01*
X20080449Y-11607130D01*
X20044500Y-11787862D01*
X18355499Y-11787862D01*
X18355499Y-11200136D01*
X18352585Y-11175009D01*
X18307206Y-11072235D01*
X18227765Y-10992794D01*
X18124991Y-10947415D01*
X18124990Y-10947414D01*
X18124988Y-10947414D01*
X18103659Y-10944940D01*
X18099865Y-10944500D01*
X18099864Y-10944500D01*
X16010136Y-10944500D01*
X15985013Y-10947414D01*
X15985007Y-10947415D01*
X15882234Y-10992794D01*
X15802794Y-11072234D01*
X15757414Y-11175011D01*
X15754500Y-11200135D01*
X14730376Y-11200135D01*
X14733901Y-9627862D01*
X15754500Y-9627862D01*
X15754500Y-9812137D01*
X15790449Y-9992869D01*
X15790451Y-9992875D01*
X15860971Y-10163125D01*
X15963350Y-10316346D01*
X16093654Y-10446650D01*
X16246875Y-10549029D01*
X16417125Y-10619549D01*
X16597861Y-10655500D01*
X16597863Y-10655500D01*
X17512137Y-10655500D01*
X17512139Y-10655500D01*
X17692875Y-10619549D01*
X17863125Y-10549029D01*
X18016346Y-10446650D01*
X18146650Y-10316346D01*
X18249029Y-10163125D01*
X18319549Y-9992875D01*
X18355500Y-9812139D01*
X18355500Y-9627862D01*
X20044500Y-9627862D01*
X20044500Y-9812137D01*
X20080449Y-9992869D01*
X20080451Y-9992875D01*
X20150971Y-10163125D01*
X20253350Y-10316346D01*
X20383654Y-10446650D01*
X20536875Y-10549029D01*
X20707125Y-10619549D01*
X20887861Y-10655500D01*
X20887863Y-10655500D01*
X21802137Y-10655500D01*
X21802139Y-10655500D01*
X21982875Y-10619549D01*
X22153125Y-10549029D01*
X22306346Y-10446650D01*
X22436650Y-10316346D01*
X22539029Y-10163125D01*
X22609549Y-9992875D01*
X22645500Y-9812139D01*
X22645500Y-9627861D01*
X22609549Y-9447125D01*
X22539029Y-9276875D01*
X22436650Y-9123654D01*
X22306346Y-8993350D01*
X22153125Y-8890971D01*
X22153122Y-8890969D01*
X22153121Y-8890969D01*
X21982875Y-8820451D01*
X21982869Y-8820449D01*
X21861837Y-8796374D01*
X21802139Y-8784500D01*
X20887861Y-8784500D01*
X20836624Y-8794691D01*
X20707130Y-8820449D01*
X20707124Y-8820451D01*
X20536878Y-8890969D01*
X20383654Y-8993349D01*
X20383653Y-8993351D01*
X20253351Y-9123653D01*
X20253349Y-9123654D01*
X20150969Y-9276878D01*
X20080451Y-9447124D01*
X20080449Y-9447130D01*
X20044500Y-9627862D01*
X18355500Y-9627862D01*
X18355500Y-9627861D01*
X18319549Y-9447125D01*
X18249029Y-9276875D01*
X18146650Y-9123654D01*
X18016346Y-8993350D01*
X17863125Y-8890971D01*
X17863122Y-8890969D01*
X17863121Y-8890969D01*
X17692875Y-8820451D01*
X17692869Y-8820449D01*
X17571837Y-8796374D01*
X17512139Y-8784500D01*
X16597861Y-8784500D01*
X16546624Y-8794691D01*
X16417130Y-8820449D01*
X16417124Y-8820451D01*
X16246878Y-8890969D01*
X16093654Y-8993349D01*
X16093653Y-8993351D01*
X15963351Y-9123653D01*
X15963349Y-9123654D01*
X15860969Y-9276878D01*
X15790451Y-9447124D01*
X15790449Y-9447130D01*
X15754500Y-9627862D01*
X14733901Y-9627862D01*
X14738744Y-7467862D01*
X15754500Y-7467862D01*
X15754500Y-7652137D01*
X15790449Y-7832869D01*
X15790451Y-7832875D01*
X15860971Y-8003125D01*
X15963350Y-8156346D01*
X16093654Y-8286650D01*
X16246875Y-8389029D01*
X16417125Y-8459549D01*
X16597861Y-8495500D01*
X16597863Y-8495500D01*
X17512137Y-8495500D01*
X17512139Y-8495500D01*
X17692875Y-8459549D01*
X17863125Y-8389029D01*
X18016346Y-8286650D01*
X18146650Y-8156346D01*
X18249029Y-8003125D01*
X18319549Y-7832875D01*
X18355500Y-7652139D01*
X18355500Y-7467862D01*
X20044500Y-7467862D01*
X20044500Y-7652137D01*
X20080449Y-7832869D01*
X20080451Y-7832875D01*
X20150971Y-8003125D01*
X20253350Y-8156346D01*
X20383654Y-8286650D01*
X20536875Y-8389029D01*
X20707125Y-8459549D01*
X20887861Y-8495500D01*
X20887863Y-8495500D01*
X21802137Y-8495500D01*
X21802139Y-8495500D01*
X21982875Y-8459549D01*
X22153125Y-8389029D01*
X22306346Y-8286650D01*
X22436650Y-8156346D01*
X22539029Y-8003125D01*
X22609549Y-7832875D01*
X22645500Y-7652139D01*
X22645500Y-7467861D01*
X22609549Y-7287125D01*
X22539029Y-7116875D01*
X22436650Y-6963654D01*
X22306346Y-6833350D01*
X22153125Y-6730971D01*
X22153122Y-6730969D01*
X22153121Y-6730969D01*
X21982875Y-6660451D01*
X21982869Y-6660449D01*
X21861837Y-6636374D01*
X21802139Y-6624500D01*
X20887861Y-6624500D01*
X20836624Y-6634691D01*
X20707130Y-6660449D01*
X20707124Y-6660451D01*
X20536878Y-6730969D01*
X20383654Y-6833349D01*
X20383653Y-6833351D01*
X20253351Y-6963653D01*
X20253349Y-6963654D01*
X20150969Y-7116878D01*
X20080451Y-7287124D01*
X20080449Y-7287130D01*
X20044500Y-7467862D01*
X18355500Y-7467862D01*
X18355500Y-7467861D01*
X18319549Y-7287125D01*
X18249029Y-7116875D01*
X18146650Y-6963654D01*
X18016346Y-6833350D01*
X17863125Y-6730971D01*
X17863122Y-6730969D01*
X17863121Y-6730969D01*
X17692875Y-6660451D01*
X17692869Y-6660449D01*
X17571837Y-6636374D01*
X17512139Y-6624500D01*
X16597861Y-6624500D01*
X16546624Y-6634691D01*
X16417130Y-6660449D01*
X16417124Y-6660451D01*
X16246878Y-6730969D01*
X16093654Y-6833349D01*
X16093653Y-6833351D01*
X15963351Y-6963653D01*
X15963349Y-6963654D01*
X15860969Y-7116878D01*
X15790451Y-7287124D01*
X15790449Y-7287130D01*
X15754500Y-7467862D01*
X14738744Y-7467862D01*
X14743587Y-5307862D01*
X15754500Y-5307862D01*
X15754500Y-5492137D01*
X15790449Y-5672869D01*
X15790451Y-5672875D01*
X15860971Y-5843125D01*
X15963350Y-5996346D01*
X16093654Y-6126650D01*
X16246875Y-6229029D01*
X16417125Y-6299549D01*
X16597861Y-6335500D01*
X16597863Y-6335500D01*
X17512137Y-6335500D01*
X17512139Y-6335500D01*
X17692875Y-6299549D01*
X17863125Y-6229029D01*
X18016346Y-6126650D01*
X18146650Y-5996346D01*
X18249029Y-5843125D01*
X18319549Y-5672875D01*
X18355500Y-5492139D01*
X18355500Y-5307862D01*
X20044500Y-5307862D01*
X20044500Y-5492137D01*
X20080449Y-5672869D01*
X20080451Y-5672875D01*
X20150971Y-5843125D01*
X20253350Y-5996346D01*
X20383654Y-6126650D01*
X20536875Y-6229029D01*
X20707125Y-6299549D01*
X20887861Y-6335500D01*
X20887863Y-6335500D01*
X21802137Y-6335500D01*
X21802139Y-6335500D01*
X21982875Y-6299549D01*
X22153125Y-6229029D01*
X22306346Y-6126650D01*
X22436650Y-5996346D01*
X22539029Y-5843125D01*
X22609549Y-5672875D01*
X22645500Y-5492139D01*
X22645500Y-5307861D01*
X22609549Y-5127125D01*
X22539029Y-4956875D01*
X22436650Y-4803654D01*
X22306346Y-4673350D01*
X22153125Y-4570971D01*
X22153122Y-4570969D01*
X22153121Y-4570969D01*
X21982875Y-4500451D01*
X21982869Y-4500449D01*
X21861837Y-4476374D01*
X21802139Y-4464500D01*
X20887861Y-4464500D01*
X20836624Y-4474691D01*
X20707130Y-4500449D01*
X20707124Y-4500451D01*
X20536878Y-4570969D01*
X20383654Y-4673349D01*
X20383653Y-4673351D01*
X20253351Y-4803653D01*
X20253349Y-4803654D01*
X20150969Y-4956878D01*
X20080451Y-5127124D01*
X20080449Y-5127130D01*
X20044500Y-5307862D01*
X18355500Y-5307862D01*
X18355500Y-5307861D01*
X18319549Y-5127125D01*
X18249029Y-4956875D01*
X18146650Y-4803654D01*
X18016346Y-4673350D01*
X17863125Y-4570971D01*
X17863122Y-4570969D01*
X17863121Y-4570969D01*
X17692875Y-4500451D01*
X17692869Y-4500449D01*
X17571837Y-4476374D01*
X17512139Y-4464500D01*
X16597861Y-4464500D01*
X16546624Y-4474691D01*
X16417130Y-4500449D01*
X16417124Y-4500451D01*
X16246878Y-4570969D01*
X16093654Y-4673349D01*
X16093653Y-4673351D01*
X15963351Y-4803653D01*
X15963349Y-4803654D01*
X15860969Y-4956878D01*
X15790451Y-5127124D01*
X15790449Y-5127130D01*
X15754500Y-5307862D01*
X14743587Y-5307862D01*
X14748430Y-3147862D01*
X15754500Y-3147862D01*
X15754500Y-3332137D01*
X15790449Y-3512869D01*
X15790451Y-3512875D01*
X15860971Y-3683125D01*
X15963350Y-3836346D01*
X16093654Y-3966650D01*
X16246875Y-4069029D01*
X16417125Y-4139549D01*
X16597861Y-4175500D01*
X16597863Y-4175500D01*
X17512137Y-4175500D01*
X17512139Y-4175500D01*
X17692875Y-4139549D01*
X17863125Y-4069029D01*
X18016346Y-3966650D01*
X18146650Y-3836346D01*
X18249029Y-3683125D01*
X18319549Y-3512875D01*
X18355500Y-3332139D01*
X18355500Y-3147862D01*
X20044500Y-3147862D01*
X20044500Y-3332137D01*
X20080449Y-3512869D01*
X20080451Y-3512875D01*
X20150971Y-3683125D01*
X20253350Y-3836346D01*
X20383654Y-3966650D01*
X20536875Y-4069029D01*
X20707125Y-4139549D01*
X20887861Y-4175500D01*
X20887863Y-4175500D01*
X21802137Y-4175500D01*
X21802139Y-4175500D01*
X21982875Y-4139549D01*
X22153125Y-4069029D01*
X22306346Y-3966650D01*
X22436650Y-3836346D01*
X22539029Y-3683125D01*
X22609549Y-3512875D01*
X22645500Y-3332139D01*
X22645500Y-3147861D01*
X22609549Y-2967125D01*
X22539029Y-2796875D01*
X22436650Y-2643654D01*
X22306346Y-2513350D01*
X22153125Y-2410971D01*
X22153122Y-2410969D01*
X22153121Y-2410969D01*
X21982875Y-2340451D01*
X21982869Y-2340449D01*
X21861837Y-2316374D01*
X21802139Y-2304500D01*
X20887861Y-2304500D01*
X20836624Y-2314691D01*
X20707130Y-2340449D01*
X20707124Y-2340451D01*
X20536878Y-2410969D01*
X20383654Y-2513349D01*
X20383653Y-2513351D01*
X20253351Y-2643653D01*
X20253349Y-2643654D01*
X20150969Y-2796878D01*
X20080451Y-2967124D01*
X20080449Y-2967130D01*
X20044500Y-3147862D01*
X18355500Y-3147862D01*
X18355500Y-3147861D01*
X18319549Y-2967125D01*
X18249029Y-2796875D01*
X18146650Y-2643654D01*
X18016346Y-2513350D01*
X17863125Y-2410971D01*
X17863122Y-2410969D01*
X17863121Y-2410969D01*
X17692875Y-2340451D01*
X17692869Y-2340449D01*
X17571837Y-2316374D01*
X17512139Y-2304500D01*
X16597861Y-2304500D01*
X16546624Y-2314691D01*
X16417130Y-2340449D01*
X16417124Y-2340451D01*
X16246878Y-2410969D01*
X16093654Y-2513349D01*
X16093653Y-2513351D01*
X15963351Y-2643653D01*
X15963349Y-2643654D01*
X15860969Y-2796878D01*
X15790451Y-2967124D01*
X15790449Y-2967130D01*
X15754500Y-3147862D01*
X14748430Y-3147862D01*
X14753273Y-987862D01*
X15754500Y-987862D01*
X15754500Y-1172137D01*
X15790449Y-1352869D01*
X15790451Y-1352875D01*
X15860971Y-1523125D01*
X15963350Y-1676346D01*
X16093654Y-1806650D01*
X16246875Y-1909029D01*
X16417125Y-1979549D01*
X16597861Y-2015500D01*
X16597863Y-2015500D01*
X17512137Y-2015500D01*
X17512139Y-2015500D01*
X17692875Y-1979549D01*
X17863125Y-1909029D01*
X18016346Y-1806650D01*
X18146650Y-1676346D01*
X18249029Y-1523125D01*
X18319549Y-1352875D01*
X18355500Y-1172139D01*
X18355500Y-987861D01*
X18324099Y-829999D01*
X20233874Y-829999D01*
X20233875Y-830000D01*
X20911988Y-830000D01*
X20879075Y-887007D01*
X20845000Y-1014174D01*
X20845000Y-1145826D01*
X20879075Y-1272993D01*
X20911988Y-1330000D01*
X20233875Y-1330000D01*
X20284341Y-1451836D01*
X20370248Y-1580404D01*
X20479595Y-1689751D01*
X20608165Y-1775659D01*
X20751019Y-1834831D01*
X20751030Y-1834834D01*
X20902685Y-1865000D01*
X21095000Y-1865000D01*
X21095000Y-1513012D01*
X21152007Y-1545925D01*
X21279174Y-1580000D01*
X21410826Y-1580000D01*
X21537993Y-1545925D01*
X21595000Y-1513012D01*
X21595000Y-1865000D01*
X21787315Y-1865000D01*
X21938969Y-1834834D01*
X21938980Y-1834831D01*
X22081834Y-1775659D01*
X22210404Y-1689751D01*
X22319751Y-1580404D01*
X22405658Y-1451836D01*
X22456125Y-1330000D01*
X21778012Y-1330000D01*
X21810925Y-1272993D01*
X21845000Y-1145826D01*
X21845000Y-1014174D01*
X21810925Y-887007D01*
X21778012Y-830000D01*
X22456125Y-830000D01*
X22456125Y-829999D01*
X22405658Y-708163D01*
X22319751Y-579595D01*
X22210404Y-470248D01*
X22081834Y-384340D01*
X21938980Y-325168D01*
X21938969Y-325165D01*
X21787315Y-295000D01*
X21595000Y-295000D01*
X21595000Y-646988D01*
X21537993Y-614075D01*
X21410826Y-580000D01*
X21279174Y-580000D01*
X21152007Y-614075D01*
X21095000Y-646988D01*
X21095000Y-295000D01*
X20902685Y-295000D01*
X20751030Y-325165D01*
X20751019Y-325168D01*
X20608165Y-384340D01*
X20479595Y-470248D01*
X20370248Y-579595D01*
X20284341Y-708163D01*
X20233874Y-829999D01*
X18324099Y-829999D01*
X18319549Y-807125D01*
X18249029Y-636875D01*
X18146650Y-483654D01*
X18016346Y-353350D01*
X17863125Y-250971D01*
X17863122Y-250969D01*
X17863121Y-250969D01*
X17692875Y-180451D01*
X17692869Y-180449D01*
X17571837Y-156374D01*
X17512139Y-144500D01*
X16597861Y-144500D01*
X16546624Y-154691D01*
X16417130Y-180449D01*
X16417124Y-180451D01*
X16246878Y-250969D01*
X16093654Y-353349D01*
X16093653Y-353351D01*
X15963351Y-483653D01*
X15963349Y-483654D01*
X15860969Y-636878D01*
X15790451Y-807124D01*
X15790449Y-807130D01*
X15754500Y-987862D01*
X14753273Y-987862D01*
X14758116Y1172137D01*
X15754500Y1172137D01*
X15754500Y987862D01*
X15790449Y807130D01*
X15790451Y807124D01*
X15860969Y636878D01*
X15963349Y483654D01*
X15963351Y483653D01*
X16093653Y353351D01*
X16093654Y353349D01*
X16246878Y250969D01*
X16417124Y180451D01*
X16417130Y180449D01*
X16546624Y154691D01*
X16597861Y144500D01*
X16597863Y144500D01*
X17512137Y144500D01*
X17512139Y144500D01*
X17571837Y156374D01*
X17692869Y180449D01*
X17692875Y180451D01*
X17863121Y250969D01*
X17863122Y250969D01*
X17863125Y250971D01*
X18016346Y353350D01*
X18146650Y483654D01*
X18249029Y636875D01*
X18319549Y807125D01*
X18355500Y987861D01*
X18355500Y1172139D01*
X18324099Y1330000D01*
X20233874Y1330000D01*
X20911988Y1330000D01*
X20879075Y1272993D01*
X20845000Y1145826D01*
X20845000Y1014174D01*
X20879075Y887007D01*
X20911988Y830000D01*
X20233875Y830000D01*
X20284341Y708163D01*
X20370248Y579595D01*
X20479595Y470248D01*
X20608165Y384340D01*
X20751019Y325168D01*
X20751030Y325165D01*
X20902685Y295000D01*
X21095000Y295000D01*
X21095000Y646988D01*
X21152007Y614075D01*
X21279174Y580000D01*
X21410826Y580000D01*
X21537993Y614075D01*
X21595000Y646988D01*
X21595000Y295000D01*
X21787315Y295000D01*
X21938969Y325165D01*
X21938980Y325168D01*
X22081834Y384340D01*
X22210404Y470248D01*
X22319751Y579595D01*
X22405658Y708163D01*
X22456125Y830000D01*
X21778012Y830000D01*
X21810925Y887007D01*
X21845000Y1014174D01*
X21845000Y1145826D01*
X21810925Y1272993D01*
X21778012Y1330000D01*
X22456125Y1330000D01*
X22405658Y1451836D01*
X22319751Y1580404D01*
X22210404Y1689751D01*
X22081834Y1775659D01*
X21938980Y1834831D01*
X21938969Y1834834D01*
X21787315Y1865000D01*
X21595000Y1865000D01*
X21595000Y1513012D01*
X21537993Y1545925D01*
X21410826Y1580000D01*
X21279174Y1580000D01*
X21152007Y1545925D01*
X21095000Y1513012D01*
X21095000Y1865000D01*
X20902685Y1865000D01*
X20751030Y1834834D01*
X20751019Y1834831D01*
X20608165Y1775659D01*
X20479595Y1689751D01*
X20370248Y1580404D01*
X20284341Y1451836D01*
X20233874Y1330000D01*
X18324099Y1330000D01*
X18319549Y1352875D01*
X18249029Y1523125D01*
X18146650Y1676346D01*
X18016346Y1806650D01*
X17863125Y1909029D01*
X17692875Y1979549D01*
X17512139Y2015500D01*
X16597861Y2015500D01*
X16417125Y1979549D01*
X16246875Y1909029D01*
X16093654Y1806650D01*
X15963350Y1676346D01*
X15860971Y1523125D01*
X15860969Y1523122D01*
X15860969Y1523121D01*
X15790451Y1352875D01*
X15790449Y1352869D01*
X15754500Y1172137D01*
X14758116Y1172137D01*
X14762959Y3332137D01*
X15754500Y3332137D01*
X15754500Y3147862D01*
X15790449Y2967130D01*
X15790451Y2967124D01*
X15860969Y2796878D01*
X15963349Y2643654D01*
X15963351Y2643653D01*
X16093653Y2513351D01*
X16093654Y2513349D01*
X16246878Y2410969D01*
X16417124Y2340451D01*
X16417130Y2340449D01*
X16546624Y2314691D01*
X16597861Y2304500D01*
X16597863Y2304500D01*
X17512137Y2304500D01*
X17512139Y2304500D01*
X17571837Y2316374D01*
X17692869Y2340449D01*
X17692875Y2340451D01*
X17863121Y2410969D01*
X17863122Y2410969D01*
X17863125Y2410971D01*
X18016346Y2513350D01*
X18146650Y2643654D01*
X18249029Y2796875D01*
X18319549Y2967125D01*
X18355500Y3147861D01*
X18355500Y3332139D01*
X18324099Y3490000D01*
X20233874Y3490000D01*
X20911988Y3490000D01*
X20879075Y3432993D01*
X20845000Y3305826D01*
X20845000Y3174174D01*
X20879075Y3047007D01*
X20911988Y2990000D01*
X20233875Y2990000D01*
X20284341Y2868163D01*
X20370248Y2739595D01*
X20479595Y2630248D01*
X20608165Y2544340D01*
X20751019Y2485168D01*
X20751030Y2485165D01*
X20902685Y2455000D01*
X21095000Y2455000D01*
X21095000Y2806988D01*
X21152007Y2774075D01*
X21279174Y2740000D01*
X21410826Y2740000D01*
X21537993Y2774075D01*
X21595000Y2806988D01*
X21595000Y2455000D01*
X21787315Y2455000D01*
X21938969Y2485165D01*
X21938980Y2485168D01*
X22081834Y2544340D01*
X22210404Y2630248D01*
X22319751Y2739595D01*
X22405658Y2868163D01*
X22456125Y2990000D01*
X21778012Y2990000D01*
X21810925Y3047007D01*
X21845000Y3174174D01*
X21845000Y3305826D01*
X21810925Y3432993D01*
X21778012Y3490000D01*
X22456125Y3490000D01*
X22405658Y3611836D01*
X22319751Y3740404D01*
X22210404Y3849751D01*
X22081834Y3935659D01*
X21938980Y3994831D01*
X21938969Y3994834D01*
X21787315Y4025000D01*
X21595000Y4025000D01*
X21595000Y3673012D01*
X21537993Y3705925D01*
X21410826Y3740000D01*
X21279174Y3740000D01*
X21152007Y3705925D01*
X21095000Y3673012D01*
X21095000Y4025000D01*
X20902685Y4025000D01*
X20751030Y3994834D01*
X20751019Y3994831D01*
X20608165Y3935659D01*
X20479595Y3849751D01*
X20370248Y3740404D01*
X20284341Y3611836D01*
X20233874Y3490000D01*
X18324099Y3490000D01*
X18319549Y3512875D01*
X18249029Y3683125D01*
X18146650Y3836346D01*
X18016346Y3966650D01*
X17863125Y4069029D01*
X17692875Y4139549D01*
X17512139Y4175500D01*
X16597861Y4175500D01*
X16417125Y4139549D01*
X16246875Y4069029D01*
X16093654Y3966650D01*
X15963350Y3836346D01*
X15860971Y3683125D01*
X15860969Y3683122D01*
X15860969Y3683121D01*
X15790451Y3512875D01*
X15790449Y3512869D01*
X15754500Y3332137D01*
X14762959Y3332137D01*
X14767802Y5492137D01*
X15754500Y5492137D01*
X15754500Y5307862D01*
X15790449Y5127130D01*
X15790451Y5127124D01*
X15860969Y4956878D01*
X15963349Y4803654D01*
X15963351Y4803653D01*
X16093653Y4673351D01*
X16093654Y4673349D01*
X16246878Y4570969D01*
X16417124Y4500451D01*
X16417130Y4500449D01*
X16546624Y4474691D01*
X16597861Y4464500D01*
X16597863Y4464500D01*
X17512137Y4464500D01*
X17512139Y4464500D01*
X17571837Y4476374D01*
X17692869Y4500449D01*
X17692875Y4500451D01*
X17863121Y4570969D01*
X17863122Y4570969D01*
X17863125Y4570971D01*
X18016346Y4673350D01*
X18146650Y4803654D01*
X18249029Y4956875D01*
X18319549Y5127125D01*
X18355500Y5307861D01*
X18355500Y5492139D01*
X18324099Y5650000D01*
X20233874Y5650000D01*
X20911988Y5650000D01*
X20879075Y5592993D01*
X20845000Y5465826D01*
X20845000Y5334174D01*
X20879075Y5207007D01*
X20911988Y5150000D01*
X20233875Y5150000D01*
X20284341Y5028163D01*
X20370248Y4899595D01*
X20479595Y4790248D01*
X20608165Y4704340D01*
X20751019Y4645168D01*
X20751030Y4645165D01*
X20902685Y4615000D01*
X21095000Y4615000D01*
X21095000Y4966988D01*
X21152007Y4934075D01*
X21279174Y4900000D01*
X21410826Y4900000D01*
X21537993Y4934075D01*
X21595000Y4966988D01*
X21595000Y4615000D01*
X21787315Y4615000D01*
X21938969Y4645165D01*
X21938980Y4645168D01*
X22081834Y4704340D01*
X22210404Y4790248D01*
X22319751Y4899595D01*
X22405658Y5028163D01*
X22456125Y5150000D01*
X21778012Y5150000D01*
X21810925Y5207007D01*
X21845000Y5334174D01*
X21845000Y5465826D01*
X21810925Y5592993D01*
X21778012Y5650000D01*
X22456125Y5650000D01*
X22405658Y5771836D01*
X22319751Y5900404D01*
X22210404Y6009751D01*
X22081834Y6095659D01*
X21938980Y6154831D01*
X21938969Y6154834D01*
X21787315Y6185000D01*
X21595000Y6185000D01*
X21595000Y5833012D01*
X21537993Y5865925D01*
X21410826Y5900000D01*
X21279174Y5900000D01*
X21152007Y5865925D01*
X21095000Y5833012D01*
X21095000Y6185000D01*
X20902685Y6185000D01*
X20751030Y6154834D01*
X20751019Y6154831D01*
X20608165Y6095659D01*
X20479595Y6009751D01*
X20370248Y5900404D01*
X20284341Y5771836D01*
X20233874Y5650000D01*
X18324099Y5650000D01*
X18319549Y5672875D01*
X18249029Y5843125D01*
X18146650Y5996346D01*
X18016346Y6126650D01*
X17863125Y6229029D01*
X17692875Y6299549D01*
X17512139Y6335500D01*
X16597861Y6335500D01*
X16417125Y6299549D01*
X16246875Y6229029D01*
X16093654Y6126650D01*
X15963350Y5996346D01*
X15860971Y5843125D01*
X15860969Y5843122D01*
X15860969Y5843121D01*
X15790451Y5672875D01*
X15790449Y5672869D01*
X15754500Y5492137D01*
X14767802Y5492137D01*
X14772645Y7652137D01*
X15754500Y7652137D01*
X15754500Y7467862D01*
X15790449Y7287130D01*
X15790451Y7287124D01*
X15860969Y7116878D01*
X15963349Y6963654D01*
X15963351Y6963653D01*
X16093653Y6833351D01*
X16093654Y6833349D01*
X16246878Y6730969D01*
X16417124Y6660451D01*
X16417130Y6660449D01*
X16546624Y6634691D01*
X16597861Y6624500D01*
X16597863Y6624500D01*
X17512137Y6624500D01*
X17512139Y6624500D01*
X17571837Y6636374D01*
X17692869Y6660449D01*
X17692875Y6660451D01*
X17863121Y6730969D01*
X17863122Y6730969D01*
X17863125Y6730971D01*
X18016346Y6833350D01*
X18146650Y6963654D01*
X18249029Y7116875D01*
X18319549Y7287125D01*
X18355500Y7467861D01*
X18355500Y7652139D01*
X18324099Y7810000D01*
X20233874Y7810000D01*
X20911988Y7810000D01*
X20879075Y7752993D01*
X20845000Y7625826D01*
X20845000Y7494174D01*
X20879075Y7367007D01*
X20911988Y7310000D01*
X20233875Y7310000D01*
X20284341Y7188163D01*
X20370248Y7059595D01*
X20479595Y6950248D01*
X20608165Y6864340D01*
X20751019Y6805168D01*
X20751030Y6805165D01*
X20902685Y6775000D01*
X21095000Y6775000D01*
X21095000Y7126988D01*
X21152007Y7094075D01*
X21279174Y7060000D01*
X21410826Y7060000D01*
X21537993Y7094075D01*
X21595000Y7126988D01*
X21595000Y6775000D01*
X21787315Y6775000D01*
X21938969Y6805165D01*
X21938980Y6805168D01*
X22081834Y6864340D01*
X22210404Y6950248D01*
X22319751Y7059595D01*
X22405658Y7188163D01*
X22456125Y7310000D01*
X21778012Y7310000D01*
X21810925Y7367007D01*
X21845000Y7494174D01*
X21845000Y7625826D01*
X21810925Y7752993D01*
X21778012Y7810000D01*
X22456125Y7810000D01*
X22405658Y7931836D01*
X22319751Y8060404D01*
X22210404Y8169751D01*
X22081834Y8255659D01*
X21938980Y8314831D01*
X21938969Y8314834D01*
X21787315Y8345000D01*
X21595000Y8345000D01*
X21595000Y7993012D01*
X21537993Y8025925D01*
X21410826Y8060000D01*
X21279174Y8060000D01*
X21152007Y8025925D01*
X21095000Y7993012D01*
X21095000Y8345000D01*
X20902685Y8345000D01*
X20751030Y8314834D01*
X20751019Y8314831D01*
X20608165Y8255659D01*
X20479595Y8169751D01*
X20370248Y8060404D01*
X20284341Y7931836D01*
X20233874Y7810000D01*
X18324099Y7810000D01*
X18319549Y7832875D01*
X18249029Y8003125D01*
X18146650Y8156346D01*
X18016346Y8286650D01*
X17863125Y8389029D01*
X17692875Y8459549D01*
X17512139Y8495500D01*
X16597861Y8495500D01*
X16417125Y8459549D01*
X16246875Y8389029D01*
X16093654Y8286650D01*
X15963350Y8156346D01*
X15860971Y8003125D01*
X15860969Y8003122D01*
X15860969Y8003121D01*
X15790451Y7832875D01*
X15790449Y7832869D01*
X15754500Y7652137D01*
X14772645Y7652137D01*
X14777488Y9812137D01*
X15754500Y9812137D01*
X15754500Y9627862D01*
X15790449Y9447130D01*
X15790451Y9447124D01*
X15860969Y9276878D01*
X15963349Y9123654D01*
X15963351Y9123653D01*
X16093653Y8993351D01*
X16093654Y8993349D01*
X16246878Y8890969D01*
X16417124Y8820451D01*
X16417130Y8820449D01*
X16546624Y8794691D01*
X16597861Y8784500D01*
X16597863Y8784500D01*
X17512137Y8784500D01*
X17512139Y8784500D01*
X17571837Y8796374D01*
X17692869Y8820449D01*
X17692875Y8820451D01*
X17863121Y8890969D01*
X17863122Y8890969D01*
X17863125Y8890971D01*
X18016346Y8993350D01*
X18146650Y9123654D01*
X18249029Y9276875D01*
X18319549Y9447125D01*
X18355500Y9627861D01*
X18355500Y9812139D01*
X18324099Y9970000D01*
X20233874Y9970000D01*
X20911988Y9970000D01*
X20879075Y9912993D01*
X20845000Y9785826D01*
X20845000Y9654174D01*
X20879075Y9527007D01*
X20911988Y9470000D01*
X20233875Y9470000D01*
X20284341Y9348163D01*
X20370248Y9219595D01*
X20479595Y9110248D01*
X20608165Y9024340D01*
X20751019Y8965168D01*
X20751030Y8965165D01*
X20902685Y8935000D01*
X21095000Y8935000D01*
X21095000Y9286988D01*
X21152007Y9254075D01*
X21279174Y9220000D01*
X21410826Y9220000D01*
X21537993Y9254075D01*
X21595000Y9286988D01*
X21595000Y8935000D01*
X21787315Y8935000D01*
X21938969Y8965165D01*
X21938980Y8965168D01*
X22081834Y9024340D01*
X22210404Y9110248D01*
X22319751Y9219595D01*
X22405658Y9348163D01*
X22456125Y9470000D01*
X21778012Y9470000D01*
X21810925Y9527007D01*
X21845000Y9654174D01*
X21845000Y9785826D01*
X21810925Y9912993D01*
X21778012Y9970000D01*
X22456125Y9970000D01*
X22405658Y10091836D01*
X22319751Y10220404D01*
X22210404Y10329751D01*
X22081834Y10415659D01*
X21938980Y10474831D01*
X21938969Y10474834D01*
X21787315Y10505000D01*
X21595000Y10505000D01*
X21595000Y10153012D01*
X21537993Y10185925D01*
X21410826Y10220000D01*
X21279174Y10220000D01*
X21152007Y10185925D01*
X21095000Y10153012D01*
X21095000Y10505000D01*
X20902685Y10505000D01*
X20751030Y10474834D01*
X20751019Y10474831D01*
X20608165Y10415659D01*
X20479595Y10329751D01*
X20370248Y10220404D01*
X20284341Y10091836D01*
X20233874Y9970000D01*
X18324099Y9970000D01*
X18319549Y9992875D01*
X18249029Y10163125D01*
X18146650Y10316346D01*
X18016346Y10446650D01*
X17863125Y10549029D01*
X17692875Y10619549D01*
X17512139Y10655500D01*
X16597861Y10655500D01*
X16417125Y10619549D01*
X16246875Y10549029D01*
X16093654Y10446650D01*
X15963350Y10316346D01*
X15860971Y10163125D01*
X15860969Y10163122D01*
X15860969Y10163121D01*
X15790451Y9992875D01*
X15790449Y9992869D01*
X15754500Y9812137D01*
X14777488Y9812137D01*
X14782685Y12130000D01*
X15943874Y12130000D01*
X16621988Y12130000D01*
X16589075Y12072993D01*
X16555000Y11945826D01*
X16555000Y11814174D01*
X16589075Y11687007D01*
X16621988Y11630000D01*
X15943875Y11630000D01*
X15994341Y11508163D01*
X16080248Y11379595D01*
X16189595Y11270248D01*
X16318165Y11184340D01*
X16461019Y11125168D01*
X16461030Y11125165D01*
X16612685Y11095000D01*
X16805000Y11095000D01*
X16805000Y11446988D01*
X16862007Y11414075D01*
X16989174Y11380000D01*
X17120826Y11380000D01*
X17247993Y11414075D01*
X17305000Y11446988D01*
X17305000Y11095000D01*
X17497315Y11095000D01*
X17648969Y11125165D01*
X17648980Y11125168D01*
X17791834Y11184340D01*
X17920404Y11270248D01*
X18029751Y11379595D01*
X18115658Y11508163D01*
X18166125Y11630000D01*
X17488012Y11630000D01*
X17520925Y11687007D01*
X17555000Y11814174D01*
X17555000Y11945826D01*
X17520925Y12072993D01*
X17488012Y12130000D01*
X18166125Y12130000D01*
X20233874Y12130000D01*
X20911988Y12130000D01*
X20879075Y12072993D01*
X20845000Y11945826D01*
X20845000Y11814174D01*
X20879075Y11687007D01*
X20911988Y11630000D01*
X20233875Y11630000D01*
X20284341Y11508163D01*
X20370248Y11379595D01*
X20479595Y11270248D01*
X20608165Y11184340D01*
X20751019Y11125168D01*
X20751030Y11125165D01*
X20902685Y11095000D01*
X21095000Y11095000D01*
X21095000Y11446988D01*
X21152007Y11414075D01*
X21279174Y11380000D01*
X21410826Y11380000D01*
X21537993Y11414075D01*
X21595000Y11446988D01*
X21595000Y11095000D01*
X21787315Y11095000D01*
X21938969Y11125165D01*
X21938980Y11125168D01*
X22081834Y11184340D01*
X22210404Y11270248D01*
X22319751Y11379595D01*
X22405658Y11508163D01*
X22456125Y11630000D01*
X21778012Y11630000D01*
X21810925Y11687007D01*
X21845000Y11814174D01*
X21845000Y11945826D01*
X21810925Y12072993D01*
X21778012Y12130000D01*
X22456125Y12130000D01*
X22405658Y12251836D01*
X22319751Y12380404D01*
X22210404Y12489751D01*
X22081834Y12575659D01*
X21938980Y12634831D01*
X21938969Y12634834D01*
X21787315Y12665000D01*
X21595000Y12665000D01*
X21595000Y12313012D01*
X21537993Y12345925D01*
X21410826Y12380000D01*
X21279174Y12380000D01*
X21152007Y12345925D01*
X21095000Y12313012D01*
X21095000Y12665000D01*
X20902685Y12665000D01*
X20751030Y12634834D01*
X20751019Y12634831D01*
X20608165Y12575659D01*
X20479595Y12489751D01*
X20370248Y12380404D01*
X20284341Y12251836D01*
X20233874Y12130000D01*
X18166125Y12130000D01*
X18115658Y12251836D01*
X18029751Y12380404D01*
X17920404Y12489751D01*
X17791834Y12575659D01*
X17648980Y12634831D01*
X17648969Y12634834D01*
X17497315Y12665000D01*
X17305000Y12665000D01*
X17305000Y12313012D01*
X17247993Y12345925D01*
X17120826Y12380000D01*
X16989174Y12380000D01*
X16862007Y12345925D01*
X16805000Y12313012D01*
X16805000Y12665000D01*
X16612685Y12665000D01*
X16461030Y12634834D01*
X16461019Y12634831D01*
X16318165Y12575659D01*
X16189595Y12489751D01*
X16080248Y12380404D01*
X15994341Y12251836D01*
X15943874Y12130000D01*
X14782685Y12130000D01*
X14808287Y23548817D01*
X16550000Y23548817D01*
X16550000Y23251182D01*
X16583326Y22955403D01*
X16649553Y22665238D01*
X16649558Y22665222D01*
X16747860Y22384291D01*
X16877000Y22116129D01*
X17035358Y21864104D01*
X17157451Y21711004D01*
X17977340Y22530893D01*
X18055864Y22422816D01*
X18222816Y22255864D01*
X18330894Y22177340D01*
X17511004Y21357451D01*
X17511004Y21357450D01*
X17664104Y21235358D01*
X17916129Y21077000D01*
X18184291Y20947860D01*
X18465222Y20849558D01*
X18465238Y20849553D01*
X18755403Y20783326D01*
X19051183Y20750000D01*
X19348817Y20750000D01*
X19644596Y20783326D01*
X19934761Y20849553D01*
X19934777Y20849558D01*
X20215708Y20947860D01*
X20483870Y21077000D01*
X20735895Y21235358D01*
X20888994Y21357450D01*
X20888994Y21357451D01*
X20069105Y22177340D01*
X20177184Y22255864D01*
X20344136Y22422816D01*
X20422658Y22530892D01*
X21242547Y21711004D01*
X21242548Y21711004D01*
X21364641Y21864104D01*
X21522999Y22116129D01*
X21652139Y22384291D01*
X21750441Y22665222D01*
X21750446Y22665238D01*
X21816673Y22955403D01*
X21850000Y23251182D01*
X21850000Y23548817D01*
X21816673Y23844596D01*
X21750446Y24134761D01*
X21750441Y24134777D01*
X21652139Y24415708D01*
X21601701Y24520446D01*
X21587990Y24548916D01*
X25549500Y24548916D01*
X25549500Y24401083D01*
X25578340Y24256092D01*
X25578343Y24256082D01*
X25634915Y24119505D01*
X25717048Y23996584D01*
X25717050Y23996583D01*
X25821583Y23892050D01*
X25821584Y23892048D01*
X25944505Y23809915D01*
X26081082Y23753343D01*
X26081092Y23753340D01*
X26184977Y23732676D01*
X26226082Y23724500D01*
X26226084Y23724500D01*
X26373916Y23724500D01*
X26373918Y23724500D01*
X26421811Y23734026D01*
X26518907Y23753340D01*
X26518917Y23753343D01*
X26655494Y23809915D01*
X26778415Y23892048D01*
X26882951Y23996584D01*
X26965084Y24119505D01*
X27021656Y24256082D01*
X27021659Y24256092D01*
X27050500Y24401083D01*
X27050500Y24548916D01*
X27023845Y24682915D01*
X27021658Y24693913D01*
X26965084Y24830495D01*
X26882951Y24953416D01*
X26778416Y25057951D01*
X26655495Y25140084D01*
X26518913Y25196658D01*
X26373918Y25225500D01*
X26226082Y25225500D01*
X26081087Y25196658D01*
X26081082Y25196656D01*
X25944505Y25140084D01*
X25821584Y25057951D01*
X25717048Y24953415D01*
X25634915Y24830494D01*
X25578343Y24693917D01*
X25578340Y24693907D01*
X25549500Y24548916D01*
X21587990Y24548916D01*
X21522997Y24683873D01*
X21364637Y24935901D01*
X21242549Y25088994D01*
X21242547Y25088994D01*
X20422659Y24269106D01*
X20344136Y24377184D01*
X20177184Y24544136D01*
X20069106Y24622659D01*
X20888994Y25442547D01*
X20888994Y25442549D01*
X20735901Y25564637D01*
X20483870Y25722999D01*
X20215708Y25852139D01*
X19934777Y25950441D01*
X19934761Y25950446D01*
X19644596Y26016673D01*
X19348817Y26050000D01*
X19051183Y26050000D01*
X18755403Y26016673D01*
X18465238Y25950446D01*
X18465222Y25950441D01*
X18184291Y25852139D01*
X17916129Y25722999D01*
X17664104Y25564641D01*
X17511004Y25442548D01*
X17511004Y25442547D01*
X18330893Y24622658D01*
X18222816Y24544136D01*
X18055864Y24377184D01*
X17977340Y24269105D01*
X17157451Y25088994D01*
X17157450Y25088994D01*
X17035358Y24935895D01*
X16877000Y24683870D01*
X16747860Y24415708D01*
X16649558Y24134777D01*
X16649553Y24134761D01*
X16583326Y23844596D01*
X16550000Y23548817D01*
X14808287Y23548817D01*
X14816651Y27279018D01*
X14838443Y27331294D01*
X14890651Y27352851D01*
X28700195Y27352851D01*
X28752521Y27331177D01*
G37*
%TD.AperFunction*%
%TD*%
%TA.AperFunction,Conductor*%
%TO.N,VCC*%
G36*
X-6580686Y-15996674D02*
G01*
X-6568926Y-16012001D01*
X-6563909Y-16020688D01*
X-6560489Y-16026613D01*
X-6476613Y-16110489D01*
X-6373886Y-16169799D01*
X-6259311Y-16200499D01*
X-6259311Y-16200500D01*
X-6259309Y-16200500D01*
X-6140689Y-16200500D01*
X-6140688Y-16200499D01*
X-6083402Y-16185149D01*
X-6026117Y-16169800D01*
X-6026115Y-16169799D01*
X-6026114Y-16169799D01*
X-6025769Y-16169600D01*
X-5935297Y-16117366D01*
X-5879144Y-16109974D01*
X-5845973Y-16129124D01*
X-5021338Y-16953761D01*
X-4860191Y-17114966D01*
X-4500800Y-17420236D01*
X-4117818Y-17695331D01*
X-3713774Y-17938436D01*
X-3291332Y-18147948D01*
X-2853280Y-18322484D01*
X-2550009Y-18415602D01*
X-2436358Y-18450499D01*
X-2402509Y-18460892D01*
X-1941991Y-18562260D01*
X-1474765Y-18625918D01*
X-1328273Y-18633860D01*
X-1277199Y-18658334D01*
X-1258390Y-18711757D01*
X-1282864Y-18762833D01*
X-1298685Y-18773685D01*
X-1353220Y-18801472D01*
X-1448528Y-18896780D01*
X-1500965Y-18999695D01*
X-1509718Y-19016873D01*
X-1509719Y-19016874D01*
X-1522330Y-19096500D01*
X-1525500Y-19116512D01*
X-1525500Y-19683488D01*
X-1509719Y-19783126D01*
X-1448528Y-19903220D01*
X-1353220Y-19998528D01*
X-1233126Y-20059719D01*
X-1183307Y-20067609D01*
X-1133489Y-20075500D01*
X-1133488Y-20075500D01*
X-616511Y-20075500D01*
X-516873Y-20059719D01*
X-416478Y-20008565D01*
X-382883Y-20000500D01*
X63888Y-20000500D01*
X97483Y-20008566D01*
X140879Y-20030677D01*
X199696Y-20060646D01*
X293481Y-20075500D01*
X756518Y-20075499D01*
X756519Y-20075499D01*
X850304Y-20060646D01*
X850306Y-20060645D01*
X876681Y-20047206D01*
X963342Y-20003050D01*
X1053050Y-19913342D01*
X1110646Y-19800304D01*
X1125500Y-19706519D01*
X1125500Y-19400500D01*
X1125500Y-19393979D01*
X1474500Y-19393979D01*
X1474500Y-19506020D01*
X1503495Y-19614232D01*
X1503499Y-19614241D01*
X1559515Y-19711263D01*
X1561211Y-19712959D01*
X1561991Y-19714491D01*
X1562468Y-19715112D01*
X1562352Y-19715200D01*
X1581974Y-19753709D01*
X1589353Y-19800301D01*
X1589353Y-19800302D01*
X1589354Y-19800304D01*
X1646950Y-19913342D01*
X1736658Y-20003050D01*
X1849696Y-20060646D01*
X1943481Y-20075500D01*
X2093099Y-20075499D01*
X2145425Y-20097173D01*
X2188737Y-20140485D01*
X2285763Y-20196503D01*
X2393979Y-20225499D01*
X2393980Y-20225500D01*
X2393982Y-20225500D01*
X2506020Y-20225500D01*
X2506020Y-20225499D01*
X2614237Y-20196503D01*
X2711263Y-20140485D01*
X2711263Y-20140484D01*
X2715463Y-20138060D01*
X2716613Y-20140052D01*
X2763952Y-20127350D01*
X2813012Y-20155650D01*
X2827690Y-20210352D01*
X2827687Y-20210377D01*
X2824356Y-20235683D01*
X2824356Y-20584314D01*
X2830787Y-20633171D01*
X2830788Y-20633173D01*
X2880791Y-20740404D01*
X2964452Y-20824065D01*
X3071683Y-20874068D01*
X3120540Y-20880500D01*
X3120542Y-20880500D01*
X3569170Y-20880500D01*
X3569172Y-20880500D01*
X3618029Y-20874068D01*
X3725260Y-20824065D01*
X3773174Y-20776151D01*
X3825500Y-20754477D01*
X3877826Y-20776151D01*
X3899500Y-20828477D01*
X3899500Y-21029266D01*
X3902354Y-21059699D01*
X3902354Y-21059701D01*
X3902355Y-21059704D01*
X3947206Y-21187881D01*
X3947207Y-21187883D01*
X4027846Y-21297146D01*
X4027853Y-21297153D01*
X4137116Y-21377792D01*
X4137118Y-21377793D01*
X4265295Y-21422644D01*
X4265301Y-21422646D01*
X4295734Y-21425500D01*
X4295741Y-21425500D01*
X5304258Y-21425500D01*
X5304266Y-21425500D01*
X5334699Y-21422646D01*
X5462882Y-21377793D01*
X5572150Y-21297150D01*
X5652793Y-21187882D01*
X5652794Y-21187880D01*
X5694605Y-21068391D01*
X5732344Y-21026159D01*
X5788892Y-21022984D01*
X5831124Y-21060723D01*
X5835930Y-21073678D01*
X5853495Y-21139232D01*
X5853499Y-21139241D01*
X5881582Y-21187882D01*
X5909515Y-21236263D01*
X5988737Y-21315485D01*
X6085763Y-21371503D01*
X6193979Y-21400499D01*
X6193980Y-21400500D01*
X6193982Y-21400500D01*
X6306020Y-21400500D01*
X6306020Y-21400499D01*
X6414237Y-21371503D01*
X6511263Y-21315485D01*
X6590485Y-21236263D01*
X6646503Y-21139237D01*
X6675499Y-21031020D01*
X6675500Y-21031020D01*
X6675500Y-20918980D01*
X6675499Y-20918979D01*
X6646504Y-20810767D01*
X6646503Y-20810763D01*
X6590485Y-20713737D01*
X6511263Y-20634515D01*
X6424316Y-20584316D01*
X6414241Y-20578499D01*
X6414232Y-20578495D01*
X6306020Y-20549500D01*
X6306018Y-20549500D01*
X6193982Y-20549500D01*
X6193980Y-20549500D01*
X6085767Y-20578495D01*
X6085758Y-20578499D01*
X5988736Y-20634515D01*
X5909515Y-20713736D01*
X5853499Y-20810758D01*
X5853495Y-20810767D01*
X5845978Y-20838823D01*
X5811500Y-20883756D01*
X5755347Y-20891148D01*
X5710414Y-20856670D01*
X5700500Y-20819670D01*
X5700500Y-20395740D01*
X5700500Y-20395734D01*
X5697646Y-20365301D01*
X5652793Y-20237118D01*
X5640130Y-20219960D01*
X5572153Y-20127853D01*
X5572146Y-20127846D01*
X5462883Y-20047207D01*
X5462881Y-20047206D01*
X5334704Y-20002355D01*
X5334705Y-20002355D01*
X5334700Y-20002354D01*
X5334699Y-20002354D01*
X5304266Y-19999500D01*
X4295734Y-19999500D01*
X4265301Y-20002354D01*
X4265299Y-20002354D01*
X4265295Y-20002355D01*
X4137118Y-20047206D01*
X4137116Y-20047207D01*
X4027853Y-20127846D01*
X4027849Y-20127850D01*
X3981442Y-20190729D01*
X3932930Y-20219960D01*
X3877959Y-20206326D01*
X3854836Y-20178062D01*
X3808921Y-20079596D01*
X3725260Y-19995935D01*
X3725258Y-19995933D01*
X3679742Y-19974709D01*
X3663351Y-19967066D01*
X3625088Y-19925310D01*
X3627558Y-19868727D01*
X3663351Y-19832933D01*
X3725260Y-19804065D01*
X3808921Y-19720404D01*
X3858924Y-19613173D01*
X3865356Y-19564316D01*
X3865356Y-19537254D01*
X3887029Y-19484929D01*
X3912675Y-19459282D01*
X3965001Y-19437609D01*
X4017327Y-19459283D01*
X4024539Y-19467664D01*
X4027850Y-19472150D01*
X4027853Y-19472152D01*
X4027855Y-19472154D01*
X4137116Y-19552792D01*
X4137118Y-19552793D01*
X4265295Y-19597644D01*
X4265301Y-19597646D01*
X4295734Y-19600500D01*
X4295741Y-19600500D01*
X5304258Y-19600500D01*
X5304266Y-19600500D01*
X5334699Y-19597646D01*
X5462882Y-19552793D01*
X5572150Y-19472150D01*
X5652793Y-19362882D01*
X5697646Y-19234699D01*
X5700500Y-19204266D01*
X5700500Y-18570734D01*
X5697646Y-18540301D01*
X5696059Y-18535767D01*
X5652793Y-18412118D01*
X5652792Y-18412116D01*
X5572153Y-18302853D01*
X5572146Y-18302846D01*
X5462883Y-18222207D01*
X5462881Y-18222206D01*
X5334704Y-18177355D01*
X5334705Y-18177355D01*
X5334700Y-18177354D01*
X5334699Y-18177354D01*
X5304266Y-18174500D01*
X4295734Y-18174500D01*
X4265301Y-18177354D01*
X4265299Y-18177354D01*
X4265295Y-18177355D01*
X4137118Y-18222206D01*
X4137116Y-18222207D01*
X4027853Y-18302846D01*
X4027849Y-18302850D01*
X3951026Y-18406943D01*
X3902515Y-18436173D01*
X3891486Y-18437000D01*
X3788045Y-18437000D01*
X3673473Y-18467699D01*
X3673468Y-18467701D01*
X3643874Y-18484788D01*
X3570741Y-18527011D01*
X3199927Y-18897826D01*
X3147601Y-18919500D01*
X3120540Y-18919500D01*
X3109174Y-18920996D01*
X3071684Y-18925931D01*
X3071682Y-18925932D01*
X2961007Y-18977540D01*
X2904424Y-18980010D01*
X2862667Y-18941746D01*
X2858257Y-18929632D01*
X2846503Y-18885763D01*
X2790485Y-18788737D01*
X2711263Y-18709515D01*
X2622615Y-18658334D01*
X2614241Y-18653499D01*
X2614232Y-18653495D01*
X2506020Y-18624500D01*
X2506018Y-18624500D01*
X2393982Y-18624500D01*
X2393980Y-18624500D01*
X2285767Y-18653495D01*
X2285758Y-18653499D01*
X2184537Y-18711940D01*
X2183972Y-18710962D01*
X2144088Y-18724500D01*
X1943480Y-18724500D01*
X1849695Y-18739353D01*
X1849693Y-18739354D01*
X1736657Y-18796950D01*
X1646951Y-18886656D01*
X1589353Y-18999698D01*
X1574500Y-19093480D01*
X1574500Y-19144088D01*
X1560962Y-19183972D01*
X1561940Y-19184537D01*
X1503499Y-19285758D01*
X1503495Y-19285767D01*
X1474500Y-19393979D01*
X1125500Y-19393979D01*
X1125500Y-19320943D01*
X1125499Y-19320940D01*
X1125499Y-19093482D01*
X1121929Y-19070942D01*
X1110646Y-18999695D01*
X1110645Y-18999693D01*
X1053049Y-18886657D01*
X963343Y-18796951D01*
X963342Y-18796950D01*
X850304Y-18739354D01*
X850302Y-18739353D01*
X850301Y-18739353D01*
X756519Y-18724500D01*
X293480Y-18724500D01*
X199695Y-18739353D01*
X199694Y-18739354D01*
X97484Y-18791434D01*
X63888Y-18799500D01*
X-382883Y-18799500D01*
X-416479Y-18791434D01*
X-462837Y-18767813D01*
X-499619Y-18724746D01*
X-495175Y-18668283D01*
X-452108Y-18631501D01*
X-437243Y-18628313D01*
X-63767Y-18587695D01*
X399327Y-18498835D01*
X853681Y-18372684D01*
X1296299Y-18210075D01*
X1724259Y-18012079D01*
X2049320Y-17828296D01*
X2105537Y-17821411D01*
X2150157Y-17856294D01*
X2157219Y-17911866D01*
X2149496Y-17940690D01*
X2149496Y-18059310D01*
X2180195Y-18173881D01*
X2180197Y-18173886D01*
X2239504Y-18276608D01*
X2239505Y-18276609D01*
X2239507Y-18276612D01*
X2323383Y-18360488D01*
X2323385Y-18360489D01*
X2323386Y-18360490D01*
X2412808Y-18412118D01*
X2426110Y-18419798D01*
X2426111Y-18419798D01*
X2426113Y-18419799D01*
X2483398Y-18435148D01*
X2540684Y-18450498D01*
X2540685Y-18450499D01*
X2540687Y-18450499D01*
X2659307Y-18450499D01*
X2659307Y-18450498D01*
X2773882Y-18419798D01*
X2876609Y-18360488D01*
X2960485Y-18276612D01*
X3019795Y-18173885D01*
X3050495Y-18059310D01*
X3050496Y-18059310D01*
X3050496Y-17940688D01*
X3050495Y-17940687D01*
X3042772Y-17911866D01*
X3019795Y-17826113D01*
X2993174Y-17780004D01*
X2960487Y-17723389D01*
X2960486Y-17723388D01*
X2960485Y-17723386D01*
X2876609Y-17639510D01*
X2876606Y-17639508D01*
X2876605Y-17639507D01*
X2773883Y-17580200D01*
X2773878Y-17580198D01*
X2667677Y-17551741D01*
X2622744Y-17517262D01*
X2615352Y-17461110D01*
X2640464Y-17422591D01*
X2892555Y-17219955D01*
X3234893Y-16895676D01*
X3549783Y-16544682D01*
X3835148Y-16169291D01*
X3937511Y-16009146D01*
X3983954Y-15976730D01*
X3999862Y-15975000D01*
X6432154Y-15975000D01*
X6484480Y-15996674D01*
X6506154Y-16049000D01*
X6484480Y-16101326D01*
X6469154Y-16113086D01*
X6388736Y-16159515D01*
X6309515Y-16238736D01*
X6253499Y-16335758D01*
X6253495Y-16335767D01*
X6224500Y-16443979D01*
X6224500Y-16556020D01*
X6253495Y-16664232D01*
X6253499Y-16664241D01*
X6309515Y-16761263D01*
X6388737Y-16840485D01*
X6402471Y-16848415D01*
X6436949Y-16893349D01*
X6429555Y-16949501D01*
X6402471Y-16976585D01*
X6388737Y-16984514D01*
X6309515Y-17063736D01*
X6253499Y-17160758D01*
X6253495Y-17160767D01*
X6224500Y-17268979D01*
X6224500Y-17381020D01*
X6253495Y-17489232D01*
X6253496Y-17489235D01*
X6253497Y-17489237D01*
X6309515Y-17586263D01*
X6388737Y-17665485D01*
X6485763Y-17721503D01*
X6593979Y-17750499D01*
X6593980Y-17750500D01*
X6593982Y-17750500D01*
X6706020Y-17750500D01*
X6706020Y-17750499D01*
X6814237Y-17721503D01*
X6911263Y-17665485D01*
X6973674Y-17603074D01*
X7026000Y-17581400D01*
X7078326Y-17603074D01*
X7100000Y-17655400D01*
X7100000Y-18216641D01*
X7078326Y-18268967D01*
X7026000Y-18290641D01*
X7006847Y-18288119D01*
X6956020Y-18274500D01*
X6956018Y-18274500D01*
X6843982Y-18274500D01*
X6843980Y-18274500D01*
X6735767Y-18303495D01*
X6735758Y-18303499D01*
X6638736Y-18359515D01*
X6559515Y-18438736D01*
X6503499Y-18535758D01*
X6503495Y-18535767D01*
X6474500Y-18643979D01*
X6474500Y-18756020D01*
X6503495Y-18864232D01*
X6503499Y-18864241D01*
X6535403Y-18919500D01*
X6559515Y-18961263D01*
X6638737Y-19040485D01*
X6735763Y-19096503D01*
X6843979Y-19125499D01*
X6843980Y-19125500D01*
X6843982Y-19125500D01*
X6956020Y-19125500D01*
X6956020Y-19125499D01*
X6980524Y-19118933D01*
X7006847Y-19111881D01*
X7063000Y-19119273D01*
X7097478Y-19164206D01*
X7100000Y-19183359D01*
X7100000Y-26400500D01*
X7078326Y-26452826D01*
X7026000Y-26474500D01*
X7014977Y-26474500D01*
X6906764Y-26503495D01*
X6906755Y-26503499D01*
X6809733Y-26559515D01*
X6798323Y-26570926D01*
X6745997Y-26592600D01*
X6693671Y-26570926D01*
X6682260Y-26559515D01*
X6585238Y-26503499D01*
X6585229Y-26503495D01*
X6477017Y-26474500D01*
X6477015Y-26474500D01*
X6364979Y-26474500D01*
X6364977Y-26474500D01*
X6256764Y-26503495D01*
X6256755Y-26503499D01*
X6159731Y-26559516D01*
X6158815Y-26560433D01*
X6158211Y-26560682D01*
X6155885Y-26562468D01*
X6155406Y-26561844D01*
X6106486Y-26582101D01*
X6057585Y-26561842D01*
X6057106Y-26562468D01*
X6054771Y-26560676D01*
X6054169Y-26560427D01*
X6053257Y-26559515D01*
X5956235Y-26503499D01*
X5956226Y-26503495D01*
X5848014Y-26474500D01*
X5848012Y-26474500D01*
X5735976Y-26474500D01*
X5735974Y-26474500D01*
X5627761Y-26503495D01*
X5627752Y-26503499D01*
X5530730Y-26559515D01*
X5523323Y-26566923D01*
X5470997Y-26588597D01*
X5418671Y-26566923D01*
X5411263Y-26559515D01*
X5314241Y-26503499D01*
X5314232Y-26503495D01*
X5206020Y-26474500D01*
X5206018Y-26474500D01*
X5093982Y-26474500D01*
X5093980Y-26474500D01*
X4985767Y-26503495D01*
X4985758Y-26503499D01*
X4888734Y-26559516D01*
X4888732Y-26559517D01*
X4875322Y-26572928D01*
X4822996Y-26594601D01*
X4770672Y-26572927D01*
X4757260Y-26559515D01*
X4660238Y-26503499D01*
X4660229Y-26503495D01*
X4552017Y-26474500D01*
X4552015Y-26474500D01*
X4439979Y-26474500D01*
X4439977Y-26474500D01*
X4331764Y-26503495D01*
X4331755Y-26503499D01*
X4234733Y-26559515D01*
X4223323Y-26570926D01*
X4170997Y-26592600D01*
X4118671Y-26570926D01*
X4107260Y-26559515D01*
X4010238Y-26503499D01*
X4010229Y-26503495D01*
X3902017Y-26474500D01*
X3902015Y-26474500D01*
X3789979Y-26474500D01*
X3789977Y-26474500D01*
X3681764Y-26503495D01*
X3681755Y-26503499D01*
X3584731Y-26559516D01*
X3583815Y-26560433D01*
X3583211Y-26560682D01*
X3580885Y-26562468D01*
X3580406Y-26561844D01*
X3531486Y-26582101D01*
X3482585Y-26561842D01*
X3482106Y-26562468D01*
X3479771Y-26560676D01*
X3479169Y-26560427D01*
X3478257Y-26559515D01*
X3381235Y-26503499D01*
X3381226Y-26503495D01*
X3273014Y-26474500D01*
X3273012Y-26474500D01*
X3160976Y-26474500D01*
X3160974Y-26474500D01*
X3052761Y-26503495D01*
X3052752Y-26503499D01*
X2955730Y-26559515D01*
X2948323Y-26566923D01*
X2895997Y-26588597D01*
X2843671Y-26566923D01*
X2836263Y-26559515D01*
X2739241Y-26503499D01*
X2739232Y-26503495D01*
X2631020Y-26474500D01*
X2631018Y-26474500D01*
X2518982Y-26474500D01*
X2518980Y-26474500D01*
X2410767Y-26503495D01*
X2410758Y-26503499D01*
X2313734Y-26559516D01*
X2312818Y-26560433D01*
X2312214Y-26560682D01*
X2309888Y-26562468D01*
X2309409Y-26561844D01*
X2260489Y-26582101D01*
X2211588Y-26561842D01*
X2211109Y-26562468D01*
X2208774Y-26560676D01*
X2208172Y-26560427D01*
X2207260Y-26559515D01*
X2110238Y-26503499D01*
X2110229Y-26503495D01*
X2002017Y-26474500D01*
X2002015Y-26474500D01*
X1889979Y-26474500D01*
X1889977Y-26474500D01*
X1781764Y-26503495D01*
X1781755Y-26503499D01*
X1684733Y-26559515D01*
X1673323Y-26570926D01*
X1620997Y-26592600D01*
X1568671Y-26570926D01*
X1557260Y-26559515D01*
X1460238Y-26503499D01*
X1460229Y-26503495D01*
X1352017Y-26474500D01*
X1352015Y-26474500D01*
X1239979Y-26474500D01*
X1239977Y-26474500D01*
X1131764Y-26503495D01*
X1131755Y-26503499D01*
X1034731Y-26559516D01*
X1033815Y-26560433D01*
X1033211Y-26560682D01*
X1030885Y-26562468D01*
X1030406Y-26561844D01*
X981486Y-26582101D01*
X932585Y-26561842D01*
X932106Y-26562468D01*
X929771Y-26560676D01*
X929169Y-26560427D01*
X928257Y-26559515D01*
X831235Y-26503499D01*
X831226Y-26503495D01*
X723014Y-26474500D01*
X723012Y-26474500D01*
X610976Y-26474500D01*
X610974Y-26474500D01*
X502761Y-26503495D01*
X502752Y-26503499D01*
X405730Y-26559515D01*
X398323Y-26566923D01*
X375096Y-26576543D01*
X352864Y-26588278D01*
X349605Y-26587102D01*
X345997Y-26588597D01*
X298753Y-26571553D01*
X296102Y-26569354D01*
X286263Y-26559515D01*
X279608Y-26555673D01*
X274785Y-26551672D01*
X264265Y-26531740D01*
X250549Y-26513862D01*
X251403Y-26507372D01*
X248348Y-26501583D01*
X255003Y-26480049D01*
X257947Y-26457710D01*
X263680Y-26451977D01*
X265073Y-26447472D01*
X271666Y-26443991D01*
X285028Y-26430631D01*
X311263Y-26415485D01*
X390485Y-26336263D01*
X446503Y-26239237D01*
X475499Y-26131020D01*
X475500Y-26131020D01*
X475500Y-26018980D01*
X475499Y-26018979D01*
X473865Y-26012882D01*
X446503Y-25910763D01*
X390485Y-25813737D01*
X311263Y-25734515D01*
X259944Y-25704886D01*
X214241Y-25678499D01*
X214232Y-25678495D01*
X147981Y-25660743D01*
X103048Y-25626264D01*
X95656Y-25570112D01*
X114806Y-25536941D01*
X190485Y-25461263D01*
X246503Y-25364237D01*
X275499Y-25256020D01*
X275500Y-25256020D01*
X275500Y-25143980D01*
X275499Y-25143979D01*
X263247Y-25098255D01*
X246503Y-25035763D01*
X190485Y-24938737D01*
X111263Y-24859515D01*
X75013Y-24838586D01*
X40534Y-24793652D01*
X47927Y-24737500D01*
X92861Y-24703021D01*
X112013Y-24700500D01*
X2404258Y-24700500D01*
X2404266Y-24700500D01*
X2434699Y-24697646D01*
X2562882Y-24652793D01*
X2672150Y-24572150D01*
X2752793Y-24462882D01*
X2797646Y-24334699D01*
X2800500Y-24304266D01*
X2800500Y-24293979D01*
X3824500Y-24293979D01*
X3824500Y-24406020D01*
X3853495Y-24514232D01*
X3853499Y-24514241D01*
X3883534Y-24566263D01*
X3909515Y-24611263D01*
X3988737Y-24690485D01*
X4025088Y-24711472D01*
X4043149Y-24721900D01*
X4077628Y-24766834D01*
X4077628Y-24805138D01*
X4058106Y-24877996D01*
X4058106Y-24990034D01*
X4087101Y-25098246D01*
X4087105Y-25098255D01*
X4113506Y-25143982D01*
X4143121Y-25195277D01*
X4222343Y-25274499D01*
X4319369Y-25330517D01*
X4427585Y-25359513D01*
X4427586Y-25359514D01*
X4427588Y-25359514D01*
X4539626Y-25359514D01*
X4539626Y-25359513D01*
X4647843Y-25330517D01*
X4744869Y-25274499D01*
X4824091Y-25195277D01*
X4880109Y-25098251D01*
X4909105Y-24990034D01*
X4909106Y-24990034D01*
X4909106Y-24877994D01*
X4909105Y-24877993D01*
X4892020Y-24814232D01*
X4880109Y-24769777D01*
X4824091Y-24672751D01*
X4745319Y-24593979D01*
X5274500Y-24593979D01*
X5274500Y-24706020D01*
X5303495Y-24814232D01*
X5303499Y-24814241D01*
X5340307Y-24877994D01*
X5359515Y-24911263D01*
X5438737Y-24990485D01*
X5535763Y-25046503D01*
X5643979Y-25075499D01*
X5643980Y-25075500D01*
X5643982Y-25075500D01*
X5756020Y-25075500D01*
X5756020Y-25075499D01*
X5864237Y-25046503D01*
X5961263Y-24990485D01*
X6040485Y-24911263D01*
X6096503Y-24814237D01*
X6125499Y-24706020D01*
X6125500Y-24706020D01*
X6125500Y-24593980D01*
X6125499Y-24593979D01*
X6125378Y-24593529D01*
X6096503Y-24485763D01*
X6040485Y-24388737D01*
X5961263Y-24309515D01*
X5864241Y-24253499D01*
X5864232Y-24253495D01*
X5756020Y-24224500D01*
X5756018Y-24224500D01*
X5643982Y-24224500D01*
X5643980Y-24224500D01*
X5535767Y-24253495D01*
X5535758Y-24253499D01*
X5438736Y-24309515D01*
X5359515Y-24388736D01*
X5303499Y-24485758D01*
X5303495Y-24485767D01*
X5274500Y-24593979D01*
X4745319Y-24593979D01*
X4744869Y-24593529D01*
X4686113Y-24559606D01*
X4682153Y-24556540D01*
X4670398Y-24535973D01*
X4655978Y-24517181D01*
X4655978Y-24510744D01*
X4654048Y-24507368D01*
X4655978Y-24500288D01*
X4655978Y-24478875D01*
X4660263Y-24462882D01*
X4675499Y-24406020D01*
X4675500Y-24406020D01*
X4675500Y-24293980D01*
X4675499Y-24293979D01*
X4664651Y-24253495D01*
X4646503Y-24185763D01*
X4590485Y-24088737D01*
X4511263Y-24009515D01*
X4485831Y-23994832D01*
X4414241Y-23953499D01*
X4414232Y-23953495D01*
X4306020Y-23924500D01*
X4306018Y-23924500D01*
X4193982Y-23924500D01*
X4193980Y-23924500D01*
X4085767Y-23953495D01*
X4085758Y-23953499D01*
X3988736Y-24009515D01*
X3909515Y-24088736D01*
X3853499Y-24185758D01*
X3853495Y-24185767D01*
X3824500Y-24293979D01*
X2800500Y-24293979D01*
X2800500Y-24047158D01*
X2822174Y-23994832D01*
X2855347Y-23975679D01*
X2856015Y-23975500D01*
X2856018Y-23975500D01*
X2964237Y-23946503D01*
X3061263Y-23890485D01*
X3062170Y-23889577D01*
X3062769Y-23889328D01*
X3065109Y-23887534D01*
X3065589Y-23888160D01*
X3114492Y-23867898D01*
X3163413Y-23888154D01*
X3163891Y-23887532D01*
X3166214Y-23889314D01*
X3166821Y-23889566D01*
X3167740Y-23890485D01*
X3264766Y-23946503D01*
X3372982Y-23975499D01*
X3372983Y-23975500D01*
X3372985Y-23975500D01*
X3485023Y-23975500D01*
X3485023Y-23975499D01*
X3593240Y-23946503D01*
X3690266Y-23890485D01*
X3769488Y-23811263D01*
X3825506Y-23714237D01*
X3854502Y-23606020D01*
X3854503Y-23606020D01*
X3854503Y-23493980D01*
X3854502Y-23493979D01*
X3825868Y-23387116D01*
X3825506Y-23385763D01*
X3769488Y-23288737D01*
X3690266Y-23209515D01*
X3667881Y-23196591D01*
X3593244Y-23153499D01*
X3593235Y-23153495D01*
X3485023Y-23124500D01*
X3485021Y-23124500D01*
X3372985Y-23124500D01*
X3372983Y-23124500D01*
X3264770Y-23153495D01*
X3264761Y-23153499D01*
X3167737Y-23209516D01*
X3166821Y-23210433D01*
X3166217Y-23210682D01*
X3163891Y-23212468D01*
X3163412Y-23211844D01*
X3114492Y-23232101D01*
X3065591Y-23211842D01*
X3065112Y-23212468D01*
X3062777Y-23210676D01*
X3062175Y-23210427D01*
X3061263Y-23209515D01*
X2964241Y-23153499D01*
X2964232Y-23153495D01*
X2856020Y-23124500D01*
X2856018Y-23124500D01*
X2743982Y-23124500D01*
X2743980Y-23124500D01*
X2635767Y-23153495D01*
X2635763Y-23153497D01*
X2590519Y-23179618D01*
X2534366Y-23187009D01*
X2529079Y-23185378D01*
X2434704Y-23152355D01*
X2434705Y-23152355D01*
X2434700Y-23152354D01*
X2434699Y-23152354D01*
X2404266Y-23149500D01*
X2404260Y-23149500D01*
X2309063Y-23149500D01*
X2289912Y-23146979D01*
X2206018Y-23124500D01*
X2093982Y-23124500D01*
X2010087Y-23146979D01*
X1990937Y-23149500D01*
X1717069Y-23149500D01*
X1697918Y-23146979D01*
X1614024Y-23124500D01*
X1501988Y-23124500D01*
X1418093Y-23146979D01*
X1398943Y-23149500D01*
X1088066Y-23149500D01*
X1068915Y-23146979D01*
X985021Y-23124500D01*
X872985Y-23124500D01*
X789090Y-23146979D01*
X769940Y-23149500D01*
X459063Y-23149500D01*
X439912Y-23146979D01*
X356018Y-23124500D01*
X243982Y-23124500D01*
X160087Y-23146979D01*
X140937Y-23149500D01*
X95734Y-23149500D01*
X65301Y-23152354D01*
X65299Y-23152354D01*
X65295Y-23152355D01*
X-62881Y-23197206D01*
X-62883Y-23197207D01*
X-172146Y-23277846D01*
X-172153Y-23277853D01*
X-252792Y-23387116D01*
X-252793Y-23387118D01*
X-280153Y-23465306D01*
X-317893Y-23507537D01*
X-374441Y-23510712D01*
X-416672Y-23472972D01*
X-419847Y-23465306D01*
X-447206Y-23387118D01*
X-447207Y-23387116D01*
X-527846Y-23277853D01*
X-527853Y-23277846D01*
X-637116Y-23197207D01*
X-637118Y-23197206D01*
X-765295Y-23152355D01*
X-765294Y-23152355D01*
X-765299Y-23152354D01*
X-765301Y-23152354D01*
X-780517Y-23150927D01*
X-795741Y-23149499D01*
X-797468Y-23149419D01*
X-797431Y-23148650D01*
X-831261Y-23139586D01*
X-893767Y-23103498D01*
X-893773Y-23103495D01*
X-1001986Y-23074500D01*
X-1001988Y-23074500D01*
X-1114024Y-23074500D01*
X-1114026Y-23074500D01*
X-1222238Y-23103495D01*
X-1222240Y-23103496D01*
X-1222243Y-23103497D01*
X-1222246Y-23103499D01*
X-1284751Y-23139586D01*
X-1321751Y-23149500D01*
X-1386255Y-23149500D01*
X-1423255Y-23139586D01*
X-1485761Y-23103498D01*
X-1485767Y-23103495D01*
X-1593980Y-23074500D01*
X-1593982Y-23074500D01*
X-1706018Y-23074500D01*
X-1706020Y-23074500D01*
X-1814232Y-23103495D01*
X-1814234Y-23103496D01*
X-1814237Y-23103497D01*
X-1814240Y-23103499D01*
X-1876745Y-23139586D01*
X-1913745Y-23149500D01*
X-2015258Y-23149500D01*
X-2052258Y-23139586D01*
X-2114764Y-23103498D01*
X-2114770Y-23103495D01*
X-2222983Y-23074500D01*
X-2222985Y-23074500D01*
X-2335021Y-23074500D01*
X-2335023Y-23074500D01*
X-2443235Y-23103495D01*
X-2443237Y-23103496D01*
X-2443240Y-23103497D01*
X-2443243Y-23103499D01*
X-2505748Y-23139586D01*
X-2542748Y-23149500D01*
X-2644261Y-23149500D01*
X-2681261Y-23139586D01*
X-2743767Y-23103498D01*
X-2743773Y-23103495D01*
X-2851986Y-23074500D01*
X-2851988Y-23074500D01*
X-2964024Y-23074500D01*
X-2964026Y-23074500D01*
X-3072238Y-23103495D01*
X-3072247Y-23103499D01*
X-3108621Y-23124500D01*
X-3158845Y-23153497D01*
X-3169272Y-23159517D01*
X-3171689Y-23161371D01*
X-3192290Y-23172505D01*
X-3262881Y-23197206D01*
X-3262883Y-23197207D01*
X-3372146Y-23277846D01*
X-3372153Y-23277853D01*
X-3452792Y-23387116D01*
X-3452793Y-23387118D01*
X-3490185Y-23493980D01*
X-3497646Y-23515301D01*
X-3500500Y-23545734D01*
X-3500500Y-24304266D01*
X-3497646Y-24334699D01*
X-3452793Y-24462882D01*
X-3372150Y-24572150D01*
X-3262882Y-24652793D01*
X-3134699Y-24697646D01*
X-3104266Y-24700500D01*
X-3104258Y-24700500D01*
X-795741Y-24700500D01*
X-795734Y-24700500D01*
X-765301Y-24697646D01*
X-637118Y-24652793D01*
X-637116Y-24652792D01*
X-527853Y-24572153D01*
X-527846Y-24572146D01*
X-447207Y-24462883D01*
X-447206Y-24462881D01*
X-419847Y-24384693D01*
X-382107Y-24342462D01*
X-325559Y-24339287D01*
X-283328Y-24377027D01*
X-280153Y-24384693D01*
X-272690Y-24406020D01*
X-252793Y-24462882D01*
X-172150Y-24572150D01*
X-172146Y-24572152D01*
X-172146Y-24572153D01*
X-78916Y-24640960D01*
X-49685Y-24689471D01*
X-63318Y-24744442D01*
X-111829Y-24773673D01*
X-122858Y-24774500D01*
X-206020Y-24774500D01*
X-314232Y-24803495D01*
X-314241Y-24803499D01*
X-375013Y-24838586D01*
X-411263Y-24859515D01*
X-490485Y-24938737D01*
X-546503Y-25035763D01*
X-563247Y-25098255D01*
X-575499Y-25143979D01*
X-575500Y-25143980D01*
X-575500Y-25256020D01*
X-570548Y-25274499D01*
X-546503Y-25364237D01*
X-490485Y-25461263D01*
X-411263Y-25540485D01*
X-314237Y-25596503D01*
X-247980Y-25614256D01*
X-203048Y-25648734D01*
X-195655Y-25704886D01*
X-214808Y-25738060D01*
X-290485Y-25813737D01*
X-346503Y-25910763D01*
X-373865Y-26012882D01*
X-375499Y-26018979D01*
X-375500Y-26018980D01*
X-375500Y-26131020D01*
X-357754Y-26197246D01*
X-346503Y-26239237D01*
X-290485Y-26336263D01*
X-211263Y-26415485D01*
X-210031Y-26416196D01*
X-209593Y-26416766D01*
X-207416Y-26418437D01*
X-207863Y-26419020D01*
X-199465Y-26429964D01*
X-185125Y-26439738D01*
X-182884Y-26451571D01*
X-175551Y-26461127D01*
X-177815Y-26478335D01*
X-174587Y-26495386D01*
X-181276Y-26504631D01*
X-182941Y-26517280D01*
X-206484Y-26542187D01*
X-208224Y-26543326D01*
X-236263Y-26559515D01*
X-242570Y-26565822D01*
X-248956Y-26570005D01*
X-269851Y-26573961D01*
X-289501Y-26582101D01*
X-296821Y-26579069D01*
X-304604Y-26580543D01*
X-322168Y-26568571D01*
X-338412Y-26561844D01*
X-338891Y-26562468D01*
X-341217Y-26560682D01*
X-341821Y-26560433D01*
X-342737Y-26559516D01*
X-439761Y-26503499D01*
X-439770Y-26503495D01*
X-547983Y-26474500D01*
X-547985Y-26474500D01*
X-660021Y-26474500D01*
X-660023Y-26474500D01*
X-768235Y-26503495D01*
X-768244Y-26503499D01*
X-865266Y-26559515D01*
X-876677Y-26570926D01*
X-929003Y-26592600D01*
X-981329Y-26570926D01*
X-992739Y-26559515D01*
X-1089761Y-26503499D01*
X-1089770Y-26503495D01*
X-1197983Y-26474500D01*
X-1197985Y-26474500D01*
X-1310021Y-26474500D01*
X-1310023Y-26474500D01*
X-1418235Y-26503495D01*
X-1418244Y-26503499D01*
X-1515266Y-26559515D01*
X-1516178Y-26560427D01*
X-1516779Y-26560676D01*
X-1519115Y-26562468D01*
X-1519595Y-26561842D01*
X-1568504Y-26582101D01*
X-1617415Y-26561844D01*
X-1617894Y-26562468D01*
X-1620220Y-26560682D01*
X-1620824Y-26560433D01*
X-1621740Y-26559516D01*
X-1718764Y-26503499D01*
X-1718773Y-26503495D01*
X-1826986Y-26474500D01*
X-1826988Y-26474500D01*
X-1939024Y-26474500D01*
X-1939026Y-26474500D01*
X-2047238Y-26503495D01*
X-2047247Y-26503499D01*
X-2144269Y-26559515D01*
X-2151677Y-26566923D01*
X-2204003Y-26588597D01*
X-2256329Y-26566923D01*
X-2263736Y-26559515D01*
X-2360758Y-26503499D01*
X-2360767Y-26503495D01*
X-2468980Y-26474500D01*
X-2468982Y-26474500D01*
X-2581018Y-26474500D01*
X-2581020Y-26474500D01*
X-2689232Y-26503495D01*
X-2689241Y-26503499D01*
X-2786263Y-26559515D01*
X-2787175Y-26560427D01*
X-2787776Y-26560676D01*
X-2790112Y-26562468D01*
X-2790592Y-26561842D01*
X-2839501Y-26582101D01*
X-2888412Y-26561844D01*
X-2888891Y-26562468D01*
X-2891217Y-26560682D01*
X-2891821Y-26560433D01*
X-2892737Y-26559516D01*
X-2989761Y-26503499D01*
X-2989770Y-26503495D01*
X-3097983Y-26474500D01*
X-3097985Y-26474500D01*
X-3210021Y-26474500D01*
X-3210023Y-26474500D01*
X-3318235Y-26503495D01*
X-3318244Y-26503499D01*
X-3415266Y-26559515D01*
X-3426677Y-26570926D01*
X-3479003Y-26592600D01*
X-3531329Y-26570926D01*
X-3542739Y-26559515D01*
X-3639761Y-26503499D01*
X-3639770Y-26503495D01*
X-3747983Y-26474500D01*
X-3747985Y-26474500D01*
X-3860021Y-26474500D01*
X-3860023Y-26474500D01*
X-3968235Y-26503495D01*
X-3968244Y-26503499D01*
X-4065266Y-26559515D01*
X-4066178Y-26560427D01*
X-4066779Y-26560676D01*
X-4069115Y-26562468D01*
X-4069595Y-26561842D01*
X-4118504Y-26582101D01*
X-4167415Y-26561844D01*
X-4167894Y-26562468D01*
X-4170220Y-26560682D01*
X-4170824Y-26560433D01*
X-4171740Y-26559516D01*
X-4268764Y-26503499D01*
X-4268773Y-26503495D01*
X-4376986Y-26474500D01*
X-4376988Y-26474500D01*
X-4489024Y-26474500D01*
X-4489026Y-26474500D01*
X-4597238Y-26503495D01*
X-4597247Y-26503499D01*
X-4694269Y-26559515D01*
X-4701677Y-26566923D01*
X-4754003Y-26588597D01*
X-4806329Y-26566923D01*
X-4813736Y-26559515D01*
X-4910758Y-26503499D01*
X-4910767Y-26503495D01*
X-5018980Y-26474500D01*
X-5018982Y-26474500D01*
X-5131018Y-26474500D01*
X-5131020Y-26474500D01*
X-5239232Y-26503495D01*
X-5239241Y-26503499D01*
X-5336263Y-26559515D01*
X-5337175Y-26560427D01*
X-5337776Y-26560676D01*
X-5340112Y-26562468D01*
X-5340592Y-26561842D01*
X-5389501Y-26582101D01*
X-5438412Y-26561844D01*
X-5438891Y-26562468D01*
X-5441217Y-26560682D01*
X-5441821Y-26560433D01*
X-5442737Y-26559516D01*
X-5539761Y-26503499D01*
X-5539770Y-26503495D01*
X-5647983Y-26474500D01*
X-5647985Y-26474500D01*
X-5760021Y-26474500D01*
X-5760023Y-26474500D01*
X-5868235Y-26503495D01*
X-5868244Y-26503499D01*
X-5965266Y-26559515D01*
X-5976677Y-26570926D01*
X-6029003Y-26592600D01*
X-6081329Y-26570926D01*
X-6092739Y-26559515D01*
X-6189761Y-26503499D01*
X-6189770Y-26503495D01*
X-6297983Y-26474500D01*
X-6297985Y-26474500D01*
X-6410021Y-26474500D01*
X-6410023Y-26474500D01*
X-6518235Y-26503495D01*
X-6518244Y-26503499D01*
X-6615266Y-26559515D01*
X-6616178Y-26560427D01*
X-6616779Y-26560676D01*
X-6619115Y-26562468D01*
X-6619595Y-26561842D01*
X-6668504Y-26582101D01*
X-6717415Y-26561844D01*
X-6717894Y-26562468D01*
X-6720220Y-26560682D01*
X-6720824Y-26560433D01*
X-6721740Y-26559516D01*
X-6818764Y-26503499D01*
X-6818773Y-26503495D01*
X-6926986Y-26474500D01*
X-6926988Y-26474500D01*
X-7039024Y-26474500D01*
X-7039026Y-26474500D01*
X-7147238Y-26503495D01*
X-7147247Y-26503499D01*
X-7244269Y-26559515D01*
X-7251677Y-26566923D01*
X-7304003Y-26588597D01*
X-7356329Y-26566923D01*
X-7363736Y-26559515D01*
X-7460758Y-26503499D01*
X-7460767Y-26503495D01*
X-7568980Y-26474500D01*
X-7568982Y-26474500D01*
X-7681018Y-26474500D01*
X-7681020Y-26474500D01*
X-7789232Y-26503495D01*
X-7789241Y-26503499D01*
X-7886263Y-26559515D01*
X-7887175Y-26560427D01*
X-7887776Y-26560676D01*
X-7890112Y-26562468D01*
X-7890592Y-26561842D01*
X-7939501Y-26582101D01*
X-7980591Y-26569644D01*
X-7986668Y-26565586D01*
X-7992740Y-26559515D01*
X-8015080Y-26546616D01*
X-8017090Y-26545275D01*
X-8031592Y-26523588D01*
X-8047479Y-26502884D01*
X-8047979Y-26499082D01*
X-8048573Y-26498195D01*
X-8048286Y-26496750D01*
X-8050000Y-26483732D01*
X-8050000Y-26276602D01*
X-8028326Y-26224276D01*
X-7976000Y-26202602D01*
X-7951559Y-26206754D01*
X-7834699Y-26247646D01*
X-7804266Y-26250500D01*
X-7804258Y-26250500D01*
X-7195741Y-26250500D01*
X-7195734Y-26250500D01*
X-7165301Y-26247646D01*
X-7037118Y-26202793D01*
X-7037116Y-26202792D01*
X-6927853Y-26122153D01*
X-6927846Y-26122146D01*
X-6847207Y-26012883D01*
X-6847206Y-26012881D01*
X-6802355Y-25884704D01*
X-6802354Y-25884701D01*
X-6802354Y-25884699D01*
X-6799500Y-25854266D01*
X-6799500Y-24795734D01*
X-6802354Y-24765301D01*
X-6802355Y-24765296D01*
X-6802356Y-24765292D01*
X-6847206Y-24637119D01*
X-6885040Y-24585856D01*
X-6899500Y-24541913D01*
X-6899500Y-24108086D01*
X-6885040Y-24064143D01*
X-6860252Y-24030557D01*
X-6811741Y-24001326D01*
X-6800712Y-24000500D01*
X-6120941Y-24000500D01*
X-6120940Y-24000499D01*
X-5968216Y-23959577D01*
X-5831284Y-23880520D01*
X-5719480Y-23768716D01*
X-5640423Y-23631784D01*
X-5640422Y-23631781D01*
X-5640421Y-23631779D01*
X-5599500Y-23479059D01*
X-5599500Y-23320940D01*
X-5640421Y-23168220D01*
X-5640424Y-23168214D01*
X-5719480Y-23031283D01*
X-5831283Y-22919480D01*
X-5968214Y-22840424D01*
X-5968220Y-22840421D01*
X-6120941Y-22799500D01*
X-6120943Y-22799500D01*
X-6737881Y-22799500D01*
X-6790207Y-22777826D01*
X-6807728Y-22749941D01*
X-6847206Y-22637118D01*
X-6847207Y-22637116D01*
X-6927846Y-22527853D01*
X-6927853Y-22527846D01*
X-7037116Y-22447207D01*
X-7037118Y-22447206D01*
X-7165295Y-22402355D01*
X-7165294Y-22402355D01*
X-7165299Y-22402354D01*
X-7165301Y-22402354D01*
X-7195734Y-22399500D01*
X-7804266Y-22399500D01*
X-7834699Y-22402354D01*
X-7834701Y-22402354D01*
X-7834704Y-22402355D01*
X-7951559Y-22443244D01*
X-8008108Y-22440069D01*
X-8045847Y-22397838D01*
X-8050000Y-22373397D01*
X-8050000Y-21943979D01*
X1524500Y-21943979D01*
X1524500Y-22056020D01*
X1553495Y-22164232D01*
X1553496Y-22164235D01*
X1553497Y-22164237D01*
X1609515Y-22261263D01*
X1688737Y-22340485D01*
X1785763Y-22396503D01*
X1893979Y-22425499D01*
X1893980Y-22425500D01*
X1893982Y-22425500D01*
X2006020Y-22425500D01*
X2006020Y-22425499D01*
X2114237Y-22396503D01*
X2184139Y-22356144D01*
X2211260Y-22340487D01*
X2211260Y-22340486D01*
X2211263Y-22340485D01*
X2212170Y-22339577D01*
X2212769Y-22339328D01*
X2215109Y-22337534D01*
X2215589Y-22338160D01*
X2264492Y-22317898D01*
X2313413Y-22338154D01*
X2313891Y-22337532D01*
X2316214Y-22339314D01*
X2316821Y-22339566D01*
X2317740Y-22340485D01*
X2414766Y-22396503D01*
X2522982Y-22425499D01*
X2522983Y-22425500D01*
X2522985Y-22425500D01*
X2635023Y-22425500D01*
X2635023Y-22425499D01*
X2743240Y-22396503D01*
X2813142Y-22356144D01*
X2840263Y-22340487D01*
X2840263Y-22340486D01*
X2840266Y-22340485D01*
X2841173Y-22339577D01*
X2841772Y-22339328D01*
X2844112Y-22337534D01*
X2844592Y-22338160D01*
X2893495Y-22317898D01*
X2942416Y-22338154D01*
X2942894Y-22337532D01*
X2945217Y-22339314D01*
X2945824Y-22339566D01*
X2946743Y-22340485D01*
X3043769Y-22396503D01*
X3151985Y-22425499D01*
X3151986Y-22425500D01*
X3151988Y-22425500D01*
X3264026Y-22425500D01*
X3264026Y-22425499D01*
X3372243Y-22396503D01*
X3467003Y-22341792D01*
X3523155Y-22334400D01*
X3541001Y-22341792D01*
X3635763Y-22396503D01*
X3743979Y-22425499D01*
X3743980Y-22425500D01*
X3743982Y-22425500D01*
X3856020Y-22425500D01*
X3856020Y-22425499D01*
X3964237Y-22396503D01*
X4061263Y-22340485D01*
X4140485Y-22261263D01*
X4196503Y-22164237D01*
X4225499Y-22056020D01*
X4225500Y-22056020D01*
X4225500Y-21943980D01*
X4225499Y-21943979D01*
X4196504Y-21835767D01*
X4196503Y-21835763D01*
X4140485Y-21738737D01*
X4061263Y-21659515D01*
X4058996Y-21658206D01*
X3964241Y-21603499D01*
X3964232Y-21603495D01*
X3856020Y-21574500D01*
X3856018Y-21574500D01*
X3743982Y-21574500D01*
X3743980Y-21574500D01*
X3635767Y-21603495D01*
X3635758Y-21603499D01*
X3541003Y-21658206D01*
X3484850Y-21665598D01*
X3467003Y-21658206D01*
X3372247Y-21603499D01*
X3372238Y-21603495D01*
X3264026Y-21574500D01*
X3264024Y-21574500D01*
X3151988Y-21574500D01*
X3151986Y-21574500D01*
X3043773Y-21603495D01*
X3043764Y-21603499D01*
X2946740Y-21659516D01*
X2945824Y-21660433D01*
X2945220Y-21660682D01*
X2942894Y-21662468D01*
X2942415Y-21661844D01*
X2893495Y-21682101D01*
X2844594Y-21661842D01*
X2844115Y-21662468D01*
X2841780Y-21660676D01*
X2841178Y-21660427D01*
X2840266Y-21659515D01*
X2743244Y-21603499D01*
X2743235Y-21603495D01*
X2635023Y-21574500D01*
X2635021Y-21574500D01*
X2522985Y-21574500D01*
X2522983Y-21574500D01*
X2414770Y-21603495D01*
X2414761Y-21603499D01*
X2317737Y-21659516D01*
X2316821Y-21660433D01*
X2316217Y-21660682D01*
X2313891Y-21662468D01*
X2313412Y-21661844D01*
X2264492Y-21682101D01*
X2215591Y-21661842D01*
X2215112Y-21662468D01*
X2212777Y-21660676D01*
X2212175Y-21660427D01*
X2211263Y-21659515D01*
X2114241Y-21603499D01*
X2114232Y-21603495D01*
X2006020Y-21574500D01*
X2006018Y-21574500D01*
X1893982Y-21574500D01*
X1893980Y-21574500D01*
X1785767Y-21603495D01*
X1785758Y-21603499D01*
X1688736Y-21659515D01*
X1609515Y-21738736D01*
X1553499Y-21835758D01*
X1553495Y-21835767D01*
X1524500Y-21943979D01*
X-8050000Y-21943979D01*
X-8050000Y-16049000D01*
X-8028326Y-15996674D01*
X-7976000Y-15975000D01*
X-6633012Y-15975000D01*
X-6580686Y-15996674D01*
G37*
%TD.AperFunction*%
%TD*%
M02*
