%TF.GenerationSoftware,KiCad,Pcbnew,8.99.0-3376-g16cbb218c6*%
%TF.CreationDate,2024-12-27T08:14:29+01:00*%
%TF.ProjectId,PoE_Ethernet_GPIB_Adapter,506f455f-4574-4686-9572-6e65745f4750,rev?*%
%TF.SameCoordinates,Original*%
%TF.FileFunction,Paste,Top*%
%TF.FilePolarity,Positive*%
%FSLAX46Y46*%
G04 Gerber Fmt 4.6, Leading zero omitted, Abs format (unit mm)*
G04 Created by KiCad (PCBNEW 8.99.0-3376-g16cbb218c6) date 2024-12-27 08:14:29*
%MOMM*%
%LPD*%
G01*
G04 APERTURE LIST*
G04 Aperture macros list*
%AMRoundRect*
0 Rectangle with rounded corners*
0 $1 Rounding radius*
0 $2 $3 $4 $5 $6 $7 $8 $9 X,Y pos of 4 corners*
0 Add a 4 corners polygon primitive as box body*
4,1,4,$2,$3,$4,$5,$6,$7,$8,$9,$2,$3,0*
0 Add four circle primitives for the rounded corners*
1,1,$1+$1,$2,$3*
1,1,$1+$1,$4,$5*
1,1,$1+$1,$6,$7*
1,1,$1+$1,$8,$9*
0 Add four rect primitives between the rounded corners*
20,1,$1+$1,$2,$3,$4,$5,0*
20,1,$1+$1,$4,$5,$6,$7,0*
20,1,$1+$1,$6,$7,$8,$9,0*
20,1,$1+$1,$8,$9,$2,$3,0*%
%AMFreePoly0*
4,1,9,3.862500,-0.866500,0.737500,-0.866500,0.737500,-0.450000,-0.737500,-0.450000,-0.737500,0.450000,0.737500,0.450000,0.737500,0.866500,3.862500,0.866500,3.862500,-0.866500,3.862500,-0.866500,$1*%
G04 Aperture macros list end*
%ADD10RoundRect,0.075000X0.075000X-0.662500X0.075000X0.662500X-0.075000X0.662500X-0.075000X-0.662500X0*%
%ADD11RoundRect,0.075000X0.662500X-0.075000X0.662500X0.075000X-0.662500X0.075000X-0.662500X-0.075000X0*%
%ADD12RoundRect,0.135000X0.185000X-0.135000X0.185000X0.135000X-0.185000X0.135000X-0.185000X-0.135000X0*%
%ADD13RoundRect,0.150000X-0.425000X0.150000X-0.425000X-0.150000X0.425000X-0.150000X0.425000X0.150000X0*%
%ADD14RoundRect,0.075000X-0.500000X0.075000X-0.500000X-0.075000X0.500000X-0.075000X0.500000X0.075000X0*%
%ADD15O,2.100000X1.000000*%
%ADD16O,1.800000X1.000000*%
%ADD17R,0.780000X0.550000*%
%ADD18R,0.340000X0.550000*%
%ADD19RoundRect,0.135000X-0.135000X-0.185000X0.135000X-0.185000X0.135000X0.185000X-0.135000X0.185000X0*%
%ADD20RoundRect,0.140000X0.170000X-0.140000X0.170000X0.140000X-0.170000X0.140000X-0.170000X-0.140000X0*%
%ADD21RoundRect,0.135000X0.135000X0.185000X-0.135000X0.185000X-0.135000X-0.185000X0.135000X-0.185000X0*%
%ADD22R,1.000000X0.800000*%
%ADD23RoundRect,0.218750X-0.256250X0.218750X-0.256250X-0.218750X0.256250X-0.218750X0.256250X0.218750X0*%
%ADD24RoundRect,0.140000X0.140000X0.170000X-0.140000X0.170000X-0.140000X-0.170000X0.140000X-0.170000X0*%
%ADD25RoundRect,0.075000X-0.662500X-0.075000X0.662500X-0.075000X0.662500X0.075000X-0.662500X0.075000X0*%
%ADD26RoundRect,0.075000X-0.075000X-0.662500X0.075000X-0.662500X0.075000X0.662500X-0.075000X0.662500X0*%
%ADD27RoundRect,0.250000X-0.475000X0.250000X-0.475000X-0.250000X0.475000X-0.250000X0.475000X0.250000X0*%
%ADD28RoundRect,0.100000X-0.225000X-0.100000X0.225000X-0.100000X0.225000X0.100000X-0.225000X0.100000X0*%
%ADD29RoundRect,0.250000X0.550000X-1.250000X0.550000X1.250000X-0.550000X1.250000X-0.550000X-1.250000X0*%
%ADD30RoundRect,0.112500X-0.187500X-0.112500X0.187500X-0.112500X0.187500X0.112500X-0.187500X0.112500X0*%
%ADD31RoundRect,0.250000X0.250000X0.475000X-0.250000X0.475000X-0.250000X-0.475000X0.250000X-0.475000X0*%
%ADD32RoundRect,0.100000X-0.100000X0.225000X-0.100000X-0.225000X0.100000X-0.225000X0.100000X0.225000X0*%
%ADD33RoundRect,0.200000X0.275000X-0.200000X0.275000X0.200000X-0.275000X0.200000X-0.275000X-0.200000X0*%
%ADD34RoundRect,0.150000X0.825000X0.150000X-0.825000X0.150000X-0.825000X-0.150000X0.825000X-0.150000X0*%
%ADD35RoundRect,0.140000X-0.140000X-0.170000X0.140000X-0.170000X0.140000X0.170000X-0.140000X0.170000X0*%
%ADD36RoundRect,0.140000X-0.170000X0.140000X-0.170000X-0.140000X0.170000X-0.140000X0.170000X0.140000X0*%
%ADD37RoundRect,0.087500X-0.725000X-0.087500X0.725000X-0.087500X0.725000X0.087500X-0.725000X0.087500X0*%
%ADD38R,0.800000X0.300000*%
%ADD39RoundRect,0.200000X-0.405000X0.200000X-0.405000X-0.200000X0.405000X-0.200000X0.405000X0.200000X0*%
%ADD40RoundRect,0.075000X-0.075000X0.362500X-0.075000X-0.362500X0.075000X-0.362500X0.075000X0.362500X0*%
%ADD41RoundRect,0.112500X-0.112500X0.187500X-0.112500X-0.187500X0.112500X-0.187500X0.112500X0.187500X0*%
%ADD42RoundRect,0.250000X-0.950000X-0.500000X0.950000X-0.500000X0.950000X0.500000X-0.950000X0.500000X0*%
%ADD43RoundRect,0.250000X-0.275000X-0.500000X0.275000X-0.500000X0.275000X0.500000X-0.275000X0.500000X0*%
%ADD44RoundRect,0.225000X0.250000X-0.225000X0.250000X0.225000X-0.250000X0.225000X-0.250000X-0.225000X0*%
%ADD45R,4.000000X1.500000*%
%ADD46R,1.150000X1.000000*%
%ADD47RoundRect,0.250000X0.300000X-0.750000X0.300000X0.750000X-0.300000X0.750000X-0.300000X-0.750000X0*%
%ADD48RoundRect,0.200000X0.350000X-0.200000X0.350000X0.200000X-0.350000X0.200000X-0.350000X-0.200000X0*%
%ADD49RoundRect,0.250000X-0.650000X1.000000X-0.650000X-1.000000X0.650000X-1.000000X0.650000X1.000000X0*%
%ADD50RoundRect,0.060000X1.365000X-0.540000X1.365000X0.540000X-1.365000X0.540000X-1.365000X-0.540000X0*%
%ADD51R,0.600000X0.200000*%
%ADD52RoundRect,0.250000X-0.325000X-0.650000X0.325000X-0.650000X0.325000X0.650000X-0.325000X0.650000X0*%
%ADD53RoundRect,0.093750X-0.156250X-0.093750X0.156250X-0.093750X0.156250X0.093750X-0.156250X0.093750X0*%
%ADD54RoundRect,0.075000X-0.250000X-0.075000X0.250000X-0.075000X0.250000X0.075000X-0.250000X0.075000X0*%
%ADD55RoundRect,0.175000X0.175000X0.325000X-0.175000X0.325000X-0.175000X-0.325000X0.175000X-0.325000X0*%
%ADD56RoundRect,0.150000X0.200000X0.150000X-0.200000X0.150000X-0.200000X-0.150000X0.200000X-0.150000X0*%
%ADD57RoundRect,0.135000X-0.185000X0.135000X-0.185000X-0.135000X0.185000X-0.135000X0.185000X0.135000X0*%
%ADD58RoundRect,0.200000X0.200000X0.275000X-0.200000X0.275000X-0.200000X-0.275000X0.200000X-0.275000X0*%
%ADD59RoundRect,0.250000X-0.450000X0.262500X-0.450000X-0.262500X0.450000X-0.262500X0.450000X0.262500X0*%
%ADD60RoundRect,0.225000X0.225000X-0.425000X0.225000X0.425000X-0.225000X0.425000X-0.225000X-0.425000X0*%
%ADD61FreePoly0,90.000000*%
%ADD62RoundRect,0.250000X-0.300000X-0.300000X0.300000X-0.300000X0.300000X0.300000X-0.300000X0.300000X0*%
%ADD63RoundRect,0.250000X1.000000X0.650000X-1.000000X0.650000X-1.000000X-0.650000X1.000000X-0.650000X0*%
%ADD64RoundRect,0.150000X0.587500X0.150000X-0.587500X0.150000X-0.587500X-0.150000X0.587500X-0.150000X0*%
%ADD65RoundRect,0.250000X-1.100000X0.325000X-1.100000X-0.325000X1.100000X-0.325000X1.100000X0.325000X0*%
G04 APERTURE END LIST*
D10*
%TO.C,U3*%
X-14700000Y6087500D03*
X-14200000Y6087500D03*
X-13700000Y6087500D03*
X-13200000Y6087500D03*
X-12700000Y6087500D03*
X-12200000Y6087500D03*
X-11700000Y6087500D03*
X-11200000Y6087500D03*
X-10700000Y6087500D03*
X-10200000Y6087500D03*
X-9700000Y6087500D03*
X-9200000Y6087500D03*
D11*
X-7787500Y7500000D03*
X-7787500Y8000000D03*
X-7787500Y8500000D03*
X-7787500Y9000000D03*
X-7787500Y9500000D03*
X-7787500Y10000000D03*
X-7787500Y10500000D03*
X-7787500Y11000000D03*
X-7787500Y11500000D03*
X-7787500Y12000000D03*
X-7787500Y12500000D03*
X-7787500Y13000000D03*
D10*
X-9200000Y14412500D03*
X-9700000Y14412500D03*
X-10200000Y14412500D03*
X-10700000Y14412500D03*
X-11200000Y14412500D03*
X-11700000Y14412500D03*
X-12200000Y14412500D03*
X-12700000Y14412500D03*
X-13200000Y14412500D03*
X-13700000Y14412500D03*
X-14200000Y14412500D03*
X-14700000Y14412500D03*
D11*
X-16112500Y13000000D03*
X-16112500Y12500000D03*
X-16112500Y12000000D03*
X-16112500Y11500000D03*
X-16112500Y11000000D03*
X-16112500Y10500000D03*
X-16112500Y10000000D03*
X-16112500Y9500000D03*
X-16112500Y9000000D03*
X-16112500Y8500000D03*
X-16112500Y8000000D03*
X-16112500Y7500000D03*
%TD*%
D12*
%TO.C,R32*%
X-16199998Y3590000D03*
X-16199998Y4610000D03*
%TD*%
D13*
%TO.C,J3*%
X-24345000Y24125000D03*
X-24345000Y23325000D03*
D14*
X-24345000Y22175000D03*
X-24345000Y21175000D03*
X-24345000Y20675000D03*
X-24345000Y19675000D03*
D13*
X-24345000Y18525000D03*
X-24345000Y17725000D03*
X-24345000Y17725000D03*
X-24345000Y18525000D03*
D14*
X-24345000Y19175000D03*
X-24345000Y20175000D03*
X-24345000Y21675000D03*
X-24345000Y22675000D03*
D13*
X-24345000Y23325000D03*
X-24345000Y24125000D03*
D15*
X-24920000Y25245000D03*
D16*
X-29100000Y25245000D03*
D15*
X-24920000Y16605000D03*
D16*
X-29100000Y16605000D03*
%TD*%
D17*
%TO.C,D5*%
X-30037500Y4827500D03*
D18*
X-29817500Y3827500D03*
X-29817500Y2977500D03*
D17*
X-30037500Y1977500D03*
%TD*%
D19*
%TO.C,R19*%
X-28785000Y2300000D03*
X-27765000Y2300000D03*
%TD*%
D20*
%TO.C,C10*%
X-2400000Y24770000D03*
X-2400000Y25730000D03*
%TD*%
D21*
%TO.C,R23*%
X4210000Y12300000D03*
X3190000Y12300000D03*
%TD*%
D22*
%TO.C,D6*%
X-24200000Y-20760000D03*
X-24200000Y-19490000D03*
X-28800000Y-19490000D03*
X-28800000Y-20760000D03*
%TD*%
D12*
%TO.C,R40*%
X-18100000Y3590000D03*
X-18100000Y4610000D03*
%TD*%
D23*
%TO.C,FB1*%
X-17899998Y7687500D03*
X-17899998Y6112500D03*
%TD*%
D24*
%TO.C,C1*%
X980000Y-26150000D03*
X20000Y-26150000D03*
%TD*%
D20*
%TO.C,C31*%
X-10500000Y3620000D03*
X-10500000Y4580000D03*
%TD*%
D25*
%TO.C,U2*%
X3687500Y10650000D03*
X3687500Y10150000D03*
X3687500Y9650000D03*
X3687500Y9150000D03*
X3687500Y8650000D03*
X3687500Y8150000D03*
X3687500Y7650000D03*
X3687500Y7150000D03*
X3687500Y6650000D03*
X3687500Y6150000D03*
X3687500Y5650000D03*
X3687500Y5150000D03*
D26*
X5100000Y3737500D03*
X5600000Y3737500D03*
X6100000Y3737500D03*
X6600000Y3737500D03*
X7100000Y3737500D03*
X7600000Y3737500D03*
X8100000Y3737500D03*
X8600000Y3737500D03*
X9100000Y3737500D03*
X9600000Y3737500D03*
X10100000Y3737500D03*
X10600000Y3737500D03*
D25*
X12012500Y5150000D03*
X12012500Y5650000D03*
X12012500Y6150000D03*
X12012500Y6650000D03*
X12012500Y7150000D03*
X12012500Y7650000D03*
X12012500Y8150000D03*
X12012500Y8650000D03*
X12012500Y9150000D03*
X12012500Y9650000D03*
X12012500Y10150000D03*
X12012500Y10650000D03*
D26*
X10600000Y12062500D03*
X10100000Y12062500D03*
X9600000Y12062500D03*
X9100000Y12062500D03*
X8600000Y12062500D03*
X8100000Y12062500D03*
X7600000Y12062500D03*
X7100000Y12062500D03*
X6600000Y12062500D03*
X6100000Y12062500D03*
X5600000Y12062500D03*
X5100000Y12062500D03*
%TD*%
D27*
%TO.C,C58*%
X10225000Y-16850000D03*
X10225000Y-18750000D03*
%TD*%
D28*
%TO.C,U8*%
X-2450000Y14800000D03*
X-2450000Y14150000D03*
X-2450000Y13500000D03*
X-550000Y13500000D03*
X-550000Y14800000D03*
%TD*%
D19*
%TO.C,R21*%
X-28785000Y3300000D03*
X-27765000Y3300000D03*
%TD*%
D24*
%TO.C,C23*%
X-20320000Y7937500D03*
X-21280000Y7937500D03*
%TD*%
D29*
%TO.C,C61*%
X-2800000Y4550000D03*
X-2800000Y8950000D03*
%TD*%
D24*
%TO.C,C37*%
X-9745000Y15950000D03*
X-10705000Y15950000D03*
%TD*%
D30*
%TO.C,D10*%
X1200000Y-19050000D03*
X3300000Y-19050000D03*
%TD*%
D31*
%TO.C,C57*%
X8350000Y-16900000D03*
X6450000Y-16900000D03*
%TD*%
D32*
%TO.C,Q2*%
X-1150000Y22150000D03*
X-1800000Y22150000D03*
X-2450000Y22150000D03*
X-2450000Y20250000D03*
X-1800000Y20250000D03*
X-1150000Y20250000D03*
%TD*%
D12*
%TO.C,R39*%
X-17149996Y3590000D03*
X-17149996Y4610000D03*
%TD*%
D33*
%TO.C,R51*%
X-8500000Y-6775000D03*
X-8500000Y-5125000D03*
%TD*%
D20*
%TO.C,C24*%
X-4400000Y12020000D03*
X-4400000Y12980000D03*
%TD*%
D34*
%TO.C,U4*%
X5875000Y21495000D03*
X5875000Y22765000D03*
X5875000Y24035000D03*
X5875000Y25305000D03*
X925000Y25305000D03*
X925000Y24035000D03*
X925000Y22765000D03*
X925000Y21495000D03*
%TD*%
D35*
%TO.C,C20*%
X-1880000Y16050000D03*
X-920000Y16050000D03*
%TD*%
D36*
%TO.C,C17*%
X-10649998Y18380000D03*
X-10649998Y17420000D03*
%TD*%
%TO.C,C3*%
X-19700000Y19930000D03*
X-19700000Y18970000D03*
%TD*%
D12*
%TO.C,R24*%
X600000Y13490000D03*
X600000Y14510000D03*
%TD*%
%TO.C,R6*%
X5700000Y-25660000D03*
X5700000Y-24640000D03*
%TD*%
D19*
%TO.C,R5*%
X3740000Y-26000000D03*
X4760000Y-26000000D03*
%TD*%
D36*
%TO.C,C39*%
X-12400000Y2730000D03*
X-12400000Y1770000D03*
%TD*%
D35*
%TO.C,C19*%
X-6530000Y17825000D03*
X-5570000Y17825000D03*
%TD*%
D12*
%TO.C,R38*%
X-14299998Y3290000D03*
X-14299998Y4310000D03*
%TD*%
D19*
%TO.C,R29*%
X-26460000Y1550000D03*
X-25440000Y1550000D03*
%TD*%
D20*
%TO.C,C29*%
X-16900000Y13920000D03*
X-16900000Y14880000D03*
%TD*%
D12*
%TO.C,R34*%
X-12400000Y3590000D03*
X-12400000Y4610000D03*
%TD*%
D37*
%TO.C,U6*%
X-14662500Y22850000D03*
X-14662500Y22350000D03*
X-14662500Y21850000D03*
X-14662500Y21350000D03*
X-14662500Y20850000D03*
X-10437500Y20850000D03*
X-10437500Y21350000D03*
X-10437500Y21850000D03*
X-10437500Y22350000D03*
X-10437500Y22850000D03*
%TD*%
D24*
%TO.C,C5*%
X-7595000Y20100000D03*
X-8555000Y20100000D03*
%TD*%
D19*
%TO.C,R18*%
X-24485000Y11225000D03*
X-23465000Y11225000D03*
%TD*%
%TO.C,R11*%
X-21710000Y21100000D03*
X-20690000Y21100000D03*
%TD*%
D38*
%TO.C,RN1*%
X13575000Y-8625000D03*
X13575000Y-8125000D03*
X13575000Y-7625000D03*
X13575000Y-7125000D03*
X13575000Y-6625000D03*
X13575000Y-6125000D03*
X13575000Y-5625000D03*
X13575000Y-5125000D03*
X11775000Y-5125000D03*
X11775000Y-5625000D03*
X11775000Y-6125000D03*
X11775000Y-6625000D03*
X11775000Y-7125000D03*
X11775000Y-7625000D03*
X11775000Y-8125000D03*
X11775000Y-8625000D03*
%TD*%
D35*
%TO.C,C13*%
X7370000Y13550000D03*
X8330000Y13550000D03*
%TD*%
D21*
%TO.C,R4*%
X2860000Y-26000000D03*
X1840000Y-26000000D03*
%TD*%
D12*
%TO.C,R56*%
X10800000Y16890000D03*
X10800000Y17910000D03*
%TD*%
D35*
%TO.C,C14*%
X920000Y20150000D03*
X1880000Y20150000D03*
%TD*%
D12*
%TO.C,R36*%
X-13349998Y1740000D03*
X-13349998Y2760000D03*
%TD*%
D20*
%TO.C,C63*%
X-13400000Y24920000D03*
X-13400000Y25880000D03*
%TD*%
D39*
%TO.C,U1*%
X3644856Y-22205000D03*
X2144856Y-22205000D03*
X3644856Y-23195000D03*
X2144856Y-23195000D03*
D40*
X4094856Y-20762500D03*
X3294856Y-20762500D03*
X2494856Y-20762500D03*
X1694856Y-20762500D03*
X1694856Y-24637500D03*
X2494856Y-24637500D03*
X3294856Y-24637500D03*
X4094856Y-24637500D03*
%TD*%
D36*
%TO.C,C38*%
X-11450000Y2730000D03*
X-11450000Y1770000D03*
%TD*%
D41*
%TO.C,D4*%
X-6075000Y21375000D03*
X-6075000Y19275000D03*
%TD*%
D20*
%TO.C,C9*%
X-1450000Y24770000D03*
X-1450000Y25730000D03*
%TD*%
D42*
%TO.C,D9*%
X-1100000Y-19450000D03*
D43*
X-3475000Y-19450000D03*
%TD*%
D20*
%TO.C,C2*%
X-19750000Y21070000D03*
X-19750000Y22030000D03*
%TD*%
D44*
%TO.C,C56*%
X-8500000Y-3725000D03*
X-8500000Y-2175000D03*
%TD*%
D21*
%TO.C,R43*%
X-23640000Y-25900000D03*
X-24660000Y-25900000D03*
%TD*%
%TO.C,R16*%
X-3690000Y20000000D03*
X-4710000Y20000000D03*
%TD*%
D45*
%TO.C,L2*%
X-4900000Y-1900000D03*
X-4900000Y1700000D03*
%TD*%
D38*
%TO.C,RN2*%
X13505002Y-2550000D03*
X13505002Y-2050000D03*
X13505002Y-1550000D03*
X13505002Y-1050000D03*
X13505002Y-550000D03*
X13505002Y-50000D03*
X13505002Y450000D03*
X13505002Y950000D03*
X11705002Y950000D03*
X11705002Y450000D03*
X11705002Y-50000D03*
X11705002Y-550000D03*
X11705002Y-1050000D03*
X11705002Y-1550000D03*
X11705002Y-2050000D03*
X11705002Y-2550000D03*
%TD*%
D46*
%TO.C,Y1*%
X-11975000Y18250000D03*
X-13725000Y18250000D03*
X-13725000Y16850000D03*
X-11975000Y16850000D03*
%TD*%
D24*
%TO.C,C27*%
X-17569998Y8900000D03*
X-18529998Y8900000D03*
%TD*%
D21*
%TO.C,R17*%
X2760000Y15450000D03*
X1740000Y15450000D03*
%TD*%
D35*
%TO.C,C16*%
X5370000Y1300000D03*
X6330000Y1300000D03*
%TD*%
D47*
%TO.C,D11*%
X-6800000Y-4850000D03*
D48*
X-6800000Y-6750000D03*
%TD*%
D35*
%TO.C,C21*%
X-5380000Y11100000D03*
X-4420000Y11100000D03*
%TD*%
D49*
%TO.C,D8*%
X-21650000Y-19900000D03*
X-21650000Y-23900000D03*
%TD*%
D28*
%TO.C,U7*%
X-7100000Y16500000D03*
X-7100000Y15850000D03*
X-7100000Y15200000D03*
X-5200000Y15200000D03*
X-5200000Y16500000D03*
%TD*%
D50*
%TO.C,L1*%
X-14725000Y-21250000D03*
X-7375000Y-21250000D03*
X-7375000Y-23750000D03*
X-14725000Y-23750000D03*
%TD*%
D36*
%TO.C,C22*%
X-6300000Y13305000D03*
X-6300000Y12345000D03*
%TD*%
D51*
%TO.C,D2*%
X9502502Y822500D03*
X9502502Y-77500D03*
X9502502Y-877500D03*
X9502502Y-1677500D03*
X9502502Y-2577500D03*
X10452502Y-2177500D03*
X10452502Y-1277500D03*
X10452502Y-477500D03*
X10452502Y422500D03*
%TD*%
D52*
%TO.C,C60*%
X-1275000Y650000D03*
X1675000Y650000D03*
%TD*%
D19*
%TO.C,R20*%
X-28785000Y4300000D03*
X-27765000Y4300000D03*
%TD*%
D36*
%TO.C,C33*%
X-6300000Y10480000D03*
X-6300000Y9520000D03*
%TD*%
D22*
%TO.C,D7*%
X-24200000Y-24260000D03*
X-24200000Y-22990000D03*
X-28800000Y-22990000D03*
X-28800000Y-24260000D03*
%TD*%
D35*
%TO.C,C30*%
X-7955000Y5750000D03*
X-6995000Y5750000D03*
%TD*%
D53*
%TO.C,U5*%
X-18450000Y21137500D03*
D54*
X-18525000Y20600000D03*
D53*
X-18450000Y20062500D03*
X-16750000Y20062500D03*
D54*
X-16675000Y20600000D03*
D53*
X-16750000Y21137500D03*
%TD*%
D55*
%TO.C,U9*%
X-19650000Y9437500D03*
D56*
X-19650000Y11137500D03*
X-21650000Y11137500D03*
X-21650000Y9237500D03*
%TD*%
D35*
%TO.C,C6*%
X-8555000Y19050000D03*
X-7595000Y19050000D03*
%TD*%
D19*
%TO.C,R1*%
X-1160000Y-25200000D03*
X-140000Y-25200000D03*
%TD*%
D57*
%TO.C,R28*%
X-9550000Y4260000D03*
X-9550000Y3240000D03*
%TD*%
D58*
%TO.C,R52*%
X8525000Y-18725000D03*
X6875000Y-18725000D03*
%TD*%
D19*
%TO.C,R22*%
X-13210000Y19550000D03*
X-12190000Y19550000D03*
%TD*%
%TO.C,R10*%
X-21660000Y19900000D03*
X-20640000Y19900000D03*
%TD*%
D35*
%TO.C,C25*%
X-16679998Y5900000D03*
X-15719998Y5900000D03*
%TD*%
D59*
%TO.C,R2*%
X-4550000Y-23037500D03*
X-4550000Y-24862500D03*
%TD*%
D19*
%TO.C,R31*%
X9240000Y13550000D03*
X10260000Y13550000D03*
%TD*%
D20*
%TO.C,C36*%
X-13350000Y3620000D03*
X-13350000Y4580000D03*
%TD*%
D24*
%TO.C,C26*%
X-17569998Y9900000D03*
X-18529998Y9900000D03*
%TD*%
D57*
%TO.C,R15*%
X-4600000Y22160000D03*
X-4600000Y21140000D03*
%TD*%
D12*
%TO.C,R55*%
X11800000Y16890000D03*
X11800000Y17910000D03*
%TD*%
D20*
%TO.C,C64*%
X-12400000Y24920000D03*
X-12400000Y25880000D03*
%TD*%
D21*
%TO.C,R7*%
X4660000Y16450000D03*
X3640000Y16450000D03*
%TD*%
D35*
%TO.C,C4*%
X-8855000Y23325000D03*
X-7895000Y23325000D03*
%TD*%
D19*
%TO.C,R3*%
X-3060000Y-25200000D03*
X-2040000Y-25200000D03*
%TD*%
D36*
%TO.C,C34*%
X-5350000Y12980000D03*
X-5350000Y12020000D03*
%TD*%
D21*
%TO.C,R13*%
X-20690000Y22200000D03*
X-21710000Y22200000D03*
%TD*%
%TO.C,R14*%
X-20640000Y18750000D03*
X-21660000Y18750000D03*
%TD*%
D12*
%TO.C,R37*%
X-10499998Y1740000D03*
X-10499998Y2760000D03*
%TD*%
%TO.C,R27*%
X-4050000Y15340000D03*
X-4050000Y16360000D03*
%TD*%
D20*
%TO.C,C18*%
X-15049998Y17420000D03*
X-15049998Y18380000D03*
%TD*%
D60*
%TO.C,U10*%
X-21412500Y13900000D03*
D61*
X-19912500Y13987500D03*
D60*
X-18412500Y13900000D03*
%TD*%
D19*
%TO.C,R30*%
X-24210000Y1550000D03*
X-23190000Y1550000D03*
%TD*%
D12*
%TO.C,R54*%
X5300000Y18590000D03*
X5300000Y19610000D03*
%TD*%
D51*
%TO.C,D1*%
X9572500Y-5152500D03*
X9572500Y-6052500D03*
X9572500Y-6852500D03*
X9572500Y-7652500D03*
X9572500Y-8552500D03*
X10522500Y-8152500D03*
X10522500Y-7252500D03*
X10522500Y-6452500D03*
X10522500Y-5552500D03*
%TD*%
D52*
%TO.C,C59*%
X-5075000Y-4050000D03*
X-2125000Y-4050000D03*
%TD*%
D20*
%TO.C,C41*%
X-18100000Y1770000D03*
X-18100000Y2730000D03*
%TD*%
%TO.C,C32*%
X-6300000Y7670000D03*
X-6300000Y8630000D03*
%TD*%
D62*
%TO.C,D12*%
X-1300000Y-1700000D03*
X1500000Y-1700000D03*
%TD*%
D21*
%TO.C,R25*%
X2210000Y10190000D03*
X1190000Y10190000D03*
%TD*%
%TO.C,R42*%
X-7565000Y22050000D03*
X-8585000Y22050000D03*
%TD*%
D24*
%TO.C,C11*%
X6330000Y2250000D03*
X5370000Y2250000D03*
%TD*%
%TO.C,C28*%
X-20732500Y12500000D03*
X-21692500Y12500000D03*
%TD*%
D63*
%TO.C,D3*%
X-17325000Y24800000D03*
X-21325000Y24800000D03*
%TD*%
D19*
%TO.C,R41*%
X-8585000Y21100000D03*
X-7565000Y21100000D03*
%TD*%
D20*
%TO.C,C8*%
X-7400000Y24820000D03*
X-7400000Y25780000D03*
%TD*%
D24*
%TO.C,C7*%
X-17520000Y22475000D03*
X-18480000Y22475000D03*
%TD*%
D12*
%TO.C,R35*%
X-11450000Y3590000D03*
X-11450000Y4610000D03*
%TD*%
D21*
%TO.C,R12*%
X-9740000Y19575000D03*
X-10760000Y19575000D03*
%TD*%
%TO.C,R26*%
X2210000Y9190000D03*
X1190000Y9190000D03*
%TD*%
D12*
%TO.C,R53*%
X6800000Y18590000D03*
X6800000Y19610000D03*
%TD*%
D19*
%TO.C,R45*%
X-22760000Y-25900000D03*
X-21740000Y-25900000D03*
%TD*%
D12*
%TO.C,R33*%
X-15249998Y3590000D03*
X-15249998Y4610000D03*
%TD*%
D35*
%TO.C,C62*%
X9270000Y14500000D03*
X10230000Y14500000D03*
%TD*%
D36*
%TO.C,C12*%
X13500000Y7730000D03*
X13500000Y6770000D03*
%TD*%
D64*
%TO.C,Q1*%
X-3952500Y23650000D03*
X-3952500Y25550000D03*
X-5827500Y24600000D03*
%TD*%
D20*
%TO.C,C35*%
X-8600000Y3620000D03*
X-8600000Y4580000D03*
%TD*%
D65*
%TO.C,C44*%
X-18200000Y-20550000D03*
X-18200000Y-23500000D03*
%TD*%
D36*
%TO.C,C40*%
X-9549998Y2380000D03*
X-9549998Y1420000D03*
%TD*%
D20*
%TO.C,C15*%
X4150000Y2260000D03*
X4150000Y3220000D03*
%TD*%
M02*
