%TF.GenerationSoftware,KiCad,Pcbnew,8.99.0-3376-g16cbb218c6*%
%TF.CreationDate,2024-12-27T08:14:29+01:00*%
%TF.ProjectId,PoE_Ethernet_GPIB_Adapter,506f455f-4574-4686-9572-6e65745f4750,rev?*%
%TF.SameCoordinates,Original*%
%TF.FileFunction,Paste,Bot*%
%TF.FilePolarity,Positive*%
%FSLAX46Y46*%
G04 Gerber Fmt 4.6, Leading zero omitted, Abs format (unit mm)*
G04 Created by KiCad (PCBNEW 8.99.0-3376-g16cbb218c6) date 2024-12-27 08:14:29*
%MOMM*%
%LPD*%
G01*
G04 APERTURE LIST*
G04 Aperture macros list*
%AMRoundRect*
0 Rectangle with rounded corners*
0 $1 Rounding radius*
0 $2 $3 $4 $5 $6 $7 $8 $9 X,Y pos of 4 corners*
0 Add a 4 corners polygon primitive as box body*
4,1,4,$2,$3,$4,$5,$6,$7,$8,$9,$2,$3,0*
0 Add four circle primitives for the rounded corners*
1,1,$1+$1,$2,$3*
1,1,$1+$1,$4,$5*
1,1,$1+$1,$6,$7*
1,1,$1+$1,$8,$9*
0 Add four rect primitives between the rounded corners*
20,1,$1+$1,$2,$3,$4,$5,0*
20,1,$1+$1,$4,$5,$6,$7,0*
20,1,$1+$1,$6,$7,$8,$9,0*
20,1,$1+$1,$8,$9,$2,$3,0*%
G04 Aperture macros list end*
%ADD10RoundRect,0.100000X0.100000X-0.637500X0.100000X0.637500X-0.100000X0.637500X-0.100000X-0.637500X0*%
%ADD11RoundRect,0.250000X-0.250000X-0.475000X0.250000X-0.475000X0.250000X0.475000X-0.250000X0.475000X0*%
%ADD12RoundRect,0.250000X-1.100000X0.325000X-1.100000X-0.325000X1.100000X-0.325000X1.100000X0.325000X0*%
%ADD13RoundRect,0.135000X-0.185000X0.135000X-0.185000X-0.135000X0.185000X-0.135000X0.185000X0.135000X0*%
%ADD14RoundRect,0.200000X-0.275000X0.200000X-0.275000X-0.200000X0.275000X-0.200000X0.275000X0.200000X0*%
%ADD15RoundRect,0.250000X0.250000X0.475000X-0.250000X0.475000X-0.250000X-0.475000X0.250000X-0.475000X0*%
%ADD16RoundRect,0.200000X0.275000X-0.200000X0.275000X0.200000X-0.275000X0.200000X-0.275000X-0.200000X0*%
%ADD17RoundRect,0.135000X0.185000X-0.135000X0.185000X0.135000X-0.185000X0.135000X-0.185000X-0.135000X0*%
%ADD18RoundRect,0.225000X-0.225000X-0.250000X0.225000X-0.250000X0.225000X0.250000X-0.225000X0.250000X0*%
%ADD19RoundRect,0.225000X-0.250000X0.225000X-0.250000X-0.225000X0.250000X-0.225000X0.250000X0.225000X0*%
%ADD20RoundRect,0.250000X0.312500X1.450000X-0.312500X1.450000X-0.312500X-1.450000X0.312500X-1.450000X0*%
%ADD21RoundRect,0.250000X-0.450000X0.262500X-0.450000X-0.262500X0.450000X-0.262500X0.450000X0.262500X0*%
%ADD22RoundRect,0.218750X-0.218750X-0.381250X0.218750X-0.381250X0.218750X0.381250X-0.218750X0.381250X0*%
%ADD23RoundRect,0.200000X-0.200000X-0.275000X0.200000X-0.275000X0.200000X0.275000X-0.200000X0.275000X0*%
G04 APERTURE END LIST*
D10*
%TO.C,U11*%
X-22225000Y-25087500D03*
X-22875000Y-25087500D03*
X-23525000Y-25087500D03*
X-24175000Y-25087500D03*
X-24175000Y-19362500D03*
X-23525000Y-19362500D03*
X-22875000Y-19362500D03*
X-22225000Y-19362500D03*
%TD*%
D11*
%TO.C,C47*%
X-15800000Y-25375000D03*
X-13900000Y-25375000D03*
%TD*%
D12*
%TO.C,C46*%
X1250000Y-20975000D03*
X1250000Y-23925000D03*
%TD*%
D13*
%TO.C,R9*%
X3344856Y-19390000D03*
X3344856Y-20410000D03*
%TD*%
D14*
%TO.C,R47*%
X-12400000Y-19650000D03*
X-12400000Y-21300000D03*
%TD*%
D15*
%TO.C,C51*%
X-7500000Y-21325000D03*
X-9400000Y-21325000D03*
%TD*%
D16*
%TO.C,R48*%
X-10900000Y-25250000D03*
X-10900000Y-23600000D03*
%TD*%
D17*
%TO.C,R44*%
X-20950000Y-25110000D03*
X-20950000Y-24090000D03*
%TD*%
D11*
%TO.C,C48*%
X-15800000Y-19375000D03*
X-13900000Y-19375000D03*
%TD*%
D15*
%TO.C,C50*%
X-7500000Y-19325000D03*
X-9400000Y-19325000D03*
%TD*%
D18*
%TO.C,C55*%
X-2425000Y-19400000D03*
X-875000Y-19400000D03*
%TD*%
D12*
%TO.C,C43*%
X-18200000Y-20550000D03*
X-18200000Y-23500000D03*
%TD*%
D19*
%TO.C,C42*%
X-20700000Y-19150000D03*
X-20700000Y-20700000D03*
%TD*%
D20*
%TO.C,F1*%
X-17187500Y24800000D03*
X-21462500Y24800000D03*
%TD*%
D21*
%TO.C,R8*%
X4800000Y-18887500D03*
X4800000Y-20712500D03*
%TD*%
D15*
%TO.C,C49*%
X-7500000Y-25325000D03*
X-9400000Y-25325000D03*
%TD*%
D22*
%TO.C,FB2*%
X-15662500Y24800000D03*
X-13537500Y24800000D03*
%TD*%
D23*
%TO.C,R50*%
X525000Y-19400000D03*
X2175000Y-19400000D03*
%TD*%
D11*
%TO.C,C54*%
X-15800000Y-21375000D03*
X-13900000Y-21375000D03*
%TD*%
D15*
%TO.C,C52*%
X-7500000Y-23325000D03*
X-9400000Y-23325000D03*
%TD*%
D12*
%TO.C,C45*%
X-1950000Y-20975000D03*
X-1950000Y-23925000D03*
%TD*%
D14*
%TO.C,R49*%
X-10900000Y-19650000D03*
X-10900000Y-21300000D03*
%TD*%
D16*
%TO.C,R46*%
X-12400000Y-25250000D03*
X-12400000Y-23600000D03*
%TD*%
D11*
%TO.C,C53*%
X-15800000Y-23375000D03*
X-13900000Y-23375000D03*
%TD*%
M02*
