M48
; DRILL file {KiCad 8.99.0-3376-g16cbb218c6} date 2024-12-27T08:14:33+0100
; FORMAT={-:-/ absolute / inch / decimal}
; #@! TF.CreationDate,2024-12-27T08:14:33+01:00
; #@! TF.GenerationSoftware,Kicad,Pcbnew,8.99.0-3376-g16cbb218c6
; #@! TF.FileFunction,Plated,1,6,PTH
FMAT,2
INCH
; #@! TA.AperFunction,Plated,PTH,ViaDrill
T1C0.0118
; #@! TA.AperFunction,Plated,PTH,ComponentDrill
T2C0.0236
; #@! TA.AperFunction,Plated,PTH,ComponentDrill
T3C0.0256
; #@! TA.AperFunction,Plated,PTH,ComponentDrill
T4C0.0350
; #@! TA.AperFunction,Plated,PTH,ComponentDrill
T5C0.0394
; #@! TA.AperFunction,Plated,PTH,ComponentDrill
T6C0.0402
; #@! TA.AperFunction,Plated,PTH,ComponentDrill
T7C0.0512
; #@! TA.AperFunction,Plated,PTH,ComponentDrill
T8C0.0669
; #@! TA.AperFunction,Plated,PTH,ComponentDrill
T9C0.1181
%
G90
G05
T1
X-1.2008Y1.063
X-1.2008Y1.0354
X-1.2008Y1.0107
X-1.2008Y0.9851
X-1.2008Y0.9603
X-1.2008Y0.935
X-1.2008Y0.9103
X-1.2008Y0.8847
X-1.2008Y0.8599
X-1.2008Y0.8346
X-1.2008Y0.8099
X-1.2008Y0.7843
X-1.2008Y0.7595
X-1.2008Y0.7343
X-1.2008Y0.7095
X-1.2008Y0.6839
X-1.2008Y0.6591
X-1.2008Y0.6339
X-1.2008Y0.6091
X-1.2008Y0.5835
X-1.2008Y0.5587
X-1.2008Y0.5335
X-1.2008Y0.5087
X-1.2008Y0.4831
X-1.2008Y0.4583
X-1.2008Y0.4331
X-1.2008Y0.4083
X-1.2008Y0.3827
X-1.2008Y0.358
X-1.2008Y0.3327
X-1.2008Y0.3079
X-1.2008Y0.2823
X-1.2008Y0.2576
X-1.2008Y0.2323
X-1.2008Y0.0315
X-1.2008Y0.0067
X-1.2008Y-0.0189
X-1.2008Y-0.0436
X-1.2008Y-0.0689
X-1.2008Y-0.0937
X-1.2008Y-0.1193
X-1.2008Y-0.144
X-1.2008Y-0.1693
X-1.2008Y-0.1941
X-1.2008Y-0.2196
X-1.2008Y-0.2444
X-1.2008Y-0.2697
X-1.2008Y-0.2944
X-1.2008Y-0.32
X-1.2008Y-0.3448
X-1.2008Y-0.3701
X-1.2008Y-0.3948
X-1.2008Y-0.4204
X-1.2008Y-0.4452
X-1.2008Y-0.4713
X-1.2008Y-0.4969
X-1.2008Y-0.5217
X-1.2008Y-0.5469
X-1.2008Y-0.5717
X-1.2008Y-0.5973
X-1.2008Y-0.622
X-1.2008Y-0.6476
X-1.2008Y-0.6732
X-1.2008Y-0.698
X-1.2008Y-0.7234
X-1.2008Y-0.7482
X-1.2008Y-0.7738
X-1.2008Y-0.7994
X-1.2008Y-0.8241
X-1.2008Y-0.8497
X-1.2008Y-0.8745
X-1.2008Y-0.8998
X-1.2008Y-0.9245
X-1.2008Y-0.9505
X-1.2008Y-0.9752
X-1.2008Y-1.0005
X-1.2008Y-1.0253
X-1.2008Y-1.0512
X-1.1783Y-1.0591
X-1.176Y1.063
X-1.1644Y-0.8297
X-1.1535Y-1.0591
X-1.1507Y1.063
X-1.1319Y-0.9547
X-1.128Y-1.0591
X-1.126Y1.063
X-1.107Y-0.7657
X-1.1032Y-1.0591
X-1.1024Y-0.9016
X-1.1004Y1.063
X-1.0779Y-1.0591
X-1.0756Y1.063
X-1.0571Y-0.813
X-1.0571Y-0.8386
X-1.0531Y-1.0591
X-1.0504Y1.063
X-1.0472Y-0.7539
X-1.0276Y-1.0591
X-1.0256Y1.063
X-1.0236Y-0.7539
X-1.0028Y-1.0591
X-1.0Y1.063
X-1.0Y0.061
X-0.9775Y-1.0591
X-0.9752Y1.063
X-0.9685Y-0.8976
X-0.9606Y-0.8169
X-0.9528Y-1.0591
X-0.9508Y-0.9154
X-0.95Y1.063
X-0.935Y-0.8169
X-0.9331Y-0.8996
X-0.9272Y-1.0591
X-0.9262Y-0.9911
X-0.9252Y1.063
X-0.9247Y0.9601
X-0.9222Y1.0039
X-0.9193Y-0.8622
X-0.9169Y0.0694
X-0.9154Y0.1496
X-0.9124Y0.6673
X-0.9114Y0.6339
X-0.9075Y0.9803
X-0.9026Y0.9478
X-0.9024Y-1.0591
X-0.9006Y0.8445
X-0.8996Y1.063
X-0.8996Y0.7884
X-0.8996Y-1.0098
X-0.8957Y0.7077
X-0.8937Y-0.8622
X-0.8907Y0.875
X-0.8868Y1.0039
X-0.8868Y0.9665
X-0.8848Y0.6348
X-0.8839Y0.6663
X-0.8809Y0.7628
X-0.8771Y-1.0591
X-0.8748Y1.063
X-0.8701Y0.9222
X-0.8686Y0.7023
X-0.8543Y0.5571
X-0.8543Y0.5315
X-0.8543Y0.4921
X-0.8524Y0.4385
X-0.8524Y-1.0591
X-0.8496Y1.063
X-0.845Y0.9232
X-0.8376Y0.312
X-0.8337Y0.1348
X-0.8327Y0.1732
X-0.8296Y0.5561
X-0.8296Y0.5319
X-0.8278Y0.0886
X-0.8268Y-1.0591
X-0.8248Y1.063
X-0.8248Y-0.9528
X-0.8228Y-0.7461
X-0.8169Y-0.7677
X-0.814Y0.874
X-0.8129Y-0.8568
X-0.812Y0.7392
X-0.812Y0.3888
X-0.802Y-1.0591
X-0.7992Y1.063
X-0.7992Y0.312
X-0.7874Y0.6772
X-0.7864Y0.6063
X-0.7864Y0.5108
X-0.7864Y0.4862
X-0.7785Y0.1654
X-0.7776Y0.0896
X-0.7767Y-1.0591
X-0.7766Y0.8691
X-0.7756Y0.7461
X-0.7744Y1.063
X-0.7726Y0.3701
X-0.7618Y0.6437
X-0.7579Y-0.8228
X-0.7559Y-0.9114
X-0.752Y-1.0591
X-0.7492Y1.063
X-0.7293Y0.3494
X-0.7283Y0.3898
X-0.7274Y0.8848
X-0.7264Y-1.0591
X-0.7244Y1.063
X-0.7185Y-0.8228
X-0.7185Y-0.9114
X-0.7173Y0.3167
X-0.7146Y0.249
X-0.7126Y0.0689
X-0.7116Y0.1811
X-0.7087Y0.811
X-0.7016Y-1.0591
X-0.6988Y1.063
X-0.6978Y0.7884
X-0.6949Y0.2313
X-0.6909Y0.3907
X-0.69Y0.3504
X-0.689Y0.5472
X-0.6763Y-1.0591
X-0.6752Y0.1811
X-0.6752Y-0.8228
X-0.6752Y-0.9114
X-0.6741Y1.063
X-0.6654Y0.5856
X-0.6644Y0.5472
X-0.6585Y-1.0266
X-0.6575Y0.6644
X-0.6565Y0.2323
X-0.6545Y0.2894
X-0.6516Y-1.0591
X-0.6488Y1.063
X-0.6417Y0.5472
X-0.6319Y0.2864
X-0.626Y-1.0591
X-0.624Y1.063
X-0.6181Y0.2313
X-0.6122Y0.6319
X-0.6102Y-0.9114
X-0.6102Y-0.937
X-0.6083Y0.2884
X-0.6083Y-0.8287
X-0.6083Y-0.8524
X-0.6012Y-1.0591
X-0.5984Y1.063
X-0.5925Y0.7236
X-0.5827Y0.5039
X-0.5827Y0.4646
X-0.5759Y-1.0591
X-0.5737Y1.063
X-0.5669Y0.3583
X-0.563Y0.1693
X-0.5591Y-0.8819
X-0.5512Y-1.0591
X-0.5484Y1.063
X-0.5433Y0.9772
X-0.5413Y0.7185
X-0.5394Y0.2746
X-0.5354Y0.8602
X-0.5354Y-0.8819
X-0.5276Y1.0189
X-0.5276Y0.4055
X-0.5256Y0.1801
X-0.5256Y-1.0591
X-0.5256Y0.0685
X-0.5246Y0.1427
X-0.5236Y1.063
X-0.5236Y0.9764
X-0.5236Y0.3228
X-0.5118Y-0.8819
X-0.5089Y0.502
X-0.5039Y0.9772
X-0.502Y-0.8169
X-0.502Y-0.939
X-0.501Y-1.0591
X-0.498Y1.063
X-0.4951Y0.6575
X-0.4921Y0.3504
X-0.4882Y1.0189
X-0.4843Y0.9772
X-0.4803Y0.5217
X-0.4764Y0.3031
X-0.4764Y-0.939
X-0.4757Y-1.0591
X-0.4744Y-0.8169
X-0.4733Y1.063
X-0.4715Y0.4911
X-0.4705Y0.7165
X-0.4636Y-0.4547
X-0.4626Y0.622
X-0.4587Y-0.502
X-0.4528Y0.3937
X-0.4509Y-1.0591
X-0.448Y1.063
X-0.4449Y-0.4291
X-0.4409Y0.5325
X-0.4409Y-0.8169
X-0.4409Y-0.939
X-0.4331Y0.3583
X-0.4311Y-0.4862
X-0.4254Y-1.0591
X-0.4232Y1.063
X-0.4213Y0.628
X-0.4213Y0.2746
X-0.4183Y0.686
X-0.4154Y-0.8169
X-0.4154Y-0.939
X-0.4134Y0.1801
X-0.4134Y0.1427
X-0.4134Y0.0685
X-0.4016Y0.3228
X-0.4006Y0.5246
X-0.4006Y-1.0591
X-0.3976Y1.063
X-0.3829Y0.628
X-0.3809Y0.6831
X-0.376Y0.127
X-0.376Y0.0935
X-0.3753Y-1.0591
X-0.3729Y1.063
X-0.372Y0.7185
X-0.372Y0.4321
X-0.3691Y0.4636
X-0.3661Y-0.9055
X-0.3661Y-0.935
X-0.3652Y-0.3248
X-0.3652Y-0.3642
X-0.3642Y-0.8228
X-0.3642Y-0.8524
X-0.3632Y0.6565
X-0.3506Y-1.0591
X-0.3476Y1.063
X-0.3415Y0.4921
X-0.3415Y0.3543
X-0.3386Y0.1801
X-0.338Y0.8681
X-0.3376Y0.1417
X-0.3366Y0.7904
X-0.325Y-1.0591
X-0.3228Y1.063
X-0.313Y0.2264
X-0.3108Y0.9183
X-0.3051Y-0.748
X-0.3051Y-0.7756
X-0.3051Y-0.9783
X-0.3051Y-1.0047
X-0.3002Y-1.0591
X-0.299Y0.75
X-0.2982Y0.7904
X-0.2972Y1.063
X-0.2972Y0.8297
X-0.2972Y-0.8228
X-0.2963Y-0.2657
X-0.2953Y0.5591
X-0.2933Y-0.9213
X-0.2913Y1.0148
X-0.2795Y0.6496
X-0.2776Y0.5915
X-0.2749Y-1.0591
X-0.2746Y0.2264
X-0.2725Y1.063
X-0.2697Y-0.8228
X-0.2677Y-0.2657
X-0.2677Y-0.9213
X-0.2638Y0.7864
X-0.2569Y0.7018
X-0.2559Y0.8937
X-0.2541Y0.3633
X-0.2502Y-1.0591
X-0.248Y0.5236
X-0.248Y0.3396
X-0.248Y0.3012
X-0.2472Y1.063
X-0.2441Y-0.8228
X-0.2441Y-0.9213
X-0.2315Y0.412
X-0.2275Y0.8299
X-0.2246Y-1.0591
X-0.2224Y1.063
X-0.2185Y0.7018
X-0.2106Y0.4734
X-0.2096Y0.5098
X-0.1998Y-1.0591
X-0.1969Y1.063
X-0.1854Y0.7874
X-0.1811Y0.8323
X-0.1772Y-0.9252
X-0.1745Y-1.0591
X-0.1732Y0.4734
X-0.1732Y0.437
X-0.1721Y1.063
X-0.157Y0.5271
X-0.1498Y-1.0591
X-0.1468Y1.063
X-0.1378Y-0.7638
X-0.1329Y0.4301
X-0.1329Y0.2244
X-0.1329Y0.2018
X-0.1329Y0.1781
X-0.1309Y0.3681
X-0.1299Y0.3415
X-0.1299Y0.315
X-0.1242Y-1.0591
X-0.122Y1.063
X-0.1201Y-0.7461
X-0.1201Y-0.7854
X-0.1145Y-0.9252
X-0.1142Y0.4843
X-0.1132Y0.6211
X-0.1102Y0.2244
X-0.1102Y0.2018
X-0.1102Y0.1781
X-0.1093Y0.373
X-0.1093Y0.3494
X-0.1083Y0.3248
X-0.1014Y-0.8396
X-0.0994Y-1.0591
X-0.0965Y1.063
X-0.0965Y0.7972
X-0.0965Y0.5285
X-0.0965Y-0.1339
X-0.0965Y-0.1594
X-0.0965Y-0.185
X-0.0935Y1.0128
X-0.0935Y0.9744
X-0.0897Y-0.9252
X-0.0876Y0.3681
X-0.0876Y0.2244
X-0.0876Y0.2018
X-0.0876Y0.1781
X-0.0866Y0.3415
X-0.0866Y0.315
X-0.0741Y-1.0591
X-0.0738Y0.6329
X-0.0717Y1.063
X-0.0689Y-0.1339
X-0.0689Y-0.1752
X-0.065Y-0.9252
X-0.0591Y0.4547
X-0.0581Y-0.3543
X-0.0561Y1.0128
X-0.0561Y0.9744
X-0.0494Y-1.0591
X-0.0464Y1.063
X-0.0417Y-0.9252
X-0.0354Y0.6319
X-0.0346Y-0.3504
X-0.0335Y0.3602
X-0.0246Y0.9744
X-0.0238Y-1.0591
X-0.0217Y1.063
X-0.0158Y-0.5849
X-0.0138Y0.4193
X-0.0098Y-0.3543
X-0.0059Y-0.9921
X0.001Y-1.0591
X0.002Y-1.0266
X0.0039Y1.063
X0.0118Y-0.9272
X0.0246Y0.5709
X0.0263Y-1.0591
X0.0266Y0.4537
X0.0287Y1.063
X0.0362Y0.7933
X0.0366Y-0.9272
X0.0374Y-0.0531
X0.0374Y-0.0807
X0.0394Y-0.5591
X0.0492Y0.0531
X0.0492Y0.0256
X0.0492Y-0.002
X0.051Y-1.0591
X0.054Y1.063
X0.0613Y-0.9272
X0.065Y-0.0531
X0.065Y-0.0807
X0.0689Y0.6073
X0.0719Y0.6545
X0.074Y0.7933
X0.0748Y-0.7657
X0.0766Y-1.0591
X0.0768Y0.0531
X0.0768Y0.0256
X0.0768Y-0.002
X0.0768Y-0.8661
X0.0787Y1.063
X0.0797Y0.4439
X0.0846Y-0.9272
X0.0965Y-0.75
X0.0965Y-0.7795
X0.0982Y-0.8174
X0.1004Y0.7323
X0.1014Y-1.0591
X0.1015Y-0.8661
X0.1024Y-0.7087
X0.1043Y1.063
X0.1102Y-0.9272
X0.1228Y-0.263
X0.1263Y-0.8661
X0.1267Y-1.0591
X0.1291Y1.063
X0.1299Y0.7559
X0.1299Y-0.8031
X0.135Y-0.9272
X0.1437Y0.6476
X0.1496Y-0.8661
X0.1514Y-1.0591
X0.1521Y-0.2446
X0.1544Y1.063
X0.1555Y0.5945
X0.1634Y0.1268
X0.1634Y0.089
X0.1673Y-0.9587
X0.1765Y-0.9817
X0.177Y-1.0591
X0.1791Y-0.2677
X0.1791Y1.063
X0.189Y-0.8051
X0.1909Y0.3602
X0.2008Y0.9961
X0.2008Y0.9449
X0.2008Y0.8976
X0.2008Y0.8465
X0.2008Y0.7913
X0.2028Y-1.0591
X0.2047Y1.063
X0.2047Y0.2756
X0.2114Y0.0886
X0.2114Y0.0512
X0.2182Y0.6198
X0.2244Y-0.9705
X0.2254Y0.3602
X0.228Y-1.0591
X0.2293Y0.247
X0.2295Y1.063
X0.2392Y-0.2185
X0.2441Y0.6575
X0.2461Y-0.8258
X0.2492Y0.0512
X0.2492Y0.0886
X0.251Y0.5728
X0.2528Y-1.0591
X0.2548Y1.063
X0.2598Y0.8031
X0.2618Y-0.6496
X0.2618Y-0.6821
X0.2638Y0.9961
X0.2638Y0.9449
X0.2638Y0.8976
X0.2638Y0.8465
X0.2677Y-0.2382
X0.2697Y-0.2067
X0.2717Y-0.7362
X0.2766Y0.626
X0.2784Y-1.0591
X0.2795Y1.063
X0.2795Y-0.1319
X0.2805Y-0.1752
X0.2902Y0.5335
X0.2933Y0.0049
X0.3011Y-0.0195
X0.3012Y0.5876
X0.3031Y-1.0591
X0.3051Y1.063
X0.31Y-0.1437
X0.315Y-0.375
X0.3154Y-0.2408
X0.3179Y-0.2638
X0.3228Y-0.6496
X0.3228Y-0.6811
X0.3248Y-0.0266
X0.3268Y0.7402
X0.3284Y-1.0591
X0.3287Y-0.3396
X0.3297Y0.5344
X0.3299Y1.063
X0.3386Y0.2254
X0.3386Y0.1939
X0.3386Y0.0837
X0.3396Y0.4301
X0.3396Y0.3976
X0.3406Y-0.2677
X0.3415Y-0.1427
X0.3425Y0.7598
X0.3465Y-0.3661
X0.3484Y-0.5896
X0.3532Y-1.0591
X0.3552Y1.063
X0.3642Y-0.3957
X0.3691Y0.0758
X0.372Y-0.125
X0.373Y0.3661
X0.377Y0.2028
X0.3788Y-1.0591
X0.3799Y1.063
X0.3967Y0.4203
X0.3967Y0.0925
X0.4026Y-0.1693
X0.4028Y0.5709
X0.4035Y0.5344
X0.4035Y-1.0591
X0.4055Y1.063
X0.4085Y0.3829
X0.4183Y0.2057
X0.4288Y-1.0591
X0.4291Y0.0571
X0.4303Y1.063
X0.4321Y0.0886
X0.4321Y-0.1319
X0.4498Y0.1161
X0.4536Y-1.0591
X0.4556Y1.063
X0.4665Y0.1545
X0.4792Y-1.0591
X0.4803Y1.063
X0.4902Y0.1762
X0.501Y0.1457
X0.5039Y-1.0591
X0.5059Y1.063
X0.5292Y-1.0591
X0.5307Y1.063
X0.5315Y0.3043
X0.5315Y0.2665
X0.5374Y0.2156
X0.554Y-1.0591
X0.5559Y1.063
X0.5571Y0.1821
X0.5796Y-1.0591
X0.5807Y1.063
X0.6043Y-1.0591
X0.6063Y1.063
X0.6296Y-1.0591
X0.6311Y1.063
X0.6544Y-1.0591
X0.6563Y1.063
X0.68Y-1.0591
X0.6811Y1.063
X0.7047Y-1.0591
X0.7067Y1.063
X0.73Y-1.0591
X0.7315Y1.063
X0.752Y-0.2077
X0.752Y-0.2992
X0.752Y-0.3829
X0.7539Y-0.4695
X0.7548Y-1.0591
X0.7567Y1.063
X0.7804Y-1.0591
X0.7815Y1.063
X0.8051Y-1.0591
X0.8071Y1.063
X0.8304Y-1.0591
X0.8319Y1.063
X0.8552Y-1.0591
X0.8571Y1.063
X0.8807Y-1.0591
X0.8819Y1.063
X0.9055Y-1.0591
X0.9075Y1.063
X0.9303Y-1.0591
X0.9322Y1.063
X0.9559Y-1.0591
X0.9575Y1.063
X0.9815Y-1.0591
X0.9823Y1.063
X1.0062Y-1.0591
X1.0079Y1.063
X1.0318Y-1.0591
X1.0326Y1.063
X1.0566Y-1.0591
X1.0579Y1.063
X1.0819Y-1.0591
X1.0827Y1.063
X1.1066Y-1.0591
X1.1083Y1.063
X1.1181Y1.0413
X1.1181Y1.0166
X1.1181Y0.991
X1.1181Y0.9662
X1.1181Y0.9409
X1.1181Y0.9162
X1.1181Y0.8906
X1.1181Y0.8658
X1.1181Y0.8406
X1.1181Y0.8158
X1.1181Y0.7902
X1.1181Y0.7654
X1.1181Y0.7402
X1.1181Y0.7154
X1.1181Y0.6898
X1.1181Y0.665
X1.1181Y0.6398
X1.1181Y0.615
X1.1181Y0.5894
X1.1181Y0.5646
X1.1181Y0.5394
X1.1181Y0.5146
X1.1181Y0.489
X1.1181Y0.4643
X1.1181Y0.439
X1.1181Y0.4142
X1.1181Y0.3886
X1.1181Y0.3639
X1.1181Y0.3386
X1.1181Y0.3138
X1.1181Y0.2882
X1.1181Y0.2635
X1.1181Y0.2382
X1.1181Y0.2134
X1.1181Y0.1878
X1.1181Y0.1631
X1.1181Y0.1378
X1.1181Y0.113
X1.1181Y0.0874
X1.1181Y0.0627
X1.1181Y0.0374
X1.1181Y0.0126
X1.1181Y-0.013
X1.1181Y-0.0377
X1.1181Y-0.063
X1.1181Y-0.0878
X1.1181Y-0.1133
X1.1181Y-0.1381
X1.1181Y-0.1634
X1.1181Y-0.1881
X1.1181Y-0.2137
X1.1181Y-0.2385
X1.1181Y-0.2638
X1.1181Y-0.2885
X1.1181Y-0.3141
X1.1181Y-0.3389
X1.1181Y-0.3642
X1.1181Y-0.3889
X1.1181Y-0.4145
X1.1181Y-0.44
X1.1181Y-0.4656
X1.1181Y-0.4903
X1.1181Y-0.5156
X1.1181Y-0.5404
X1.1181Y-0.5659
X1.1181Y-0.5907
X1.1181Y-0.616
X1.1181Y-0.6407
X1.1181Y-0.6663
X1.1181Y-0.6911
X1.1181Y-0.7164
X1.1181Y-0.7411
X1.1181Y-0.7667
X1.1181Y-0.7915
X1.1181Y-0.8168
X1.1181Y-0.8415
X1.1181Y-0.8671
X1.1181Y-0.8919
X1.1181Y-0.9172
X1.1181Y-0.9419
X1.1181Y-0.9675
X1.1181Y-0.9923
X1.1181Y-1.0176
X1.1201Y-1.0396
T3
X0.4451Y0.9933
X0.4451Y0.9433
X0.4451Y0.8933
X0.4451Y0.8433
X0.4451Y0.7933
X0.4951Y0.9933
X0.4951Y0.9433
X0.4951Y0.8933
X0.4951Y0.8433
X0.4951Y0.7933
T4
X-0.6156Y-0.1675
X-0.6156Y-0.2675
X-0.6156Y-0.3675
X-0.6156Y-0.4675
X-0.6156Y-0.5675
X-0.5156Y-0.1175
X-0.5156Y-0.2175
X-0.5156Y-0.3175
X-0.5156Y-0.4175
X-0.5156Y-0.5175
T5
X-1.0699Y0.4744
X-1.0699Y0.2972
X0.6715Y0.4677
X0.6715Y0.3827
X0.6715Y0.2976
X0.6715Y0.2126
X0.6715Y0.1276
X0.6715Y0.0425
X0.6715Y-0.0425
X0.6715Y-0.1276
X0.6715Y-0.2126
X0.6715Y-0.2976
X0.6715Y-0.3827
X0.6715Y-0.4677
X0.8404Y0.4677
X0.8404Y0.3827
X0.8404Y0.2976
X0.8404Y0.2126
X0.8404Y0.1276
X0.8404Y0.0425
X0.8404Y-0.0425
X0.8404Y-0.1276
X0.8404Y-0.2126
X0.8404Y-0.2976
X0.8404Y-0.3827
X0.8404Y-0.4677
T6
X-1.0455Y-0.0778
X-1.0455Y-0.6073
X-0.9656Y-0.0778
X-0.9656Y-0.6073
T7
X-0.9715Y0.5236
X-0.9715Y0.248
T8
X-0.7455Y-0.0325
X-0.7455Y-0.6526
T9
X0.7559Y0.9213
X0.7559Y-0.9213
T2
G00X-1.1299Y0.9939
M15
G01X-1.1614Y0.9939
M16
G05
G00X-1.1299Y0.6537
M15
G01X-1.1614Y0.6537
M16
G05
G00X-0.9594Y0.9939
M15
G01X-1.0028Y0.9939
M16
G05
G00X-0.9594Y0.6537
M15
G01X-1.0028Y0.6537
M16
G05
M30
